<mxfile host="app.diagrams.net" modified="2020-10-08T16:18:08.356Z" agent="5.0 (Windows NT 10.0; Win64; x64) AppleWebKit/537.36 (KHTML, like Gecko) Chrome/85.0.4183.121 Safari/537.36" etag="OMw4T0AP_AyJgegYRxk9" version="13.7.8" type="github" pages="5">
  <diagram id="kgpKYQtTHZ0yAKxKKP6v" name="system-flow-chart">
    <mxGraphModel dx="702" dy="757" grid="1" gridSize="10" guides="1" tooltips="1" connect="1" arrows="1" fold="1" page="1" pageScale="1" pageWidth="850" pageHeight="1100" math="1" shadow="0">
      <root>
        <mxCell id="0" />
        <mxCell id="1" parent="0" />
        <mxCell id="iz_rTE10PBsAMfc_qBPl-3" value="&lt;span style=&quot;font-family: &amp;#34;courier new&amp;#34; , &amp;#34;courier&amp;#34; , monospace ; font-size: 13px ; text-align: left ; background-color: rgb(255 , 255 , 255)&quot;&gt;$$ \ ET_c = (K_sK_{cb}+K_e)ET_o $$&lt;/span&gt;" style="text;html=1;strokeColor=none;fillColor=none;align=center;verticalAlign=middle;whiteSpace=wrap;rounded=0;" parent="1" vertex="1">
          <mxGeometry x="560" y="257" width="40" height="18" as="geometry" />
        </mxCell>
        <mxCell id="iz_rTE10PBsAMfc_qBPl-4" value="Grided Ref ET" style="rounded=0;whiteSpace=wrap;html=1;" parent="1" vertex="1">
          <mxGeometry x="150" y="177" width="120" height="60" as="geometry" />
        </mxCell>
        <mxCell id="iz_rTE10PBsAMfc_qBPl-5" value="Basin Crop ET" style="rounded=0;whiteSpace=wrap;html=1;" parent="1" vertex="1">
          <mxGeometry x="510" y="177" width="120" height="60" as="geometry" />
        </mxCell>
        <mxCell id="iz_rTE10PBsAMfc_qBPl-6" value="Basin NWIR" style="rounded=0;whiteSpace=wrap;html=1;" parent="1" vertex="1">
          <mxGeometry x="910" y="177" width="120" height="60" as="geometry" />
        </mxCell>
        <mxCell id="iz_rTE10PBsAMfc_qBPl-7" value="" style="endArrow=classic;html=1;exitX=1;exitY=0.5;exitDx=0;exitDy=0;entryX=0;entryY=0.5;entryDx=0;entryDy=0;" parent="1" source="iz_rTE10PBsAMfc_qBPl-4" target="iz_rTE10PBsAMfc_qBPl-12" edge="1">
          <mxGeometry width="50" height="50" relative="1" as="geometry">
            <mxPoint x="610" y="437" as="sourcePoint" />
            <mxPoint x="160" y="117" as="targetPoint" />
          </mxGeometry>
        </mxCell>
        <mxCell id="iz_rTE10PBsAMfc_qBPl-8" value="&lt;h1&gt;ETo&lt;/h1&gt;&lt;p&gt;&lt;font style=&quot;font-size: 18px&quot;&gt;reference evaporation mainly according to Penman-Montieth equation&lt;/font&gt;&lt;/p&gt;" style="text;html=1;strokeColor=none;fillColor=none;spacing=5;spacingTop=-20;whiteSpace=wrap;overflow=hidden;rounded=0;" parent="1" vertex="1">
          <mxGeometry x="140" y="50" width="260" height="120" as="geometry" />
        </mxCell>
        <mxCell id="iz_rTE10PBsAMfc_qBPl-9" value="&lt;h1&gt;ETc&lt;/h1&gt;&lt;p&gt;&lt;font style=&quot;font-size: 18px&quot;&gt;crop evaportranspiration of a basin&lt;/font&gt;&lt;/p&gt;" style="text;html=1;strokeColor=none;fillColor=none;spacing=5;spacingTop=-20;whiteSpace=wrap;overflow=hidden;rounded=0;" parent="1" vertex="1">
          <mxGeometry x="500" y="55" width="210" height="105" as="geometry" />
        </mxCell>
        <mxCell id="iz_rTE10PBsAMfc_qBPl-10" value="&lt;h1&gt;NIWR&lt;/h1&gt;&lt;p&gt;&lt;font style=&quot;font-size: 18px&quot;&gt;Net irrigation water requirements will be calculated in the same loop with ETc&#39;s in the code&lt;/font&gt;&lt;/p&gt;" style="text;html=1;strokeColor=none;fillColor=none;spacing=5;spacingTop=-20;whiteSpace=wrap;overflow=hidden;rounded=0;" parent="1" vertex="1">
          <mxGeometry x="890" y="50" width="310" height="120" as="geometry" />
        </mxCell>
        <mxCell id="iz_rTE10PBsAMfc_qBPl-11" value="&lt;span style=&quot;font-family: &amp;#34;courier new&amp;#34; , &amp;#34;courier&amp;#34; , monospace ; font-size: 13px ; text-align: left ; background-color: rgb(255 , 255 , 255)&quot;&gt;$$ \ NWIR = ET_c-(P-Runoff-D_{percp})&lt;br&gt;$$&lt;/span&gt;" style="text;html=1;strokeColor=none;fillColor=none;align=center;verticalAlign=middle;whiteSpace=wrap;rounded=0;" parent="1" vertex="1">
          <mxGeometry x="950" y="250" width="40" height="13" as="geometry" />
        </mxCell>
        <mxCell id="iz_rTE10PBsAMfc_qBPl-12" value="spatial join" style="rhombus;whiteSpace=wrap;html=1;" parent="1" vertex="1">
          <mxGeometry x="335" y="167" width="80" height="80" as="geometry" />
        </mxCell>
        <mxCell id="iz_rTE10PBsAMfc_qBPl-13" value="" style="endArrow=classic;html=1;exitX=1;exitY=0.5;exitDx=0;exitDy=0;entryX=0;entryY=0.5;entryDx=0;entryDy=0;" parent="1" source="iz_rTE10PBsAMfc_qBPl-12" target="iz_rTE10PBsAMfc_qBPl-5" edge="1">
          <mxGeometry width="50" height="50" relative="1" as="geometry">
            <mxPoint x="280" y="217" as="sourcePoint" />
            <mxPoint x="305" y="375" as="targetPoint" />
          </mxGeometry>
        </mxCell>
        <mxCell id="iz_rTE10PBsAMfc_qBPl-14" value="" style="endArrow=classic;html=1;exitX=1;exitY=0.5;exitDx=0;exitDy=0;" parent="1" source="iz_rTE10PBsAMfc_qBPl-5" target="iz_rTE10PBsAMfc_qBPl-6" edge="1">
          <mxGeometry width="50" height="50" relative="1" as="geometry">
            <mxPoint x="425" y="217" as="sourcePoint" />
            <mxPoint x="520" y="217" as="targetPoint" />
          </mxGeometry>
        </mxCell>
        <mxCell id="iz_rTE10PBsAMfc_qBPl-18" value="$$ \&lt;br&gt;K_s&lt;br&gt;$$" style="rounded=1;whiteSpace=wrap;html=1;" parent="1" vertex="1">
          <mxGeometry x="920" y="360" width="50" height="60" as="geometry" />
        </mxCell>
        <mxCell id="iz_rTE10PBsAMfc_qBPl-20" value="$$ \&lt;br&gt;K_{cb}&lt;br&gt;$$" style="rounded=1;whiteSpace=wrap;html=1;" parent="1" vertex="1">
          <mxGeometry x="510" y="360" width="50" height="60" as="geometry" />
        </mxCell>
        <mxCell id="iz_rTE10PBsAMfc_qBPl-21" value="$$ \&lt;br&gt;K_e&lt;br&gt;$$" style="rounded=1;whiteSpace=wrap;html=1;" parent="1" vertex="1">
          <mxGeometry x="800" y="360" width="50" height="60" as="geometry" />
        </mxCell>
        <mxCell id="iz_rTE10PBsAMfc_qBPl-22" value="Runoff" style="rounded=1;whiteSpace=wrap;html=1;" parent="1" vertex="1">
          <mxGeometry x="1040" y="330" width="60" height="60" as="geometry" />
        </mxCell>
        <mxCell id="zdCRC23fJcQLoAnJ4gr3-2" value="" style="endArrow=classic;html=1;exitX=0.5;exitY=1;exitDx=0;exitDy=0;entryX=0.5;entryY=0;entryDx=0;entryDy=0;" parent="1" source="iz_rTE10PBsAMfc_qBPl-3" target="iz_rTE10PBsAMfc_qBPl-20" edge="1">
          <mxGeometry width="50" height="50" relative="1" as="geometry">
            <mxPoint x="425" y="217" as="sourcePoint" />
            <mxPoint x="520" y="217" as="targetPoint" />
          </mxGeometry>
        </mxCell>
        <mxCell id="c2PW5VgvTEIcMFRe3pU7-1" value="&lt;div style=&quot;text-align: left&quot;&gt;&lt;font face=&quot;courier new, courier, monospace&quot;&gt;&lt;span style=&quot;font-size: 13px ; background-color: rgb(255 , 255 , 255)&quot;&gt;1.determine the planting or greenup date&lt;/span&gt;&lt;/font&gt;&lt;/div&gt;" style="text;html=1;strokeColor=none;fillColor=none;align=center;verticalAlign=middle;whiteSpace=wrap;rounded=0;" parent="1" vertex="1">
          <mxGeometry x="320" y="440" width="195" height="18" as="geometry" />
        </mxCell>
        <mxCell id="c2PW5VgvTEIcMFRe3pU7-2" value="&lt;div style=&quot;text-align: left&quot;&gt;&lt;font face=&quot;courier new, courier, monospace&quot;&gt;&lt;span style=&quot;font-size: 13px ; background-color: rgb(255 , 255 , 255)&quot;&gt;2.in the growing season, calculate Kcb according to the given crop parameters&lt;/span&gt;&lt;/font&gt;&lt;/div&gt;" style="text;html=1;strokeColor=none;fillColor=none;align=center;verticalAlign=middle;whiteSpace=wrap;rounded=0;" parent="1" vertex="1">
          <mxGeometry x="320" y="490" width="195" height="18" as="geometry" />
        </mxCell>
        <mxCell id="c2PW5VgvTEIcMFRe3pU7-3" value="crop" style="shape=cylinder3;whiteSpace=wrap;html=1;boundedLbl=1;backgroundOutline=1;size=15;" parent="1" vertex="1">
          <mxGeometry x="505" y="520" width="60" height="60" as="geometry" />
        </mxCell>
        <mxCell id="-qIpuhVUz1uD6xFVzBBe-10" value="" style="endArrow=none;dashed=1;html=1;dashPattern=1 3;strokeWidth=2;entryX=0.5;entryY=1;entryDx=0;entryDy=0;exitX=0.5;exitY=0;exitDx=0;exitDy=0;exitPerimeter=0;" parent="1" source="c2PW5VgvTEIcMFRe3pU7-3" target="iz_rTE10PBsAMfc_qBPl-20" edge="1">
          <mxGeometry width="50" height="50" relative="1" as="geometry">
            <mxPoint x="520" y="510" as="sourcePoint" />
            <mxPoint x="570" y="460" as="targetPoint" />
          </mxGeometry>
        </mxCell>
        <mxCell id="-qIpuhVUz1uD6xFVzBBe-13" value="" style="group" parent="1" vertex="1" connectable="0">
          <mxGeometry x="402.5" y="620" width="265" height="165" as="geometry" />
        </mxCell>
        <mxCell id="-qIpuhVUz1uD6xFVzBBe-12" value="" style="rounded=1;whiteSpace=wrap;html=1;" parent="-qIpuhVUz1uD6xFVzBBe-13" vertex="1">
          <mxGeometry width="265" height="165" as="geometry" />
        </mxCell>
        <mxCell id="-qIpuhVUz1uD6xFVzBBe-3" value="Crop curve" style="rounded=1;whiteSpace=wrap;html=1;" parent="-qIpuhVUz1uD6xFVzBBe-13" vertex="1">
          <mxGeometry x="20" y="15" width="90" height="30" as="geometry" />
        </mxCell>
        <mxCell id="-qIpuhVUz1uD6xFVzBBe-4" value="NCGDD related params" style="rounded=1;whiteSpace=wrap;html=1;" parent="-qIpuhVUz1uD6xFVzBBe-13" vertex="1">
          <mxGeometry x="25" y="65" width="90" height="30" as="geometry" />
        </mxCell>
        <mxCell id="-qIpuhVUz1uD6xFVzBBe-5" value="time based method&#39;s params" style="rounded=1;whiteSpace=wrap;html=1;" parent="-qIpuhVUz1uD6xFVzBBe-13" vertex="1">
          <mxGeometry x="145" y="65" width="95" height="30" as="geometry" />
        </mxCell>
        <mxCell id="-qIpuhVUz1uD6xFVzBBe-6" value="Killing frost params" style="rounded=1;whiteSpace=wrap;html=1;" parent="-qIpuhVUz1uD6xFVzBBe-13" vertex="1">
          <mxGeometry x="22.5" y="115" width="95" height="30" as="geometry" />
        </mxCell>
        <mxCell id="-qIpuhVUz1uD6xFVzBBe-7" value="pl or gu params" style="rounded=1;whiteSpace=wrap;html=1;" parent="-qIpuhVUz1uD6xFVzBBe-13" vertex="1">
          <mxGeometry x="145" y="15" width="90" height="30" as="geometry" />
        </mxCell>
        <mxCell id="-qIpuhVUz1uD6xFVzBBe-14" value="" style="endArrow=none;dashed=1;html=1;dashPattern=1 3;strokeWidth=2;entryX=0.5;entryY=1;entryDx=0;entryDy=0;exitX=0.5;exitY=0;exitDx=0;exitDy=0;entryPerimeter=0;" parent="1" source="-qIpuhVUz1uD6xFVzBBe-12" target="c2PW5VgvTEIcMFRe3pU7-3" edge="1">
          <mxGeometry width="50" height="50" relative="1" as="geometry">
            <mxPoint x="545" y="530" as="sourcePoint" />
            <mxPoint x="545" y="430" as="targetPoint" />
          </mxGeometry>
        </mxCell>
        <mxCell id="-qIpuhVUz1uD6xFVzBBe-15" value="" style="endArrow=classic;html=1;exitX=0.5;exitY=1;exitDx=0;exitDy=0;entryX=0.5;entryY=0;entryDx=0;entryDy=0;" parent="1" source="iz_rTE10PBsAMfc_qBPl-3" target="iz_rTE10PBsAMfc_qBPl-21" edge="1">
          <mxGeometry width="50" height="50" relative="1" as="geometry">
            <mxPoint x="590" y="285" as="sourcePoint" />
            <mxPoint x="465" y="340" as="targetPoint" />
          </mxGeometry>
        </mxCell>
      </root>
    </mxGraphModel>
  </diagram>
  <diagram id="phyAsOEKrArppd_-jW9R" name="crop_gdd">
    <mxGraphModel dx="702" dy="757" grid="1" gridSize="10" guides="1" tooltips="1" connect="1" arrows="1" fold="1" page="1" pageScale="1" pageWidth="827" pageHeight="1169" math="0" shadow="0">
      <root>
        <mxCell id="JXFavBmA1j79T9uxORN8-0" />
        <mxCell id="JXFavBmA1j79T9uxORN8-1" parent="JXFavBmA1j79T9uxORN8-0" />
        <mxCell id="JXFavBmA1j79T9uxORN8-4" style="edgeStyle=orthogonalEdgeStyle;rounded=0;orthogonalLoop=1;jettySize=auto;html=1;entryX=0.5;entryY=0;entryDx=0;entryDy=0;" parent="JXFavBmA1j79T9uxORN8-1" source="JXFavBmA1j79T9uxORN8-2" target="JXFavBmA1j79T9uxORN8-3" edge="1">
          <mxGeometry relative="1" as="geometry" />
        </mxCell>
        <mxCell id="JXFavBmA1j79T9uxORN8-7" style="edgeStyle=orthogonalEdgeStyle;rounded=0;orthogonalLoop=1;jettySize=auto;html=1;exitX=1;exitY=0.5;exitDx=0;exitDy=0;entryX=0.5;entryY=0;entryDx=0;entryDy=0;" parent="JXFavBmA1j79T9uxORN8-1" source="JXFavBmA1j79T9uxORN8-2" target="JXFavBmA1j79T9uxORN8-6" edge="1">
          <mxGeometry relative="1" as="geometry" />
        </mxCell>
        <mxCell id="JXFavBmA1j79T9uxORN8-2" value="foo_day.sdays&amp;gt;30" style="rhombus;whiteSpace=wrap;html=1;" parent="JXFavBmA1j79T9uxORN8-1" vertex="1">
          <mxGeometry x="127.5" y="80" width="140" height="50" as="geometry" />
        </mxCell>
        <mxCell id="76Q7WDDWTC53ziqNvJG3-1" style="edgeStyle=orthogonalEdgeStyle;rounded=0;orthogonalLoop=1;jettySize=auto;html=1;exitX=0.5;exitY=1;exitDx=0;exitDy=0;" parent="JXFavBmA1j79T9uxORN8-1" source="JXFavBmA1j79T9uxORN8-3" target="76Q7WDDWTC53ziqNvJG3-0" edge="1">
          <mxGeometry relative="1" as="geometry" />
        </mxCell>
        <mxCell id="JXFavBmA1j79T9uxORN8-3" value="etref_lost = foo_day.etref_array[0]" style="rounded=1;whiteSpace=wrap;html=1;" parent="JXFavBmA1j79T9uxORN8-1" vertex="1">
          <mxGeometry x="102.5" y="190" width="190" height="40" as="geometry" />
        </mxCell>
        <mxCell id="JXFavBmA1j79T9uxORN8-5" value="Yes" style="text;html=1;strokeColor=none;fillColor=none;align=center;verticalAlign=middle;whiteSpace=wrap;rounded=0;" parent="JXFavBmA1j79T9uxORN8-1" vertex="1">
          <mxGeometry x="147.5" y="140" width="40" height="20" as="geometry" />
        </mxCell>
        <mxCell id="JXFavBmA1j79T9uxORN8-11" style="edgeStyle=orthogonalEdgeStyle;rounded=0;orthogonalLoop=1;jettySize=auto;html=1;entryX=0.5;entryY=0;entryDx=0;entryDy=0;" parent="JXFavBmA1j79T9uxORN8-1" source="JXFavBmA1j79T9uxORN8-6" target="JXFavBmA1j79T9uxORN8-10" edge="1">
          <mxGeometry relative="1" as="geometry" />
        </mxCell>
        <mxCell id="JXFavBmA1j79T9uxORN8-6" value="foo_day.etref_array[foo_day.sdays - 1] = foo_day.etref" style="rounded=1;whiteSpace=wrap;html=1;" parent="JXFavBmA1j79T9uxORN8-1" vertex="1">
          <mxGeometry x="530" y="190" width="220" height="60" as="geometry" />
        </mxCell>
        <mxCell id="JXFavBmA1j79T9uxORN8-8" value="No" style="text;html=1;strokeColor=none;fillColor=none;align=center;verticalAlign=middle;whiteSpace=wrap;rounded=0;" parent="JXFavBmA1j79T9uxORN8-1" vertex="1">
          <mxGeometry x="590" y="140" width="40" height="20" as="geometry" />
        </mxCell>
        <mxCell id="JXFavBmA1j79T9uxORN8-9" value="sdays is the accumulated days&amp;nbsp;" style="text;html=1;strokeColor=none;fillColor=none;align=center;verticalAlign=middle;whiteSpace=wrap;rounded=0;" parent="JXFavBmA1j79T9uxORN8-1" vertex="1">
          <mxGeometry x="107.5" y="50" width="180" height="20" as="geometry" />
        </mxCell>
        <mxCell id="JXFavBmA1j79T9uxORN8-14" style="edgeStyle=orthogonalEdgeStyle;rounded=0;orthogonalLoop=1;jettySize=auto;html=1;exitX=0.5;exitY=1;exitDx=0;exitDy=0;entryX=0.5;entryY=0;entryDx=0;entryDy=0;" parent="JXFavBmA1j79T9uxORN8-1" source="JXFavBmA1j79T9uxORN8-10" target="JXFavBmA1j79T9uxORN8-13" edge="1">
          <mxGeometry relative="1" as="geometry" />
        </mxCell>
        <mxCell id="JXFavBmA1j79T9uxORN8-10" value="foo.etref_30 = (foo.etref_30 * (foo_day.sdays - 1) + foo_day.etref) / foo_day.sdays" style="rounded=1;whiteSpace=wrap;html=1;" parent="JXFavBmA1j79T9uxORN8-1" vertex="1">
          <mxGeometry x="530" y="310" width="220" height="60" as="geometry" />
        </mxCell>
        <mxCell id="JXFavBmA1j79T9uxORN8-12" value="foo.etref_30 is the 30-days mean vetref value" style="text;html=1;strokeColor=none;fillColor=none;align=center;verticalAlign=middle;whiteSpace=wrap;rounded=0;" parent="JXFavBmA1j79T9uxORN8-1" vertex="1">
          <mxGeometry x="660" y="280" width="180" height="20" as="geometry" />
        </mxCell>
        <mxCell id="JXFavBmA1j79T9uxORN8-15" style="edgeStyle=orthogonalEdgeStyle;rounded=0;orthogonalLoop=1;jettySize=auto;html=1;entryX=0.5;entryY=0;entryDx=0;entryDy=0;" parent="JXFavBmA1j79T9uxORN8-1" source="JXFavBmA1j79T9uxORN8-13" target="JXFavBmA1j79T9uxORN8-20" edge="1">
          <mxGeometry relative="1" as="geometry">
            <mxPoint x="640" y="550" as="targetPoint" />
          </mxGeometry>
        </mxCell>
        <mxCell id="JXFavBmA1j79T9uxORN8-21" style="edgeStyle=orthogonalEdgeStyle;rounded=0;orthogonalLoop=1;jettySize=auto;html=1;exitX=1;exitY=0.5;exitDx=0;exitDy=0;entryX=0.5;entryY=0;entryDx=0;entryDy=0;" parent="JXFavBmA1j79T9uxORN8-1" source="JXFavBmA1j79T9uxORN8-10" target="JXFavBmA1j79T9uxORN8-42" edge="1">
          <mxGeometry relative="1" as="geometry" />
        </mxCell>
        <mxCell id="JXFavBmA1j79T9uxORN8-13" value="crop.winter_crop&amp;nbsp; and&lt;br&gt;foo_day.doy_prev &amp;lt; crop.gdd_trigger_doy &amp;lt;= foo_day.doy" style="rhombus;whiteSpace=wrap;html=1;" parent="JXFavBmA1j79T9uxORN8-1" vertex="1">
          <mxGeometry x="420" y="430" width="440" height="60" as="geometry" />
        </mxCell>
        <mxCell id="JXFavBmA1j79T9uxORN8-17" value="the trigger day of winter crop is Jan. 1st" style="text;html=1;strokeColor=none;fillColor=none;align=center;verticalAlign=middle;whiteSpace=wrap;rounded=0;" parent="JXFavBmA1j79T9uxORN8-1" vertex="1">
          <mxGeometry x="710" y="410" width="140" height="30" as="geometry" />
        </mxCell>
        <mxCell id="JXFavBmA1j79T9uxORN8-19" value="if" style="text;html=1;strokeColor=none;fillColor=none;align=center;verticalAlign=middle;whiteSpace=wrap;rounded=0;" parent="JXFavBmA1j79T9uxORN8-1" vertex="1">
          <mxGeometry x="650" y="390" width="40" height="20" as="geometry" />
        </mxCell>
        <mxCell id="JXFavBmA1j79T9uxORN8-23" style="edgeStyle=orthogonalEdgeStyle;rounded=0;orthogonalLoop=1;jettySize=auto;html=1;entryX=0.5;entryY=0;entryDx=0;entryDy=0;" parent="JXFavBmA1j79T9uxORN8-1" source="JXFavBmA1j79T9uxORN8-20" target="JXFavBmA1j79T9uxORN8-24" edge="1">
          <mxGeometry relative="1" as="geometry">
            <mxPoint x="640" y="810" as="targetPoint" />
          </mxGeometry>
        </mxCell>
        <mxCell id="JXFavBmA1j79T9uxORN8-20" value="foo.cgdd = 0.0&lt;br&gt;foo.doy_start_cycle = 0&lt;br&gt;foo.real_start = False&lt;br&gt;foo.in_season = False" style="rounded=1;whiteSpace=wrap;html=1;" parent="JXFavBmA1j79T9uxORN8-1" vertex="1">
          <mxGeometry x="570" y="590" width="140" height="70" as="geometry" />
        </mxCell>
        <mxCell id="JXFavBmA1j79T9uxORN8-25" style="edgeStyle=orthogonalEdgeStyle;rounded=0;orthogonalLoop=1;jettySize=auto;html=1;entryX=0.5;entryY=0;entryDx=0;entryDy=0;" parent="JXFavBmA1j79T9uxORN8-1" source="JXFavBmA1j79T9uxORN8-24" target="JXFavBmA1j79T9uxORN8-26" edge="1">
          <mxGeometry relative="1" as="geometry">
            <mxPoint x="640" y="810" as="targetPoint" />
          </mxGeometry>
        </mxCell>
        <mxCell id="JXFavBmA1j79T9uxORN8-24" value="foo_day.doy_prev = foo_day.doy" style="rounded=1;whiteSpace=wrap;html=1;" parent="JXFavBmA1j79T9uxORN8-1" vertex="1">
          <mxGeometry x="545" y="710" width="190" height="40" as="geometry" />
        </mxCell>
        <mxCell id="JXFavBmA1j79T9uxORN8-27" style="edgeStyle=orthogonalEdgeStyle;rounded=0;orthogonalLoop=1;jettySize=auto;html=1;exitX=0.5;exitY=1;exitDx=0;exitDy=0;entryX=0.5;entryY=0;entryDx=0;entryDy=0;" parent="JXFavBmA1j79T9uxORN8-1" source="JXFavBmA1j79T9uxORN8-26" target="JXFavBmA1j79T9uxORN8-28" edge="1">
          <mxGeometry relative="1" as="geometry">
            <mxPoint x="640" y="900" as="targetPoint" />
          </mxGeometry>
        </mxCell>
        <mxCell id="JXFavBmA1j79T9uxORN8-26" value="crop.curve_number &amp;gt; 0" style="rhombus;whiteSpace=wrap;html=1;" parent="JXFavBmA1j79T9uxORN8-1" vertex="1">
          <mxGeometry x="540" y="790" width="200" height="40" as="geometry" />
        </mxCell>
        <mxCell id="JXFavBmA1j79T9uxORN8-31" style="edgeStyle=orthogonalEdgeStyle;rounded=0;orthogonalLoop=1;jettySize=auto;html=1;exitX=0.5;exitY=1;exitDx=0;exitDy=0;entryX=0.5;entryY=0;entryDx=0;entryDy=0;" parent="JXFavBmA1j79T9uxORN8-1" source="JXFavBmA1j79T9uxORN8-28" target="JXFavBmA1j79T9uxORN8-30" edge="1">
          <mxGeometry relative="1" as="geometry" />
        </mxCell>
        <mxCell id="JXFavBmA1j79T9uxORN8-32" style="edgeStyle=orthogonalEdgeStyle;rounded=0;orthogonalLoop=1;jettySize=auto;html=1;entryX=0.5;entryY=0;entryDx=0;entryDy=0;" parent="JXFavBmA1j79T9uxORN8-1" source="JXFavBmA1j79T9uxORN8-26" target="JXFavBmA1j79T9uxORN8-45" edge="1">
          <mxGeometry relative="1" as="geometry">
            <mxPoint x="900" y="980" as="targetPoint" />
          </mxGeometry>
        </mxCell>
        <mxCell id="JXFavBmA1j79T9uxORN8-36" style="edgeStyle=orthogonalEdgeStyle;rounded=0;orthogonalLoop=1;jettySize=auto;html=1;" parent="JXFavBmA1j79T9uxORN8-1" source="JXFavBmA1j79T9uxORN8-26" target="JXFavBmA1j79T9uxORN8-48" edge="1">
          <mxGeometry relative="1" as="geometry" />
        </mxCell>
        <mxCell id="JXFavBmA1j79T9uxORN8-28" value="crop.winter_crop" style="rhombus;whiteSpace=wrap;html=1;" parent="JXFavBmA1j79T9uxORN8-1" vertex="1">
          <mxGeometry x="540" y="870" width="200" height="40" as="geometry" />
        </mxCell>
        <mxCell id="JXFavBmA1j79T9uxORN8-38" style="edgeStyle=orthogonalEdgeStyle;rounded=0;orthogonalLoop=1;jettySize=auto;html=1;exitX=0.5;exitY=1;exitDx=0;exitDy=0;entryX=0.5;entryY=0;entryDx=0;entryDy=0;" parent="JXFavBmA1j79T9uxORN8-1" source="JXFavBmA1j79T9uxORN8-30" target="JXFavBmA1j79T9uxORN8-39" edge="1">
          <mxGeometry relative="1" as="geometry">
            <mxPoint x="640" y="1050" as="targetPoint" />
          </mxGeometry>
        </mxCell>
        <mxCell id="JXFavBmA1j79T9uxORN8-41" style="edgeStyle=orthogonalEdgeStyle;rounded=0;orthogonalLoop=1;jettySize=auto;html=1;entryX=0.5;entryY=0;entryDx=0;entryDy=0;" parent="JXFavBmA1j79T9uxORN8-1" source="JXFavBmA1j79T9uxORN8-30" target="JXFavBmA1j79T9uxORN8-40" edge="1">
          <mxGeometry relative="1" as="geometry" />
        </mxCell>
        <mxCell id="JXFavBmA1j79T9uxORN8-62" style="edgeStyle=orthogonalEdgeStyle;rounded=0;orthogonalLoop=1;jettySize=auto;html=1;exitX=0.5;exitY=1;exitDx=0;exitDy=0;entryX=0.5;entryY=0;entryDx=0;entryDy=0;" parent="JXFavBmA1j79T9uxORN8-1" source="JXFavBmA1j79T9uxORN8-30" target="JXFavBmA1j79T9uxORN8-61" edge="1">
          <mxGeometry relative="1" as="geometry">
            <Array as="points">
              <mxPoint x="640" y="1020" />
              <mxPoint x="879" y="1020" />
              <mxPoint x="879" y="1119" />
            </Array>
          </mxGeometry>
        </mxCell>
        <mxCell id="JXFavBmA1j79T9uxORN8-30" value="foo_day.doy_prev = foo_day.doy" style="rounded=1;whiteSpace=wrap;html=1;" parent="JXFavBmA1j79T9uxORN8-1" vertex="1">
          <mxGeometry x="545" y="959" width="190" height="40" as="geometry" />
        </mxCell>
        <mxCell id="JXFavBmA1j79T9uxORN8-86" style="edgeStyle=orthogonalEdgeStyle;rounded=0;orthogonalLoop=1;jettySize=auto;html=1;exitX=0.5;exitY=1;exitDx=0;exitDy=0;entryX=0.5;entryY=0;entryDx=0;entryDy=0;" parent="JXFavBmA1j79T9uxORN8-1" source="JXFavBmA1j79T9uxORN8-33" target="JXFavBmA1j79T9uxORN8-85" edge="1">
          <mxGeometry relative="1" as="geometry" />
        </mxCell>
        <mxCell id="JXFavBmA1j79T9uxORN8-33" value="&lt;div&gt;tmax_prev = foo_day.tmax&lt;/div&gt;&lt;div&gt;&lt;span&gt;tmin_prev = foo_day.tmin&lt;/span&gt;&lt;/div&gt;" style="rounded=1;whiteSpace=wrap;html=1;" parent="JXFavBmA1j79T9uxORN8-1" vertex="1">
          <mxGeometry x="1075" y="969" width="190" height="40" as="geometry" />
        </mxCell>
        <mxCell id="JXFavBmA1j79T9uxORN8-35" value="&lt;div&gt;foo.gdd = foo_day.tmean - crop.tbase&lt;/div&gt;&lt;div&gt;&lt;span&gt;foo.cgdd += foo.gdd&lt;/span&gt;&lt;/div&gt;" style="rounded=1;whiteSpace=wrap;html=1;" parent="JXFavBmA1j79T9uxORN8-1" vertex="1">
          <mxGeometry x="1447" y="969" width="220" height="40" as="geometry" />
        </mxCell>
        <mxCell id="JXFavBmA1j79T9uxORN8-58" style="edgeStyle=orthogonalEdgeStyle;rounded=0;orthogonalLoop=1;jettySize=auto;html=1;" parent="JXFavBmA1j79T9uxORN8-1" source="JXFavBmA1j79T9uxORN8-39" target="JXFavBmA1j79T9uxORN8-57" edge="1">
          <mxGeometry relative="1" as="geometry" />
        </mxCell>
        <mxCell id="JXFavBmA1j79T9uxORN8-39" value="foo_day.tmin &amp;lt; -4.0" style="rhombus;whiteSpace=wrap;html=1;" parent="JXFavBmA1j79T9uxORN8-1" vertex="1">
          <mxGeometry x="250" y="1040" width="200" height="40" as="geometry" />
        </mxCell>
        <mxCell id="JXFavBmA1j79T9uxORN8-60" style="edgeStyle=orthogonalEdgeStyle;rounded=0;orthogonalLoop=1;jettySize=auto;html=1;entryX=0.5;entryY=0;entryDx=0;entryDy=0;" parent="JXFavBmA1j79T9uxORN8-1" source="JXFavBmA1j79T9uxORN8-40" target="JXFavBmA1j79T9uxORN8-59" edge="1">
          <mxGeometry relative="1" as="geometry" />
        </mxCell>
        <mxCell id="JXFavBmA1j79T9uxORN8-40" value="foo_day.tmean &amp;gt; crop.tbase" style="rhombus;whiteSpace=wrap;html=1;" parent="JXFavBmA1j79T9uxORN8-1" vertex="1">
          <mxGeometry x="540" y="1040" width="200" height="40" as="geometry" />
        </mxCell>
        <mxCell id="JXFavBmA1j79T9uxORN8-43" style="edgeStyle=orthogonalEdgeStyle;rounded=0;orthogonalLoop=1;jettySize=auto;html=1;entryX=1.007;entryY=0.6;entryDx=0;entryDy=0;entryPerimeter=0;exitX=0.5;exitY=1;exitDx=0;exitDy=0;" parent="JXFavBmA1j79T9uxORN8-1" source="JXFavBmA1j79T9uxORN8-42" target="JXFavBmA1j79T9uxORN8-20" edge="1">
          <mxGeometry relative="1" as="geometry" />
        </mxCell>
        <mxCell id="JXFavBmA1j79T9uxORN8-42" value="not crop.winter_crop and (foo_day.doy_prev &amp;gt; (crop.gdd_trigger_doy + 199) &amp;gt; foo_day.doy)" style="rhombus;whiteSpace=wrap;html=1;" parent="JXFavBmA1j79T9uxORN8-1" vertex="1">
          <mxGeometry x="900" y="430" width="280" height="70" as="geometry" />
        </mxCell>
        <mxCell id="JXFavBmA1j79T9uxORN8-44" value="elif" style="text;html=1;strokeColor=none;fillColor=none;align=center;verticalAlign=middle;whiteSpace=wrap;rounded=0;" parent="JXFavBmA1j79T9uxORN8-1" vertex="1">
          <mxGeometry x="997" y="390" width="40" height="20" as="geometry" />
        </mxCell>
        <mxCell id="JXFavBmA1j79T9uxORN8-52" style="edgeStyle=orthogonalEdgeStyle;rounded=0;orthogonalLoop=1;jettySize=auto;html=1;exitX=0.5;exitY=1;exitDx=0;exitDy=0;entryX=0.5;entryY=0;entryDx=0;entryDy=0;" parent="JXFavBmA1j79T9uxORN8-1" source="JXFavBmA1j79T9uxORN8-45" target="JXFavBmA1j79T9uxORN8-33" edge="1">
          <mxGeometry relative="1" as="geometry" />
        </mxCell>
        <mxCell id="JXFavBmA1j79T9uxORN8-45" value="crop.tbase &amp;lt; 0" style="rhombus;whiteSpace=wrap;html=1;" parent="JXFavBmA1j79T9uxORN8-1" vertex="1">
          <mxGeometry x="1070" y="880" width="200" height="40" as="geometry" />
        </mxCell>
        <mxCell id="JXFavBmA1j79T9uxORN8-46" value="if" style="text;html=1;strokeColor=none;fillColor=none;align=center;verticalAlign=middle;whiteSpace=wrap;rounded=0;" parent="JXFavBmA1j79T9uxORN8-1" vertex="1">
          <mxGeometry x="650" y="830" width="40" height="20" as="geometry" />
        </mxCell>
        <mxCell id="JXFavBmA1j79T9uxORN8-47" value="elif" style="text;html=1;strokeColor=none;fillColor=none;align=center;verticalAlign=middle;whiteSpace=wrap;rounded=0;" parent="JXFavBmA1j79T9uxORN8-1" vertex="1">
          <mxGeometry x="1120" y="840" width="40" height="20" as="geometry" />
        </mxCell>
        <mxCell id="JXFavBmA1j79T9uxORN8-53" style="edgeStyle=orthogonalEdgeStyle;rounded=0;orthogonalLoop=1;jettySize=auto;html=1;exitX=0.5;exitY=1;exitDx=0;exitDy=0;" parent="JXFavBmA1j79T9uxORN8-1" source="JXFavBmA1j79T9uxORN8-48" target="JXFavBmA1j79T9uxORN8-35" edge="1">
          <mxGeometry relative="1" as="geometry" />
        </mxCell>
        <mxCell id="JXFavBmA1j79T9uxORN8-48" value="foo_day.tmean &amp;gt; crop.tbase" style="rhombus;whiteSpace=wrap;html=1;" parent="JXFavBmA1j79T9uxORN8-1" vertex="1">
          <mxGeometry x="1457" y="880" width="200" height="40" as="geometry" />
        </mxCell>
        <mxCell id="JXFavBmA1j79T9uxORN8-49" value="elif" style="text;html=1;strokeColor=none;fillColor=none;align=center;verticalAlign=middle;whiteSpace=wrap;rounded=0;" parent="JXFavBmA1j79T9uxORN8-1" vertex="1">
          <mxGeometry x="1510" y="840" width="40" height="20" as="geometry" />
        </mxCell>
        <mxCell id="JXFavBmA1j79T9uxORN8-54" value="if" style="text;html=1;strokeColor=none;fillColor=none;align=center;verticalAlign=middle;whiteSpace=wrap;rounded=0;" parent="JXFavBmA1j79T9uxORN8-1" vertex="1">
          <mxGeometry x="360" y="999" width="40" height="20" as="geometry" />
        </mxCell>
        <mxCell id="JXFavBmA1j79T9uxORN8-56" value="elif" style="text;html=1;strokeColor=none;fillColor=none;align=center;verticalAlign=middle;whiteSpace=wrap;rounded=0;" parent="JXFavBmA1j79T9uxORN8-1" vertex="1">
          <mxGeometry x="550" y="1020" width="40" height="20" as="geometry" />
        </mxCell>
        <mxCell id="JXFavBmA1j79T9uxORN8-66" style="edgeStyle=orthogonalEdgeStyle;rounded=0;orthogonalLoop=1;jettySize=auto;html=1;exitX=0.5;exitY=1;exitDx=0;exitDy=0;" parent="JXFavBmA1j79T9uxORN8-1" source="JXFavBmA1j79T9uxORN8-57" edge="1">
          <mxGeometry relative="1" as="geometry">
            <mxPoint x="640" y="1220" as="targetPoint" />
          </mxGeometry>
        </mxCell>
        <mxCell id="JXFavBmA1j79T9uxORN8-57" value="foo.gdd = 0.0" style="rounded=1;whiteSpace=wrap;html=1;" parent="JXFavBmA1j79T9uxORN8-1" vertex="1">
          <mxGeometry x="287.5" y="1119" width="125" height="31" as="geometry" />
        </mxCell>
        <mxCell id="JXFavBmA1j79T9uxORN8-65" style="edgeStyle=orthogonalEdgeStyle;rounded=0;orthogonalLoop=1;jettySize=auto;html=1;exitX=0.5;exitY=1;exitDx=0;exitDy=0;entryX=0.5;entryY=0;entryDx=0;entryDy=0;" parent="JXFavBmA1j79T9uxORN8-1" source="JXFavBmA1j79T9uxORN8-59" target="JXFavBmA1j79T9uxORN8-64" edge="1">
          <mxGeometry relative="1" as="geometry" />
        </mxCell>
        <mxCell id="JXFavBmA1j79T9uxORN8-59" value="foo.gdd = foo_day.tmean - crop.tbase" style="rounded=1;whiteSpace=wrap;html=1;" parent="JXFavBmA1j79T9uxORN8-1" vertex="1">
          <mxGeometry x="533.75" y="1119" width="212.5" height="31" as="geometry" />
        </mxCell>
        <mxCell id="JXFavBmA1j79T9uxORN8-67" style="edgeStyle=orthogonalEdgeStyle;rounded=0;orthogonalLoop=1;jettySize=auto;html=1;exitX=0.5;exitY=1;exitDx=0;exitDy=0;" parent="JXFavBmA1j79T9uxORN8-1" source="JXFavBmA1j79T9uxORN8-61" edge="1">
          <mxGeometry relative="1" as="geometry">
            <mxPoint x="640" y="1220" as="targetPoint" />
          </mxGeometry>
        </mxCell>
        <mxCell id="JXFavBmA1j79T9uxORN8-61" value="foo.gdd = 0.0" style="rounded=1;whiteSpace=wrap;html=1;" parent="JXFavBmA1j79T9uxORN8-1" vertex="1">
          <mxGeometry x="814" y="1119" width="128.5" height="31" as="geometry" />
        </mxCell>
        <mxCell id="JXFavBmA1j79T9uxORN8-63" value="else" style="text;html=1;strokeColor=none;fillColor=none;align=center;verticalAlign=middle;whiteSpace=wrap;rounded=0;" parent="JXFavBmA1j79T9uxORN8-1" vertex="1">
          <mxGeometry x="820" y="1020" width="40" height="20" as="geometry" />
        </mxCell>
        <mxCell id="JXFavBmA1j79T9uxORN8-69" style="edgeStyle=orthogonalEdgeStyle;rounded=0;orthogonalLoop=1;jettySize=auto;html=1;exitX=0.5;exitY=1;exitDx=0;exitDy=0;entryX=0.5;entryY=0;entryDx=0;entryDy=0;" parent="JXFavBmA1j79T9uxORN8-1" source="JXFavBmA1j79T9uxORN8-64" target="JXFavBmA1j79T9uxORN8-68" edge="1">
          <mxGeometry relative="1" as="geometry" />
        </mxCell>
        <mxCell id="JXFavBmA1j79T9uxORN8-64" value="&lt;div&gt;foo.gdd -= foo.gdd_penalty&lt;/div&gt;&lt;div&gt;&lt;span&gt;foo.gdd = max(foo.gdd, 0.0)&lt;/span&gt;&lt;/div&gt;&lt;div&gt;foo.cgdd += foo.gdd - foo.cgdd_penalty&lt;/div&gt;&lt;div&gt;foo.cgdd = max(0.0, foo.cgdd)&lt;/div&gt;" style="rounded=1;whiteSpace=wrap;html=1;" parent="JXFavBmA1j79T9uxORN8-1" vertex="1">
          <mxGeometry x="533.75" y="1220" width="212.5" height="60" as="geometry" />
        </mxCell>
        <mxCell id="JXFavBmA1j79T9uxORN8-72" style="edgeStyle=orthogonalEdgeStyle;rounded=0;orthogonalLoop=1;jettySize=auto;html=1;exitX=0.5;exitY=1;exitDx=0;exitDy=0;" parent="JXFavBmA1j79T9uxORN8-1" source="JXFavBmA1j79T9uxORN8-68" target="JXFavBmA1j79T9uxORN8-70" edge="1">
          <mxGeometry relative="1" as="geometry" />
        </mxCell>
        <mxCell id="JXFavBmA1j79T9uxORN8-73" style="edgeStyle=orthogonalEdgeStyle;rounded=0;orthogonalLoop=1;jettySize=auto;html=1;exitX=0.5;exitY=1;exitDx=0;exitDy=0;" parent="JXFavBmA1j79T9uxORN8-1" source="JXFavBmA1j79T9uxORN8-68" target="JXFavBmA1j79T9uxORN8-71" edge="1">
          <mxGeometry relative="1" as="geometry" />
        </mxCell>
        <mxCell id="JXFavBmA1j79T9uxORN8-68" value="foo_day.tmin &amp;lt; -10" style="rhombus;whiteSpace=wrap;html=1;" parent="JXFavBmA1j79T9uxORN8-1" vertex="1">
          <mxGeometry x="540" y="1320" width="200" height="40" as="geometry" />
        </mxCell>
        <mxCell id="JXFavBmA1j79T9uxORN8-77" style="edgeStyle=orthogonalEdgeStyle;rounded=0;orthogonalLoop=1;jettySize=auto;html=1;exitX=0.5;exitY=1;exitDx=0;exitDy=0;entryX=0.5;entryY=0;entryDx=0;entryDy=0;" parent="JXFavBmA1j79T9uxORN8-1" source="JXFavBmA1j79T9uxORN8-70" target="JXFavBmA1j79T9uxORN8-76" edge="1">
          <mxGeometry relative="1" as="geometry" />
        </mxCell>
        <mxCell id="JXFavBmA1j79T9uxORN8-70" value="foo.gdd_penalty = 5.0" style="rounded=1;whiteSpace=wrap;html=1;" parent="JXFavBmA1j79T9uxORN8-1" vertex="1">
          <mxGeometry x="440" y="1420" width="150" height="31" as="geometry" />
        </mxCell>
        <mxCell id="JXFavBmA1j79T9uxORN8-78" style="edgeStyle=orthogonalEdgeStyle;rounded=0;orthogonalLoop=1;jettySize=auto;html=1;exitX=0.5;exitY=1;exitDx=0;exitDy=0;" parent="JXFavBmA1j79T9uxORN8-1" source="JXFavBmA1j79T9uxORN8-71" edge="1">
          <mxGeometry relative="1" as="geometry">
            <mxPoint x="640" y="1510" as="targetPoint" />
          </mxGeometry>
        </mxCell>
        <mxCell id="JXFavBmA1j79T9uxORN8-71" value="foo.gdd_penalty = 0.0" style="rounded=1;whiteSpace=wrap;html=1;" parent="JXFavBmA1j79T9uxORN8-1" vertex="1">
          <mxGeometry x="675" y="1420" width="150" height="31" as="geometry" />
        </mxCell>
        <mxCell id="JXFavBmA1j79T9uxORN8-74" value="Yes" style="text;html=1;strokeColor=none;fillColor=none;align=center;verticalAlign=middle;whiteSpace=wrap;rounded=0;" parent="JXFavBmA1j79T9uxORN8-1" vertex="1">
          <mxGeometry x="580" y="1370" width="40" height="20" as="geometry" />
        </mxCell>
        <mxCell id="JXFavBmA1j79T9uxORN8-75" value="No" style="text;html=1;strokeColor=none;fillColor=none;align=center;verticalAlign=middle;whiteSpace=wrap;rounded=0;" parent="JXFavBmA1j79T9uxORN8-1" vertex="1">
          <mxGeometry x="670" y="1370" width="40" height="20" as="geometry" />
        </mxCell>
        <mxCell id="JXFavBmA1j79T9uxORN8-83" style="edgeStyle=orthogonalEdgeStyle;rounded=0;orthogonalLoop=1;jettySize=auto;html=1;entryX=0.5;entryY=0;entryDx=0;entryDy=0;" parent="JXFavBmA1j79T9uxORN8-1" source="JXFavBmA1j79T9uxORN8-76" target="JXFavBmA1j79T9uxORN8-79" edge="1">
          <mxGeometry relative="1" as="geometry" />
        </mxCell>
        <mxCell id="JXFavBmA1j79T9uxORN8-84" style="edgeStyle=orthogonalEdgeStyle;rounded=0;orthogonalLoop=1;jettySize=auto;html=1;exitX=0.5;exitY=1;exitDx=0;exitDy=0;" parent="JXFavBmA1j79T9uxORN8-1" source="JXFavBmA1j79T9uxORN8-76" target="JXFavBmA1j79T9uxORN8-80" edge="1">
          <mxGeometry relative="1" as="geometry" />
        </mxCell>
        <mxCell id="JXFavBmA1j79T9uxORN8-76" value="foo_day.tmin &amp;lt; -25 and foo_day.snow_depth &amp;lt;= 0" style="rhombus;whiteSpace=wrap;html=1;" parent="JXFavBmA1j79T9uxORN8-1" vertex="1">
          <mxGeometry x="525" y="1510" width="230" height="70" as="geometry" />
        </mxCell>
        <mxCell id="JXFavBmA1j79T9uxORN8-79" value="foo.cgdd_penalty = foo.cgdd * 0.1" style="rounded=1;whiteSpace=wrap;html=1;" parent="JXFavBmA1j79T9uxORN8-1" vertex="1">
          <mxGeometry x="431" y="1650" width="189" height="31" as="geometry" />
        </mxCell>
        <mxCell id="JXFavBmA1j79T9uxORN8-80" value="foo.cgdd_penalty = 0.0" style="rounded=1;whiteSpace=wrap;html=1;" parent="JXFavBmA1j79T9uxORN8-1" vertex="1">
          <mxGeometry x="666" y="1650" width="150" height="31" as="geometry" />
        </mxCell>
        <mxCell id="JXFavBmA1j79T9uxORN8-81" value="Yes" style="text;html=1;strokeColor=none;fillColor=none;align=center;verticalAlign=middle;whiteSpace=wrap;rounded=0;" parent="JXFavBmA1j79T9uxORN8-1" vertex="1">
          <mxGeometry x="571" y="1595" width="40" height="20" as="geometry" />
        </mxCell>
        <mxCell id="JXFavBmA1j79T9uxORN8-82" value="No" style="text;html=1;strokeColor=none;fillColor=none;align=center;verticalAlign=middle;whiteSpace=wrap;rounded=0;" parent="JXFavBmA1j79T9uxORN8-1" vertex="1">
          <mxGeometry x="661" y="1595" width="40" height="20" as="geometry" />
        </mxCell>
        <mxCell id="JXFavBmA1j79T9uxORN8-88" style="edgeStyle=orthogonalEdgeStyle;rounded=0;orthogonalLoop=1;jettySize=auto;html=1;exitX=0.5;exitY=1;exitDx=0;exitDy=0;entryX=0.5;entryY=0;entryDx=0;entryDy=0;" parent="JXFavBmA1j79T9uxORN8-1" source="JXFavBmA1j79T9uxORN8-85" target="JXFavBmA1j79T9uxORN8-87" edge="1">
          <mxGeometry relative="1" as="geometry" />
        </mxCell>
        <mxCell id="JXFavBmA1j79T9uxORN8-109" style="edgeStyle=orthogonalEdgeStyle;rounded=0;orthogonalLoop=1;jettySize=auto;html=1;entryX=0;entryY=0.5;entryDx=0;entryDy=0;exitX=0;exitY=0.5;exitDx=0;exitDy=0;" parent="JXFavBmA1j79T9uxORN8-1" source="JXFavBmA1j79T9uxORN8-85" target="JXFavBmA1j79T9uxORN8-89" edge="1">
          <mxGeometry relative="1" as="geometry" />
        </mxCell>
        <mxCell id="JXFavBmA1j79T9uxORN8-85" value="foo_day.tmax &amp;gt; 30" style="rhombus;whiteSpace=wrap;html=1;" parent="JXFavBmA1j79T9uxORN8-1" vertex="1">
          <mxGeometry x="1070" y="1050" width="200" height="40" as="geometry" />
        </mxCell>
        <mxCell id="JXFavBmA1j79T9uxORN8-91" style="edgeStyle=orthogonalEdgeStyle;rounded=0;orthogonalLoop=1;jettySize=auto;html=1;entryX=0.5;entryY=0;entryDx=0;entryDy=0;" parent="JXFavBmA1j79T9uxORN8-1" source="JXFavBmA1j79T9uxORN8-87" target="JXFavBmA1j79T9uxORN8-89" edge="1">
          <mxGeometry relative="1" as="geometry" />
        </mxCell>
        <mxCell id="JXFavBmA1j79T9uxORN8-87" value="tmax_prev = 30" style="rounded=1;whiteSpace=wrap;html=1;" parent="JXFavBmA1j79T9uxORN8-1" vertex="1">
          <mxGeometry x="1097.5" y="1130" width="145" height="30" as="geometry" />
        </mxCell>
        <mxCell id="JXFavBmA1j79T9uxORN8-92" style="edgeStyle=orthogonalEdgeStyle;rounded=0;orthogonalLoop=1;jettySize=auto;html=1;exitX=0.5;exitY=1;exitDx=0;exitDy=0;entryX=0.5;entryY=0;entryDx=0;entryDy=0;" parent="JXFavBmA1j79T9uxORN8-1" source="JXFavBmA1j79T9uxORN8-89" target="JXFavBmA1j79T9uxORN8-90" edge="1">
          <mxGeometry relative="1" as="geometry" />
        </mxCell>
        <mxCell id="JXFavBmA1j79T9uxORN8-110" style="edgeStyle=orthogonalEdgeStyle;rounded=0;orthogonalLoop=1;jettySize=auto;html=1;exitX=1;exitY=0.5;exitDx=0;exitDy=0;entryX=1;entryY=0.5;entryDx=0;entryDy=0;" parent="JXFavBmA1j79T9uxORN8-1" source="JXFavBmA1j79T9uxORN8-89" target="JXFavBmA1j79T9uxORN8-94" edge="1">
          <mxGeometry relative="1" as="geometry" />
        </mxCell>
        <mxCell id="JXFavBmA1j79T9uxORN8-89" value="foo_day.tmin &amp;gt; 30" style="rhombus;whiteSpace=wrap;html=1;" parent="JXFavBmA1j79T9uxORN8-1" vertex="1">
          <mxGeometry x="1070" y="1220" width="200" height="40" as="geometry" />
        </mxCell>
        <mxCell id="JXFavBmA1j79T9uxORN8-99" style="edgeStyle=orthogonalEdgeStyle;rounded=0;orthogonalLoop=1;jettySize=auto;html=1;exitX=0.5;exitY=1;exitDx=0;exitDy=0;entryX=0.5;entryY=0;entryDx=0;entryDy=0;" parent="JXFavBmA1j79T9uxORN8-1" source="JXFavBmA1j79T9uxORN8-90" target="JXFavBmA1j79T9uxORN8-94" edge="1">
          <mxGeometry relative="1" as="geometry" />
        </mxCell>
        <mxCell id="JXFavBmA1j79T9uxORN8-90" value="tmin_prev = 30" style="rounded=1;whiteSpace=wrap;html=1;" parent="JXFavBmA1j79T9uxORN8-1" vertex="1">
          <mxGeometry x="1097.5" y="1300" width="145" height="30" as="geometry" />
        </mxCell>
        <mxCell id="JXFavBmA1j79T9uxORN8-93" style="edgeStyle=orthogonalEdgeStyle;rounded=0;orthogonalLoop=1;jettySize=auto;html=1;exitX=0.5;exitY=1;exitDx=0;exitDy=0;entryX=0.5;entryY=0;entryDx=0;entryDy=0;" parent="JXFavBmA1j79T9uxORN8-1" source="JXFavBmA1j79T9uxORN8-94" target="JXFavBmA1j79T9uxORN8-95" edge="1">
          <mxGeometry relative="1" as="geometry" />
        </mxCell>
        <mxCell id="JXFavBmA1j79T9uxORN8-111" style="edgeStyle=orthogonalEdgeStyle;rounded=0;orthogonalLoop=1;jettySize=auto;html=1;exitX=0;exitY=0.5;exitDx=0;exitDy=0;entryX=0;entryY=0.5;entryDx=0;entryDy=0;" parent="JXFavBmA1j79T9uxORN8-1" source="JXFavBmA1j79T9uxORN8-94" target="JXFavBmA1j79T9uxORN8-97" edge="1">
          <mxGeometry relative="1" as="geometry" />
        </mxCell>
        <mxCell id="JXFavBmA1j79T9uxORN8-94" value="foo_day.tmax &amp;lt; -crop.tbase" style="rhombus;whiteSpace=wrap;html=1;" parent="JXFavBmA1j79T9uxORN8-1" vertex="1">
          <mxGeometry x="1070" y="1370" width="200" height="40" as="geometry" />
        </mxCell>
        <mxCell id="JXFavBmA1j79T9uxORN8-100" style="edgeStyle=orthogonalEdgeStyle;rounded=0;orthogonalLoop=1;jettySize=auto;html=1;exitX=0.5;exitY=1;exitDx=0;exitDy=0;entryX=0.5;entryY=0;entryDx=0;entryDy=0;" parent="JXFavBmA1j79T9uxORN8-1" source="JXFavBmA1j79T9uxORN8-95" target="JXFavBmA1j79T9uxORN8-97" edge="1">
          <mxGeometry relative="1" as="geometry" />
        </mxCell>
        <mxCell id="JXFavBmA1j79T9uxORN8-95" value="tmax_prev = -crop.tbase" style="rounded=1;whiteSpace=wrap;html=1;" parent="JXFavBmA1j79T9uxORN8-1" vertex="1">
          <mxGeometry x="1097.5" y="1450" width="145" height="30" as="geometry" />
        </mxCell>
        <mxCell id="JXFavBmA1j79T9uxORN8-96" style="edgeStyle=orthogonalEdgeStyle;rounded=0;orthogonalLoop=1;jettySize=auto;html=1;exitX=0.5;exitY=1;exitDx=0;exitDy=0;entryX=0.5;entryY=0;entryDx=0;entryDy=0;" parent="JXFavBmA1j79T9uxORN8-1" source="JXFavBmA1j79T9uxORN8-97" target="JXFavBmA1j79T9uxORN8-98" edge="1">
          <mxGeometry relative="1" as="geometry" />
        </mxCell>
        <mxCell id="JXFavBmA1j79T9uxORN8-112" style="edgeStyle=orthogonalEdgeStyle;rounded=0;orthogonalLoop=1;jettySize=auto;html=1;exitX=1;exitY=0.5;exitDx=0;exitDy=0;entryX=1;entryY=0.5;entryDx=0;entryDy=0;" parent="JXFavBmA1j79T9uxORN8-1" source="JXFavBmA1j79T9uxORN8-97" target="JXFavBmA1j79T9uxORN8-101" edge="1">
          <mxGeometry relative="1" as="geometry" />
        </mxCell>
        <mxCell id="JXFavBmA1j79T9uxORN8-97" value="foo_day.tmin &amp;lt; -crop.tbase" style="rhombus;whiteSpace=wrap;html=1;" parent="JXFavBmA1j79T9uxORN8-1" vertex="1">
          <mxGeometry x="1070" y="1540" width="200" height="40" as="geometry" />
        </mxCell>
        <mxCell id="JXFavBmA1j79T9uxORN8-102" style="edgeStyle=orthogonalEdgeStyle;rounded=0;orthogonalLoop=1;jettySize=auto;html=1;entryX=0.5;entryY=0;entryDx=0;entryDy=0;" parent="JXFavBmA1j79T9uxORN8-1" source="JXFavBmA1j79T9uxORN8-98" target="JXFavBmA1j79T9uxORN8-101" edge="1">
          <mxGeometry relative="1" as="geometry" />
        </mxCell>
        <mxCell id="JXFavBmA1j79T9uxORN8-98" value="tmin_prev = -crop.tbase" style="rounded=1;whiteSpace=wrap;html=1;" parent="JXFavBmA1j79T9uxORN8-1" vertex="1">
          <mxGeometry x="1097.5" y="1620" width="145" height="30" as="geometry" />
        </mxCell>
        <mxCell id="JXFavBmA1j79T9uxORN8-101" value="tmean_prev = 0.5 * (tmax_prev + tmin_prev)&lt;br&gt;foo.cgdd += tmean_prev + crop.tbase" style="rounded=1;whiteSpace=wrap;html=1;" parent="JXFavBmA1j79T9uxORN8-1" vertex="1">
          <mxGeometry x="1043.75" y="1690" width="252.5" height="40" as="geometry" />
        </mxCell>
        <mxCell id="JXFavBmA1j79T9uxORN8-103" value="initialize cgdd, start of cycle" style="text;html=1;strokeColor=none;fillColor=none;align=center;verticalAlign=middle;whiteSpace=wrap;rounded=0;" parent="JXFavBmA1j79T9uxORN8-1" vertex="1">
          <mxGeometry x="651" y="560" width="180" height="20" as="geometry" />
        </mxCell>
        <mxCell id="JXFavBmA1j79T9uxORN8-104" value="winter crop don&#39;t grow when temperature is low" style="text;html=1;strokeColor=none;fillColor=none;align=center;verticalAlign=middle;whiteSpace=wrap;rounded=0;" parent="JXFavBmA1j79T9uxORN8-1" vertex="1">
          <mxGeometry x="370" y="1090" width="150" height="20" as="geometry" />
        </mxCell>
        <mxCell id="JXFavBmA1j79T9uxORN8-105" value="grow only when tmean is higher than tbase" style="text;html=1;strokeColor=none;fillColor=none;align=center;verticalAlign=middle;whiteSpace=wrap;rounded=0;" parent="JXFavBmA1j79T9uxORN8-1" vertex="1">
          <mxGeometry x="651" y="1090" width="150" height="20" as="geometry" />
        </mxCell>
        <mxCell id="JXFavBmA1j79T9uxORN8-106" value="if tmin is too low, it is harmful for the crop,&lt;br&gt;so there will be a penalty&lt;br&gt;penalty will be used for next period" style="text;html=1;strokeColor=none;fillColor=none;align=center;verticalAlign=middle;whiteSpace=wrap;rounded=0;" parent="JXFavBmA1j79T9uxORN8-1" vertex="1">
          <mxGeometry x="320" y="1380" width="190" height="20" as="geometry" />
        </mxCell>
        <mxCell id="JXFavBmA1j79T9uxORN8-107" value="if tmin lower than -25, penalty is accumulative" style="text;html=1;strokeColor=none;fillColor=none;align=center;verticalAlign=middle;whiteSpace=wrap;rounded=0;" parent="JXFavBmA1j79T9uxORN8-1" vertex="1">
          <mxGeometry x="375" y="1625" width="150" height="20" as="geometry" />
        </mxCell>
        <mxCell id="JXFavBmA1j79T9uxORN8-108" value="This case (tbase&amp;lt;0) is used only for corn.&lt;br&gt;Actually, tbase for corn is 10, here use negative to show us that it is corn" style="text;html=1;strokeColor=none;fillColor=none;align=center;verticalAlign=middle;whiteSpace=wrap;rounded=0;" parent="JXFavBmA1j79T9uxORN8-1" vertex="1">
          <mxGeometry x="1170" y="930" width="240" height="20" as="geometry" />
        </mxCell>
        <mxCell id="JXFavBmA1j79T9uxORN8-113" value="normal case, very easy" style="text;html=1;strokeColor=none;fillColor=none;align=center;verticalAlign=middle;whiteSpace=wrap;rounded=0;" parent="JXFavBmA1j79T9uxORN8-1" vertex="1">
          <mxGeometry x="1410" y="939" width="140" height="20" as="geometry" />
        </mxCell>
        <mxCell id="JXFavBmA1j79T9uxORN8-114" value="the upper temperature limit is 30&amp;nbsp;" style="text;html=1;strokeColor=none;fillColor=none;align=center;verticalAlign=middle;whiteSpace=wrap;rounded=0;" parent="JXFavBmA1j79T9uxORN8-1" vertex="1">
          <mxGeometry x="1190" y="1099" width="210" height="20" as="geometry" />
        </mxCell>
        <mxCell id="76Q7WDDWTC53ziqNvJG3-6" style="edgeStyle=orthogonalEdgeStyle;rounded=0;orthogonalLoop=1;jettySize=auto;html=1;exitX=0.5;exitY=1;exitDx=0;exitDy=0;" parent="JXFavBmA1j79T9uxORN8-1" source="76Q7WDDWTC53ziqNvJG3-0" target="76Q7WDDWTC53ziqNvJG3-5" edge="1">
          <mxGeometry relative="1" as="geometry" />
        </mxCell>
        <mxCell id="76Q7WDDWTC53ziqNvJG3-0" value="&lt;div&gt;&amp;nbsp; &amp;nbsp; &amp;nbsp; &amp;nbsp; for idx in range(29):&amp;nbsp; # idx = 1 is 30 days ago&lt;/div&gt;&lt;div&gt;&amp;nbsp; &amp;nbsp; &amp;nbsp; &amp;nbsp; &amp;nbsp; &amp;nbsp; foo_day.etref_array[idx] = foo_day.etref_array[idx + 1]&lt;/div&gt;" style="rounded=1;whiteSpace=wrap;html=1;" parent="JXFavBmA1j79T9uxORN8-1" vertex="1">
          <mxGeometry x="101.25" y="310" width="192.5" height="60" as="geometry" />
        </mxCell>
        <mxCell id="76Q7WDDWTC53ziqNvJG3-3" value="Only 30 days, so shift to make space for today&#39;s value" style="text;html=1;strokeColor=none;fillColor=none;align=center;verticalAlign=middle;whiteSpace=wrap;rounded=0;" parent="JXFavBmA1j79T9uxORN8-1" vertex="1">
          <mxGeometry x="207.5" y="270" width="162.5" height="20" as="geometry" />
        </mxCell>
        <mxCell id="76Q7WDDWTC53ziqNvJG3-9" style="edgeStyle=orthogonalEdgeStyle;rounded=0;orthogonalLoop=1;jettySize=auto;html=1;entryX=0.5;entryY=0;entryDx=0;entryDy=0;" parent="JXFavBmA1j79T9uxORN8-1" source="76Q7WDDWTC53ziqNvJG3-5" target="76Q7WDDWTC53ziqNvJG3-8" edge="1">
          <mxGeometry relative="1" as="geometry" />
        </mxCell>
        <mxCell id="76Q7WDDWTC53ziqNvJG3-5" value="foo_day.etref_array[29] = foo_day.etref" style="rounded=1;whiteSpace=wrap;html=1;" parent="JXFavBmA1j79T9uxORN8-1" vertex="1">
          <mxGeometry x="89.38" y="430" width="216.25" height="30" as="geometry" />
        </mxCell>
        <mxCell id="76Q7WDDWTC53ziqNvJG3-7" value="Then fill today&#39;s value" style="text;html=1;strokeColor=none;fillColor=none;align=center;verticalAlign=middle;whiteSpace=wrap;rounded=0;" parent="JXFavBmA1j79T9uxORN8-1" vertex="1">
          <mxGeometry x="187.5" y="390" width="162.5" height="20" as="geometry" />
        </mxCell>
        <mxCell id="76Q7WDDWTC53ziqNvJG3-8" value="foo.etref_30 = foo.etref_30 + (foo_day.etref - etref_lost) / 30." style="rounded=1;whiteSpace=wrap;html=1;" parent="JXFavBmA1j79T9uxORN8-1" vertex="1">
          <mxGeometry x="89.38" y="500" width="216.25" height="30" as="geometry" />
        </mxCell>
        <mxCell id="76Q7WDDWTC53ziqNvJG3-10" value="update th3 30-days&#39; mean etref" style="text;html=1;strokeColor=none;fillColor=none;align=center;verticalAlign=middle;whiteSpace=wrap;rounded=0;" parent="JXFavBmA1j79T9uxORN8-1" vertex="1">
          <mxGeometry x="208.75" y="470" width="120" height="20" as="geometry" />
        </mxCell>
      </root>
    </mxGraphModel>
  </diagram>
  <diagram id="CYX3GkzMLJ9exP6LwPVj" name="calculate_height">
    <mxGraphModel dx="700" dy="748" grid="1" gridSize="10" guides="1" tooltips="1" connect="1" arrows="1" fold="1" page="1" pageScale="1" pageWidth="827" pageHeight="1169" math="0" shadow="0">
      <root>
        <mxCell id="iSmUxsLsn8Hf8GXMy_-_-0" />
        <mxCell id="iSmUxsLsn8Hf8GXMy_-_-1" parent="iSmUxsLsn8Hf8GXMy_-_-0" />
        <mxCell id="iSmUxsLsn8Hf8GXMy_-_-7" style="edgeStyle=orthogonalEdgeStyle;rounded=0;orthogonalLoop=1;jettySize=auto;html=1;exitX=0.5;exitY=1;exitDx=0;exitDy=0;entryX=0.5;entryY=0;entryDx=0;entryDy=0;" edge="1" parent="iSmUxsLsn8Hf8GXMy_-_-1" source="iSmUxsLsn8Hf8GXMy_-_-2" target="iSmUxsLsn8Hf8GXMy_-_-6">
          <mxGeometry relative="1" as="geometry" />
        </mxCell>
        <mxCell id="iSmUxsLsn8Hf8GXMy_-_-10" style="edgeStyle=orthogonalEdgeStyle;rounded=0;orthogonalLoop=1;jettySize=auto;html=1;exitX=1;exitY=0.5;exitDx=0;exitDy=0;entryX=0.5;entryY=0;entryDx=0;entryDy=0;" edge="1" parent="iSmUxsLsn8Hf8GXMy_-_-1" source="iSmUxsLsn8Hf8GXMy_-_-2" target="iSmUxsLsn8Hf8GXMy_-_-9">
          <mxGeometry relative="1" as="geometry" />
        </mxCell>
        <mxCell id="iSmUxsLsn8Hf8GXMy_-_-2" value="foo.kc_bas &amp;gt; foo.kc_min &lt;br&gt;and foo.kc_bas_mid &amp;gt; foo.kc_min" style="rhombus;whiteSpace=wrap;html=1;" vertex="1" parent="iSmUxsLsn8Hf8GXMy_-_-1">
          <mxGeometry x="116.25" y="190" width="307.5" height="50" as="geometry" />
        </mxCell>
        <mxCell id="iSmUxsLsn8Hf8GXMy_-_-5" style="edgeStyle=orthogonalEdgeStyle;rounded=0;orthogonalLoop=1;jettySize=auto;html=1;exitX=0.5;exitY=1;exitDx=0;exitDy=0;entryX=0.5;entryY=0;entryDx=0;entryDy=0;" edge="1" parent="iSmUxsLsn8Hf8GXMy_-_-1" source="iSmUxsLsn8Hf8GXMy_-_-3" target="iSmUxsLsn8Hf8GXMy_-_-2">
          <mxGeometry relative="1" as="geometry" />
        </mxCell>
        <mxCell id="iSmUxsLsn8Hf8GXMy_-_-3" value="height_prev = foo.height" style="rounded=1;whiteSpace=wrap;html=1;" vertex="1" parent="iSmUxsLsn8Hf8GXMy_-_-1">
          <mxGeometry x="180" y="90" width="180" height="30" as="geometry" />
        </mxCell>
        <mxCell id="iSmUxsLsn8Hf8GXMy_-_-4" value="Initial height is assigned at first for every crop" style="text;html=1;strokeColor=none;fillColor=none;align=center;verticalAlign=middle;whiteSpace=wrap;rounded=0;" vertex="1" parent="iSmUxsLsn8Hf8GXMy_-_-1">
          <mxGeometry x="190" y="50" width="160" height="20" as="geometry" />
        </mxCell>
        <mxCell id="iSmUxsLsn8Hf8GXMy_-_-13" style="edgeStyle=orthogonalEdgeStyle;rounded=0;orthogonalLoop=1;jettySize=auto;html=1;exitX=0.5;exitY=1;exitDx=0;exitDy=0;entryX=0.5;entryY=0;entryDx=0;entryDy=0;" edge="1" parent="iSmUxsLsn8Hf8GXMy_-_-1" source="iSmUxsLsn8Hf8GXMy_-_-6" target="iSmUxsLsn8Hf8GXMy_-_-15">
          <mxGeometry relative="1" as="geometry">
            <mxPoint x="270" y="490" as="targetPoint" />
          </mxGeometry>
        </mxCell>
        <mxCell id="iSmUxsLsn8Hf8GXMy_-_-6" value="&lt;div&gt;foo.height = (crop.height_initial + (foo.kc_bas - foo.kc_min) / (foo.kc_bas_mid - foo.kc_min) *&amp;nbsp;&lt;span&gt;&amp;nbsp;(crop.height_max - crop.height_initial))&lt;/span&gt;&lt;/div&gt;" style="rounded=1;whiteSpace=wrap;html=1;" vertex="1" parent="iSmUxsLsn8Hf8GXMy_-_-1">
          <mxGeometry x="135" y="340" width="270" height="70" as="geometry" />
        </mxCell>
        <mxCell id="iSmUxsLsn8Hf8GXMy_-_-8" value="Yes" style="text;html=1;strokeColor=none;fillColor=none;align=center;verticalAlign=middle;whiteSpace=wrap;rounded=0;" vertex="1" parent="iSmUxsLsn8Hf8GXMy_-_-1">
          <mxGeometry x="220" y="280" width="40" height="20" as="geometry" />
        </mxCell>
        <mxCell id="iSmUxsLsn8Hf8GXMy_-_-14" style="edgeStyle=orthogonalEdgeStyle;rounded=0;orthogonalLoop=1;jettySize=auto;html=1;exitX=0.5;exitY=1;exitDx=0;exitDy=0;entryX=1;entryY=0.5;entryDx=0;entryDy=0;" edge="1" parent="iSmUxsLsn8Hf8GXMy_-_-1" source="iSmUxsLsn8Hf8GXMy_-_-9" target="iSmUxsLsn8Hf8GXMy_-_-15">
          <mxGeometry relative="1" as="geometry">
            <mxPoint x="560" y="490" as="targetPoint" />
          </mxGeometry>
        </mxCell>
        <mxCell id="iSmUxsLsn8Hf8GXMy_-_-9" value="foo.height = crop.height_initial" style="rounded=1;whiteSpace=wrap;html=1;" vertex="1" parent="iSmUxsLsn8Hf8GXMy_-_-1">
          <mxGeometry x="470" y="350" width="180" height="30" as="geometry" />
        </mxCell>
        <mxCell id="iSmUxsLsn8Hf8GXMy_-_-12" value="No" style="text;html=1;strokeColor=none;fillColor=none;align=center;verticalAlign=middle;whiteSpace=wrap;rounded=0;" vertex="1" parent="iSmUxsLsn8Hf8GXMy_-_-1">
          <mxGeometry x="490" y="280" width="40" height="20" as="geometry" />
        </mxCell>
        <mxCell id="iSmUxsLsn8Hf8GXMy_-_-15" value="foo.height = min(max(crop.height_initial, max(height_prev, foo.height)), crop.height_max)" style="rounded=1;whiteSpace=wrap;html=1;" vertex="1" parent="iSmUxsLsn8Hf8GXMy_-_-1">
          <mxGeometry x="135" y="480" width="270" height="70" as="geometry" />
        </mxCell>
        <mxCell id="iSmUxsLsn8Hf8GXMy_-_-16" value="&quot;No&quot; means just starting" style="text;html=1;strokeColor=none;fillColor=none;align=center;verticalAlign=middle;whiteSpace=wrap;rounded=0;" vertex="1" parent="iSmUxsLsn8Hf8GXMy_-_-1">
          <mxGeometry x="560" y="310" width="170" height="20" as="geometry" />
        </mxCell>
        <mxCell id="iSmUxsLsn8Hf8GXMy_-_-17" value="The algorithm is an interpolation method&amp;nbsp;" style="text;html=1;strokeColor=none;fillColor=none;align=center;verticalAlign=middle;whiteSpace=wrap;rounded=0;" vertex="1" parent="iSmUxsLsn8Hf8GXMy_-_-1">
          <mxGeometry x="280" y="310" width="170" height="20" as="geometry" />
        </mxCell>
      </root>
    </mxGraphModel>
  </diagram>
  <diagram id="I_ernosQ-iE9NIZ7g9BU" name="Kcb-flow-chart">
    <mxGraphModel dx="609" dy="699" grid="1" gridSize="10" guides="1" tooltips="1" connect="1" arrows="1" fold="1" page="1" pageScale="1" pageWidth="827" pageHeight="1169" math="0" shadow="0">
      <root>
        <mxCell id="CRhrbVuDPds4Fwr4ml6l-0" />
        <mxCell id="CRhrbVuDPds4Fwr4ml6l-1" parent="CRhrbVuDPds4Fwr4ml6l-0" />
        <mxCell id="Q7dz3opvj2f4eOv9DPb3-1" style="edgeStyle=orthogonalEdgeStyle;rounded=0;orthogonalLoop=1;jettySize=auto;html=1;entryX=0.5;entryY=0;entryDx=0;entryDy=0;" parent="CRhrbVuDPds4Fwr4ml6l-1" source="kXipCHoh3o5lCeBJFwdu-0" target="kXipCHoh3o5lCeBJFwdu-5" edge="1">
          <mxGeometry relative="1" as="geometry" />
        </mxCell>
        <mxCell id="kXipCHoh3o5lCeBJFwdu-0" value="data.gs_limit_flag" style="rhombus;whiteSpace=wrap;html=1;" parent="CRhrbVuDPds4Fwr4ml6l-1" vertex="1">
          <mxGeometry x="272.5" y="140" width="150" height="50" as="geometry" />
        </mxCell>
        <mxCell id="kXipCHoh3o5lCeBJFwdu-1" value="data:CropETData container&lt;br&gt;gs: growing season" style="text;html=1;strokeColor=none;fillColor=none;align=center;verticalAlign=middle;whiteSpace=wrap;rounded=0;" parent="CRhrbVuDPds4Fwr4ml6l-1" vertex="1">
          <mxGeometry x="430" y="155" width="150" height="20" as="geometry" />
        </mxCell>
        <mxCell id="kXipCHoh3o5lCeBJFwdu-4" style="edgeStyle=orthogonalEdgeStyle;rounded=0;orthogonalLoop=1;jettySize=auto;html=1;entryX=0.5;entryY=0;entryDx=0;entryDy=0;" parent="CRhrbVuDPds4Fwr4ml6l-1" source="kXipCHoh3o5lCeBJFwdu-3" target="kXipCHoh3o5lCeBJFwdu-0" edge="1">
          <mxGeometry relative="1" as="geometry" />
        </mxCell>
        <mxCell id="kXipCHoh3o5lCeBJFwdu-3" value="Start" style="rounded=1;whiteSpace=wrap;html=1;" parent="CRhrbVuDPds4Fwr4ml6l-1" vertex="1">
          <mxGeometry x="305" y="40" width="85" height="40" as="geometry" />
        </mxCell>
        <mxCell id="kXipCHoh3o5lCeBJFwdu-5" value="gs_limit = 40" style="rounded=0;whiteSpace=wrap;html=1;" parent="CRhrbVuDPds4Fwr4ml6l-1" vertex="1">
          <mxGeometry x="400" y="240" width="90" height="40" as="geometry" />
        </mxCell>
        <mxCell id="Q7dz3opvj2f4eOv9DPb3-0" value="Yes" style="text;html=1;strokeColor=none;fillColor=none;align=center;verticalAlign=middle;whiteSpace=wrap;rounded=0;" parent="CRhrbVuDPds4Fwr4ml6l-1" vertex="1">
          <mxGeometry x="380" y="190" width="40" height="20" as="geometry" />
        </mxCell>
        <mxCell id="Q7dz3opvj2f4eOv9DPb3-3" value="gs_limit = 365" style="rounded=0;whiteSpace=wrap;html=1;" parent="CRhrbVuDPds4Fwr4ml6l-1" vertex="1">
          <mxGeometry x="260" y="240" width="90" height="40" as="geometry" />
        </mxCell>
        <mxCell id="Q7dz3opvj2f4eOv9DPb3-4" style="edgeStyle=orthogonalEdgeStyle;rounded=0;orthogonalLoop=1;jettySize=auto;html=1;entryX=0.5;entryY=0;entryDx=0;entryDy=0;exitX=0.5;exitY=1;exitDx=0;exitDy=0;" parent="CRhrbVuDPds4Fwr4ml6l-1" source="kXipCHoh3o5lCeBJFwdu-0" target="Q7dz3opvj2f4eOv9DPb3-3" edge="1">
          <mxGeometry relative="1" as="geometry">
            <mxPoint x="357.5" y="200" as="sourcePoint" />
            <mxPoint x="455" y="250" as="targetPoint" />
          </mxGeometry>
        </mxCell>
        <mxCell id="Q7dz3opvj2f4eOv9DPb3-5" value="Yes" style="text;html=1;strokeColor=none;fillColor=none;align=center;verticalAlign=middle;whiteSpace=wrap;rounded=0;" parent="CRhrbVuDPds4Fwr4ml6l-1" vertex="1">
          <mxGeometry x="285" y="190" width="40" height="20" as="geometry" />
        </mxCell>
        <mxCell id="Q7dz3opvj2f4eOv9DPb3-8" style="edgeStyle=orthogonalEdgeStyle;rounded=0;orthogonalLoop=1;jettySize=auto;html=1;exitX=0.5;exitY=1;exitDx=0;exitDy=0;entryX=0.5;entryY=0;entryDx=0;entryDy=0;" parent="CRhrbVuDPds4Fwr4ml6l-1" source="Q7dz3opvj2f4eOv9DPb3-3" target="Q7dz3opvj2f4eOv9DPb3-12" edge="1">
          <mxGeometry relative="1" as="geometry">
            <mxPoint x="377.5" y="370" as="sourcePoint" />
            <mxPoint x="370" y="360" as="targetPoint" />
          </mxGeometry>
        </mxCell>
        <mxCell id="Q7dz3opvj2f4eOv9DPb3-10" style="edgeStyle=orthogonalEdgeStyle;rounded=0;orthogonalLoop=1;jettySize=auto;html=1;exitX=0.5;exitY=1;exitDx=0;exitDy=0;entryX=0.5;entryY=0;entryDx=0;entryDy=0;" parent="CRhrbVuDPds4Fwr4ml6l-1" source="kXipCHoh3o5lCeBJFwdu-5" target="Q7dz3opvj2f4eOv9DPb3-12" edge="1">
          <mxGeometry relative="1" as="geometry">
            <mxPoint x="315" y="290" as="sourcePoint" />
            <mxPoint x="370" y="360" as="targetPoint" />
          </mxGeometry>
        </mxCell>
        <mxCell id="Q7dz3opvj2f4eOv9DPb3-12" value="crop.flag_for_means_to_estimate_pl_or_gu" style="rhombus;whiteSpace=wrap;html=1;" parent="CRhrbVuDPds4Fwr4ml6l-1" vertex="1">
          <mxGeometry x="200" y="380" width="350" height="50" as="geometry" />
        </mxCell>
        <mxCell id="Q7dz3opvj2f4eOv9DPb3-15" style="edgeStyle=orthogonalEdgeStyle;rounded=0;orthogonalLoop=1;jettySize=auto;html=1;exitX=0.5;exitY=1;exitDx=0;exitDy=0;entryX=0.5;entryY=0;entryDx=0;entryDy=0;" parent="CRhrbVuDPds4Fwr4ml6l-1" source="Q7dz3opvj2f4eOv9DPb3-12" target="Q7dz3opvj2f4eOv9DPb3-31" edge="1">
          <mxGeometry relative="1" as="geometry">
            <mxPoint x="315" y="290" as="sourcePoint" />
            <mxPoint x="165" y="530" as="targetPoint" />
          </mxGeometry>
        </mxCell>
        <mxCell id="Q7dz3opvj2f4eOv9DPb3-16" value="1:CGDD" style="text;html=1;strokeColor=none;fillColor=none;align=center;verticalAlign=middle;whiteSpace=wrap;rounded=0;" parent="CRhrbVuDPds4Fwr4ml6l-1" vertex="1">
          <mxGeometry x="245" y="500" width="40" height="20" as="geometry" />
        </mxCell>
        <mxCell id="Q7dz3opvj2f4eOv9DPb3-18" style="edgeStyle=orthogonalEdgeStyle;rounded=0;orthogonalLoop=1;jettySize=auto;html=1;exitX=0.5;exitY=1;exitDx=0;exitDy=0;entryX=0;entryY=0.5;entryDx=0;entryDy=0;" parent="CRhrbVuDPds4Fwr4ml6l-1" source="Q7dz3opvj2f4eOv9DPb3-12" target="bdmsMYAKaE6dXH0Tw1gz-0" edge="1">
          <mxGeometry relative="1" as="geometry">
            <mxPoint x="550" y="520" as="sourcePoint" />
            <mxPoint x="850.5" y="450" as="targetPoint" />
          </mxGeometry>
        </mxCell>
        <mxCell id="Q7dz3opvj2f4eOv9DPb3-19" value="2:T30" style="text;html=1;strokeColor=none;fillColor=none;align=center;verticalAlign=middle;whiteSpace=wrap;rounded=0;" parent="CRhrbVuDPds4Fwr4ml6l-1" vertex="1">
          <mxGeometry x="850" y="490" width="40" height="20" as="geometry" />
        </mxCell>
        <mxCell id="uxG9XuIDkPyieKWziKzy-39" style="edgeStyle=orthogonalEdgeStyle;rounded=0;orthogonalLoop=1;jettySize=auto;html=1;entryX=0;entryY=0.5;entryDx=0;entryDy=0;exitX=0.5;exitY=1;exitDx=0;exitDy=0;" parent="CRhrbVuDPds4Fwr4ml6l-1" source="bdmsMYAKaE6dXH0Tw1gz-0" target="uxG9XuIDkPyieKWziKzy-37" edge="1">
          <mxGeometry relative="1" as="geometry">
            <mxPoint x="900" y="740" as="targetPoint" />
            <mxPoint x="895.5" y="470" as="sourcePoint" />
          </mxGeometry>
        </mxCell>
        <mxCell id="uxG9XuIDkPyieKWziKzy-40" style="edgeStyle=orthogonalEdgeStyle;rounded=0;orthogonalLoop=1;jettySize=auto;html=1;entryX=0.5;entryY=0;entryDx=0;entryDy=0;" parent="CRhrbVuDPds4Fwr4ml6l-1" source="Q7dz3opvj2f4eOv9DPb3-23" target="h2uMA3ctCdztWpDhM_Fx-21" edge="1">
          <mxGeometry relative="1" as="geometry" />
        </mxCell>
        <mxCell id="Q7dz3opvj2f4eOv9DPb3-23" value="month_of_pl_or_gu = int(crop.date_of_pl_or_gu)" style="rounded=0;whiteSpace=wrap;html=1;" parent="CRhrbVuDPds4Fwr4ml6l-1" vertex="1">
          <mxGeometry x="950" y="535" width="154" height="40" as="geometry" />
        </mxCell>
        <mxCell id="Q7dz3opvj2f4eOv9DPb3-24" style="edgeStyle=orthogonalEdgeStyle;rounded=0;orthogonalLoop=1;jettySize=auto;html=1;exitX=0.5;exitY=1;exitDx=0;exitDy=0;" parent="CRhrbVuDPds4Fwr4ml6l-1" source="Q7dz3opvj2f4eOv9DPb3-12" target="Q7dz3opvj2f4eOv9DPb3-23" edge="1">
          <mxGeometry relative="1" as="geometry">
            <mxPoint x="385" y="440" as="sourcePoint" />
            <mxPoint x="325" y="540" as="targetPoint" />
          </mxGeometry>
        </mxCell>
        <mxCell id="Q7dz3opvj2f4eOv9DPb3-25" value="3:date" style="text;html=1;strokeColor=none;fillColor=none;align=center;verticalAlign=middle;whiteSpace=wrap;rounded=0;" parent="CRhrbVuDPds4Fwr4ml6l-1" vertex="1">
          <mxGeometry x="981.5" y="490" width="40" height="20" as="geometry" />
        </mxCell>
        <mxCell id="uxG9XuIDkPyieKWziKzy-41" style="edgeStyle=orthogonalEdgeStyle;rounded=0;orthogonalLoop=1;jettySize=auto;html=1;entryX=1;entryY=0.5;entryDx=0;entryDy=0;exitX=0.5;exitY=1;exitDx=0;exitDy=0;" parent="CRhrbVuDPds4Fwr4ml6l-1" source="Q7dz3opvj2f4eOv9DPb3-26" target="uxG9XuIDkPyieKWziKzy-37" edge="1">
          <mxGeometry relative="1" as="geometry" />
        </mxCell>
        <mxCell id="Q7dz3opvj2f4eOv9DPb3-26" value="foo.in_season = True&lt;br&gt;&lt;div&gt;&amp;nbsp; &amp;nbsp; &amp;nbsp; &amp;nbsp; if foo_day.doy == crop.gdd_trigger_doy:&lt;/div&gt;&lt;div&gt;&amp;nbsp; &amp;nbsp; &amp;nbsp; &amp;nbsp; &amp;nbsp; &amp;nbsp; foo.stress_event = False&lt;/div&gt;&lt;div&gt;&amp;nbsp; &amp;nbsp; &amp;nbsp; &amp;nbsp; foo.dormant_setup_flag = True&lt;/div&gt;" style="rounded=0;whiteSpace=wrap;html=1;" parent="CRhrbVuDPds4Fwr4ml6l-1" vertex="1">
          <mxGeometry x="1605.56" y="600" width="240" height="75" as="geometry" />
        </mxCell>
        <mxCell id="Q7dz3opvj2f4eOv9DPb3-27" style="edgeStyle=orthogonalEdgeStyle;rounded=0;orthogonalLoop=1;jettySize=auto;html=1;exitX=0.5;exitY=1;exitDx=0;exitDy=0;entryX=0.5;entryY=0;entryDx=0;entryDy=0;" parent="CRhrbVuDPds4Fwr4ml6l-1" source="Q7dz3opvj2f4eOv9DPb3-12" target="Q7dz3opvj2f4eOv9DPb3-26" edge="1">
          <mxGeometry relative="1" as="geometry">
            <mxPoint x="385" y="440" as="sourcePoint" />
            <mxPoint x="495" y="540" as="targetPoint" />
          </mxGeometry>
        </mxCell>
        <mxCell id="Q7dz3opvj2f4eOv9DPb3-28" value="4: on all th time" style="text;html=1;strokeColor=none;fillColor=none;align=center;verticalAlign=middle;whiteSpace=wrap;rounded=0;" parent="CRhrbVuDPds4Fwr4ml6l-1" vertex="1">
          <mxGeometry x="1131" y="490" width="100" height="20" as="geometry" />
        </mxCell>
        <mxCell id="Q7dz3opvj2f4eOv9DPb3-29" value="crop:item in crop_params&lt;br&gt;pl_or_gu: planting or greenup&lt;br&gt;&lt;br&gt;different ways are all used to estimate beginning and end of growing seasons" style="text;html=1;strokeColor=none;fillColor=none;align=center;verticalAlign=middle;whiteSpace=wrap;rounded=0;" parent="CRhrbVuDPds4Fwr4ml6l-1" vertex="1">
          <mxGeometry x="7" y="414" width="210" height="20" as="geometry" />
        </mxCell>
        <mxCell id="Q7dz3opvj2f4eOv9DPb3-33" style="edgeStyle=orthogonalEdgeStyle;rounded=0;orthogonalLoop=1;jettySize=auto;html=1;entryX=0.5;entryY=0;entryDx=0;entryDy=0;" parent="CRhrbVuDPds4Fwr4ml6l-1" source="Q7dz3opvj2f4eOv9DPb3-31" target="Q7dz3opvj2f4eOv9DPb3-36" edge="1">
          <mxGeometry relative="1" as="geometry">
            <mxPoint x="300" y="630" as="targetPoint" />
          </mxGeometry>
        </mxCell>
        <mxCell id="uxG9XuIDkPyieKWziKzy-6" style="edgeStyle=orthogonalEdgeStyle;rounded=0;orthogonalLoop=1;jettySize=auto;html=1;" parent="CRhrbVuDPds4Fwr4ml6l-1" source="Q7dz3opvj2f4eOv9DPb3-36" target="uxG9XuIDkPyieKWziKzy-5" edge="1">
          <mxGeometry relative="1" as="geometry" />
        </mxCell>
        <mxCell id="Q7dz3opvj2f4eOv9DPb3-31" value="foo_day.doy &amp;lt; (crop.gdd_trigger_doy + 195)" style="rhombus;whiteSpace=wrap;html=1;" parent="CRhrbVuDPds4Fwr4ml6l-1" vertex="1">
          <mxGeometry x="160" y="535" width="280" height="50" as="geometry" />
        </mxCell>
        <mxCell id="Q7dz3opvj2f4eOv9DPb3-32" value="foo_day: Daily crop data container&lt;br&gt;gdd_trigger_doy: 1 or 274(winter crop)" style="text;html=1;strokeColor=none;fillColor=none;align=center;verticalAlign=middle;whiteSpace=wrap;rounded=0;" parent="CRhrbVuDPds4Fwr4ml6l-1" vertex="1">
          <mxGeometry x="10" y="520" width="210" height="20" as="geometry" />
        </mxCell>
        <mxCell id="Q7dz3opvj2f4eOv9DPb3-34" value="the day with day of 196 is July 15" style="text;html=1;strokeColor=none;fillColor=none;align=center;verticalAlign=middle;whiteSpace=wrap;rounded=0;" parent="CRhrbVuDPds4Fwr4ml6l-1" vertex="1">
          <mxGeometry x="90" y="600" width="210" height="20" as="geometry" />
        </mxCell>
        <mxCell id="uxG9XuIDkPyieKWziKzy-31" style="edgeStyle=orthogonalEdgeStyle;rounded=0;orthogonalLoop=1;jettySize=auto;html=1;entryX=0;entryY=0.5;entryDx=0;entryDy=0;" parent="CRhrbVuDPds4Fwr4ml6l-1" source="Q7dz3opvj2f4eOv9DPb3-35" target="uxG9XuIDkPyieKWziKzy-5" edge="1">
          <mxGeometry relative="1" as="geometry">
            <Array as="points">
              <mxPoint x="450" y="800" />
              <mxPoint x="450" y="700" />
            </Array>
          </mxGeometry>
        </mxCell>
        <mxCell id="Q7dz3opvj2f4eOv9DPb3-35" value="&lt;div&gt;foo.doy_start_cycle = foo_day.doy&lt;span&gt;&amp;nbsp; foo.real_start = True&lt;/span&gt;&lt;/div&gt;" style="rounded=0;whiteSpace=wrap;html=1;" parent="CRhrbVuDPds4Fwr4ml6l-1" vertex="1">
          <mxGeometry x="205" y="780" width="190" height="40" as="geometry" />
        </mxCell>
        <mxCell id="uxG9XuIDkPyieKWziKzy-4" style="edgeStyle=orthogonalEdgeStyle;rounded=0;orthogonalLoop=1;jettySize=auto;html=1;entryX=0.5;entryY=0;entryDx=0;entryDy=0;" parent="CRhrbVuDPds4Fwr4ml6l-1" source="Q7dz3opvj2f4eOv9DPb3-36" target="Q7dz3opvj2f4eOv9DPb3-35" edge="1">
          <mxGeometry relative="1" as="geometry" />
        </mxCell>
        <mxCell id="Q7dz3opvj2f4eOv9DPb3-36" value="&lt;div&gt;foo.longterm_pl &amp;gt; 0 and&lt;/div&gt;&lt;div&gt;&amp;nbsp; &amp;nbsp; &amp;nbsp; &amp;nbsp;foo_day.doy &amp;gt; (foo.longterm_pl + 40) and&lt;/div&gt;&lt;div&gt;&amp;nbsp; &amp;nbsp; &amp;nbsp; &amp;nbsp; not foo.real_start&lt;/div&gt;" style="rhombus;whiteSpace=wrap;html=1;" parent="CRhrbVuDPds4Fwr4ml6l-1" vertex="1">
          <mxGeometry x="160" y="660" width="280" height="80" as="geometry" />
        </mxCell>
        <mxCell id="uxG9XuIDkPyieKWziKzy-0" value="et_cell.climate[t30_col] is a long-term mean t30 for every doy;&lt;br&gt;crop.t30_for_pl_or_gu_or_cgdd is the general values for T30 of each crop,&lt;br&gt;&lt;div&gt;longterm_pl means the long-term mean planting date, should be positive&lt;/div&gt;" style="text;html=1;strokeColor=none;fillColor=none;align=center;verticalAlign=middle;whiteSpace=wrap;rounded=0;" parent="CRhrbVuDPds4Fwr4ml6l-1" vertex="1">
          <mxGeometry y="760" width="180" height="50" as="geometry" />
        </mxCell>
        <mxCell id="uxG9XuIDkPyieKWziKzy-2" value="foo.real_start means growing season has started" style="text;html=1;strokeColor=none;fillColor=none;align=center;verticalAlign=middle;whiteSpace=wrap;rounded=0;" parent="CRhrbVuDPds4Fwr4ml6l-1" vertex="1">
          <mxGeometry x="340" y="740" width="90" height="20" as="geometry" />
        </mxCell>
        <mxCell id="uxG9XuIDkPyieKWziKzy-14" style="edgeStyle=orthogonalEdgeStyle;rounded=0;orthogonalLoop=1;jettySize=auto;html=1;entryX=0.5;entryY=0;entryDx=0;entryDy=0;" parent="CRhrbVuDPds4Fwr4ml6l-1" source="uxG9XuIDkPyieKWziKzy-5" target="uxG9XuIDkPyieKWziKzy-12" edge="1">
          <mxGeometry relative="1" as="geometry" />
        </mxCell>
        <mxCell id="uxG9XuIDkPyieKWziKzy-5" value="&lt;div&gt;not foo.real_start and&amp;nbsp;&lt;span&gt;foo.cgdd &amp;gt; crop.t30_for_pl_or_gu_or_cgdd&lt;/span&gt;&lt;/div&gt;" style="rhombus;whiteSpace=wrap;html=1;" parent="CRhrbVuDPds4Fwr4ml6l-1" vertex="1">
          <mxGeometry x="475" y="660" width="280" height="80" as="geometry" />
        </mxCell>
        <mxCell id="uxG9XuIDkPyieKWziKzy-7" value="if doy is the day of 40 days later than long-term planting, we should set it start asap" style="text;html=1;strokeColor=none;fillColor=none;align=center;verticalAlign=middle;whiteSpace=wrap;rounded=0;" parent="CRhrbVuDPds4Fwr4ml6l-1" vertex="1">
          <mxGeometry x="324" y="620" width="90" height="20" as="geometry" />
        </mxCell>
        <mxCell id="uxG9XuIDkPyieKWziKzy-33" style="edgeStyle=orthogonalEdgeStyle;rounded=0;orthogonalLoop=1;jettySize=auto;html=1;entryX=0.5;entryY=0;entryDx=0;entryDy=0;" parent="CRhrbVuDPds4Fwr4ml6l-1" source="uxG9XuIDkPyieKWziKzy-10" target="uxG9XuIDkPyieKWziKzy-21" edge="1">
          <mxGeometry relative="1" as="geometry" />
        </mxCell>
        <mxCell id="uxG9XuIDkPyieKWziKzy-10" value="foo.real_start = False&lt;br&gt;foo.doy_start_cycle = foo.longterm_pl - 40&lt;br&gt;&lt;span&gt;if foo.doy_start_cycle &amp;lt; 1:&lt;/span&gt;&lt;span&gt;&amp;nbsp; &amp;nbsp; &amp;nbsp; &amp;nbsp; &amp;nbsp; &amp;nbsp; &amp;nbsp; &amp;nbsp; &amp;nbsp; &amp;nbsp; &amp;nbsp; &amp;nbsp; foo.doy_start_cycle += 365&lt;/span&gt;&lt;span&gt;&lt;br&gt;&lt;/span&gt;" style="rounded=0;whiteSpace=wrap;html=1;" parent="CRhrbVuDPds4Fwr4ml6l-1" vertex="1">
          <mxGeometry x="272.5" y="940" width="190" height="80" as="geometry" />
        </mxCell>
        <mxCell id="uxG9XuIDkPyieKWziKzy-13" value="" style="edgeStyle=orthogonalEdgeStyle;rounded=0;orthogonalLoop=1;jettySize=auto;html=1;exitX=0.5;exitY=1;exitDx=0;exitDy=0;" parent="CRhrbVuDPds4Fwr4ml6l-1" source="uxG9XuIDkPyieKWziKzy-12" target="uxG9XuIDkPyieKWziKzy-10" edge="1">
          <mxGeometry relative="1" as="geometry" />
        </mxCell>
        <mxCell id="uxG9XuIDkPyieKWziKzy-19" style="edgeStyle=orthogonalEdgeStyle;rounded=0;orthogonalLoop=1;jettySize=auto;html=1;entryX=0.5;entryY=0;entryDx=0;entryDy=0;" parent="CRhrbVuDPds4Fwr4ml6l-1" source="uxG9XuIDkPyieKWziKzy-12" target="uxG9XuIDkPyieKWziKzy-18" edge="1">
          <mxGeometry relative="1" as="geometry" />
        </mxCell>
        <mxCell id="uxG9XuIDkPyieKWziKzy-12" value="foo.longterm_pl &amp;gt; 0 and foo_day.doy &amp;lt; (foo.longterm_pl - 40)" style="rhombus;whiteSpace=wrap;html=1;" parent="CRhrbVuDPds4Fwr4ml6l-1" vertex="1">
          <mxGeometry x="475" y="790" width="280" height="40" as="geometry" />
        </mxCell>
        <mxCell id="uxG9XuIDkPyieKWziKzy-15" value="day &amp;lt; long-term planting date - 40, too early" style="text;html=1;strokeColor=none;fillColor=none;align=center;verticalAlign=middle;whiteSpace=wrap;rounded=0;" parent="CRhrbVuDPds4Fwr4ml6l-1" vertex="1">
          <mxGeometry x="395" y="900" width="90" height="20" as="geometry" />
        </mxCell>
        <mxCell id="uxG9XuIDkPyieKWziKzy-17" value="YES" style="text;html=1;strokeColor=none;fillColor=none;align=center;verticalAlign=middle;whiteSpace=wrap;rounded=0;" parent="CRhrbVuDPds4Fwr4ml6l-1" vertex="1">
          <mxGeometry x="475" y="860" width="90" height="20" as="geometry" />
        </mxCell>
        <mxCell id="uxG9XuIDkPyieKWziKzy-34" style="edgeStyle=orthogonalEdgeStyle;rounded=0;orthogonalLoop=1;jettySize=auto;html=1;entryX=0.5;entryY=0;entryDx=0;entryDy=0;" parent="CRhrbVuDPds4Fwr4ml6l-1" source="uxG9XuIDkPyieKWziKzy-18" target="uxG9XuIDkPyieKWziKzy-21" edge="1">
          <mxGeometry relative="1" as="geometry">
            <mxPoint x="780" y="910" as="targetPoint" />
          </mxGeometry>
        </mxCell>
        <mxCell id="uxG9XuIDkPyieKWziKzy-18" value="&lt;span&gt;&lt;div&gt;foo.doy_start_cycle = foo_day.doy&lt;/div&gt;&lt;div&gt;&amp;nbsp; &amp;nbsp;foo.real_start = True&lt;/div&gt;&lt;/span&gt;" style="rounded=0;whiteSpace=wrap;html=1;" parent="CRhrbVuDPds4Fwr4ml6l-1" vertex="1">
          <mxGeometry x="670" y="940" width="190" height="40" as="geometry" />
        </mxCell>
        <mxCell id="uxG9XuIDkPyieKWziKzy-20" value="NO" style="text;html=1;strokeColor=none;fillColor=none;align=center;verticalAlign=middle;whiteSpace=wrap;rounded=0;" parent="CRhrbVuDPds4Fwr4ml6l-1" vertex="1">
          <mxGeometry x="650" y="860" width="90" height="20" as="geometry" />
        </mxCell>
        <mxCell id="uxG9XuIDkPyieKWziKzy-24" style="edgeStyle=orthogonalEdgeStyle;rounded=0;orthogonalLoop=1;jettySize=auto;html=1;entryX=0.5;entryY=0;entryDx=0;entryDy=0;" parent="CRhrbVuDPds4Fwr4ml6l-1" source="uxG9XuIDkPyieKWziKzy-21" target="uxG9XuIDkPyieKWziKzy-23" edge="1">
          <mxGeometry relative="1" as="geometry" />
        </mxCell>
        <mxCell id="uxG9XuIDkPyieKWziKzy-46" style="edgeStyle=orthogonalEdgeStyle;rounded=0;orthogonalLoop=1;jettySize=auto;html=1;entryX=0;entryY=0.5;entryDx=0;entryDy=0;" parent="CRhrbVuDPds4Fwr4ml6l-1" source="uxG9XuIDkPyieKWziKzy-21" target="uxG9XuIDkPyieKWziKzy-37" edge="1">
          <mxGeometry relative="1" as="geometry">
            <Array as="points">
              <mxPoint x="920" y="1140" />
              <mxPoint x="920" y="726" />
            </Array>
          </mxGeometry>
        </mxCell>
        <mxCell id="uxG9XuIDkPyieKWziKzy-21" value="foo_day.doy == foo.doy_start_cycle" style="rhombus;whiteSpace=wrap;html=1;" parent="CRhrbVuDPds4Fwr4ml6l-1" vertex="1">
          <mxGeometry x="430" y="1100" width="280" height="80" as="geometry" />
        </mxCell>
        <mxCell id="uxG9XuIDkPyieKWziKzy-22" value="season start has been found" style="text;html=1;strokeColor=none;fillColor=none;align=center;verticalAlign=middle;whiteSpace=wrap;rounded=0;" parent="CRhrbVuDPds4Fwr4ml6l-1" vertex="1">
          <mxGeometry x="465" y="1180" width="90" height="20" as="geometry" />
        </mxCell>
        <mxCell id="uxG9XuIDkPyieKWziKzy-27" style="edgeStyle=orthogonalEdgeStyle;rounded=0;orthogonalLoop=1;jettySize=auto;html=1;" parent="CRhrbVuDPds4Fwr4ml6l-1" source="uxG9XuIDkPyieKWziKzy-23" target="uxG9XuIDkPyieKWziKzy-26" edge="1">
          <mxGeometry relative="1" as="geometry" />
        </mxCell>
        <mxCell id="uxG9XuIDkPyieKWziKzy-23" value="&lt;span&gt;&lt;div&gt;foo.real_start = True&lt;/div&gt;&lt;div&gt;foo.in_season = True&lt;/div&gt;&lt;div&gt;&amp;nbsp; &amp;nbsp; &amp;nbsp;foo.stress_event = False&lt;/div&gt;&lt;div&gt;&amp;nbsp; &amp;nbsp;foo.dormant_setup_flag = True&lt;/div&gt;&lt;/span&gt;" style="rounded=0;whiteSpace=wrap;html=1;" parent="CRhrbVuDPds4Fwr4ml6l-1" vertex="1">
          <mxGeometry x="475" y="1260" width="190" height="70" as="geometry" />
        </mxCell>
        <mxCell id="uxG9XuIDkPyieKWziKzy-25" value="turn parameters on" style="text;html=1;strokeColor=none;fillColor=none;align=center;verticalAlign=middle;whiteSpace=wrap;rounded=0;" parent="CRhrbVuDPds4Fwr4ml6l-1" vertex="1">
          <mxGeometry x="475" y="1230" width="90" height="20" as="geometry" />
        </mxCell>
        <mxCell id="uxG9XuIDkPyieKWziKzy-29" style="edgeStyle=orthogonalEdgeStyle;rounded=0;orthogonalLoop=1;jettySize=auto;html=1;entryX=0.5;entryY=0;entryDx=0;entryDy=0;" parent="CRhrbVuDPds4Fwr4ml6l-1" source="uxG9XuIDkPyieKWziKzy-26" target="uxG9XuIDkPyieKWziKzy-28" edge="1">
          <mxGeometry relative="1" as="geometry" />
        </mxCell>
        <mxCell id="uxG9XuIDkPyieKWziKzy-26" value="&lt;span&gt;setup_crop():Initialize some variables for beginning of crop seasons&lt;br&gt;&lt;/span&gt;" style="rounded=0;whiteSpace=wrap;html=1;" parent="CRhrbVuDPds4Fwr4ml6l-1" vertex="1">
          <mxGeometry x="475" y="1370" width="190" height="70" as="geometry" />
        </mxCell>
        <mxCell id="uxG9XuIDkPyieKWziKzy-38" style="edgeStyle=orthogonalEdgeStyle;rounded=0;orthogonalLoop=1;jettySize=auto;html=1;entryX=0;entryY=0.5;entryDx=0;entryDy=0;" parent="CRhrbVuDPds4Fwr4ml6l-1" source="uxG9XuIDkPyieKWziKzy-28" target="uxG9XuIDkPyieKWziKzy-37" edge="1">
          <mxGeometry relative="1" as="geometry" />
        </mxCell>
        <mxCell id="uxG9XuIDkPyieKWziKzy-28" value="&lt;span&gt;foo.cycle = 1&lt;br&gt;&lt;/span&gt;&lt;span&gt;if crop.date_of_pl_or_gu &amp;lt; 0.0:&lt;br&gt;&lt;/span&gt;&lt;span&gt;foo.doy_start_cycle += int(crop.date_of_pl_or_gu)&lt;/span&gt;&lt;span&gt;&lt;br&gt;&lt;/span&gt;&lt;span&gt;&lt;div&gt;&lt;span&gt;if foo.doy_start_cycle &amp;lt; 1:&lt;/span&gt;&lt;/div&gt;&lt;div&gt;&amp;nbsp; &amp;nbsp; &amp;nbsp; &amp;nbsp; &amp;nbsp;foo.doy_start_cycle = foo.doy_start_cycle + 365&lt;/div&gt;&lt;/span&gt;" style="rounded=0;whiteSpace=wrap;html=1;" parent="CRhrbVuDPds4Fwr4ml6l-1" vertex="1">
          <mxGeometry x="475" y="1479" width="190" height="121" as="geometry" />
        </mxCell>
        <mxCell id="uxG9XuIDkPyieKWziKzy-45" value="" style="edgeStyle=orthogonalEdgeStyle;rounded=0;orthogonalLoop=1;jettySize=auto;html=1;" parent="CRhrbVuDPds4Fwr4ml6l-1" source="uxG9XuIDkPyieKWziKzy-37" target="uxG9XuIDkPyieKWziKzy-44" edge="1">
          <mxGeometry relative="1" as="geometry" />
        </mxCell>
        <mxCell id="uxG9XuIDkPyieKWziKzy-37" value="foo.mad = foo.mad_mid" style="rounded=0;whiteSpace=wrap;html=1;" parent="CRhrbVuDPds4Fwr4ml6l-1" vertex="1">
          <mxGeometry x="1170" y="712.5" width="240" height="27.5" as="geometry" />
        </mxCell>
        <mxCell id="uxG9XuIDkPyieKWziKzy-48" style="edgeStyle=orthogonalEdgeStyle;rounded=0;orthogonalLoop=1;jettySize=auto;html=1;entryX=0.5;entryY=0;entryDx=0;entryDy=0;" parent="CRhrbVuDPds4Fwr4ml6l-1" source="uxG9XuIDkPyieKWziKzy-44" target="uxG9XuIDkPyieKWziKzy-49" edge="1">
          <mxGeometry relative="1" as="geometry">
            <mxPoint x="1290" y="890" as="targetPoint" />
          </mxGeometry>
        </mxCell>
        <mxCell id="uxG9XuIDkPyieKWziKzy-44" value="foo.in_season" style="rhombus;whiteSpace=wrap;html=1;rounded=0;" parent="CRhrbVuDPds4Fwr4ml6l-1" vertex="1">
          <mxGeometry x="1250" y="793.75" width="80" height="56.25" as="geometry" />
        </mxCell>
        <mxCell id="lsFIPsL1j69JxvouzDIO-5" style="edgeStyle=orthogonalEdgeStyle;rounded=0;orthogonalLoop=1;jettySize=auto;html=1;" parent="CRhrbVuDPds4Fwr4ml6l-1" source="uxG9XuIDkPyieKWziKzy-47" target="lsFIPsL1j69JxvouzDIO-2" edge="1">
          <mxGeometry relative="1" as="geometry" />
        </mxCell>
        <mxCell id="uxG9XuIDkPyieKWziKzy-47" value="foo.cgdd_at_planting = foo.cgdd" style="rounded=0;whiteSpace=wrap;html=1;" parent="CRhrbVuDPds4Fwr4ml6l-1" vertex="1">
          <mxGeometry x="1055" y="1100" width="140" height="40" as="geometry" />
        </mxCell>
        <mxCell id="uxG9XuIDkPyieKWziKzy-55" style="edgeStyle=orthogonalEdgeStyle;rounded=0;orthogonalLoop=1;jettySize=auto;html=1;entryX=0.5;entryY=0;entryDx=0;entryDy=0;" parent="CRhrbVuDPds4Fwr4ml6l-1" source="uxG9XuIDkPyieKWziKzy-49" target="lsFIPsL1j69JxvouzDIO-0" edge="1">
          <mxGeometry relative="1" as="geometry" />
        </mxCell>
        <mxCell id="uxG9XuIDkPyieKWziKzy-60" style="edgeStyle=orthogonalEdgeStyle;rounded=0;orthogonalLoop=1;jettySize=auto;html=1;entryX=0.5;entryY=0;entryDx=0;entryDy=0;exitX=1;exitY=0.5;exitDx=0;exitDy=0;" parent="CRhrbVuDPds4Fwr4ml6l-1" source="uxG9XuIDkPyieKWziKzy-49" target="uxG9XuIDkPyieKWziKzy-56" edge="1">
          <mxGeometry relative="1" as="geometry">
            <mxPoint x="1500" y="950" as="sourcePoint" />
          </mxGeometry>
        </mxCell>
        <mxCell id="uxG9XuIDkPyieKWziKzy-61" style="edgeStyle=orthogonalEdgeStyle;rounded=0;orthogonalLoop=1;jettySize=auto;html=1;exitX=1;exitY=0.5;exitDx=0;exitDy=0;entryX=0.5;entryY=0;entryDx=0;entryDy=0;" parent="CRhrbVuDPds4Fwr4ml6l-1" source="uxG9XuIDkPyieKWziKzy-49" target="lsFIPsL1j69JxvouzDIO-56" edge="1">
          <mxGeometry relative="1" as="geometry">
            <mxPoint x="2105" y="1010" as="targetPoint" />
          </mxGeometry>
        </mxCell>
        <mxCell id="uxG9XuIDkPyieKWziKzy-63" style="edgeStyle=orthogonalEdgeStyle;rounded=0;orthogonalLoop=1;jettySize=auto;html=1;exitX=1;exitY=0.5;exitDx=0;exitDy=0;entryX=0.5;entryY=0;entryDx=0;entryDy=0;" parent="CRhrbVuDPds4Fwr4ml6l-1" source="uxG9XuIDkPyieKWziKzy-49" target="lsFIPsL1j69JxvouzDIO-65" edge="1">
          <mxGeometry relative="1" as="geometry">
            <mxPoint x="2526" y="1010" as="targetPoint" />
          </mxGeometry>
        </mxCell>
        <mxCell id="uxG9XuIDkPyieKWziKzy-49" value="crop.curve_type" style="rhombus;whiteSpace=wrap;html=1;rounded=0;" parent="CRhrbVuDPds4Fwr4ml6l-1" vertex="1">
          <mxGeometry x="1240" y="883.75" width="100" height="56.25" as="geometry" />
        </mxCell>
        <mxCell id="uxG9XuIDkPyieKWziKzy-51" value="1 = NcumGDD" style="text;html=1;strokeColor=none;fillColor=none;align=center;verticalAlign=middle;whiteSpace=wrap;rounded=0;" parent="CRhrbVuDPds4Fwr4ml6l-1" vertex="1">
          <mxGeometry x="1031" y="950" width="100" height="20" as="geometry" />
        </mxCell>
        <mxCell id="uxG9XuIDkPyieKWziKzy-52" value="2 = %PL-EC:&lt;br&gt;planting to effective full cover" style="text;html=1;strokeColor=none;fillColor=none;align=center;verticalAlign=middle;whiteSpace=wrap;rounded=0;" parent="CRhrbVuDPds4Fwr4ml6l-1" vertex="1">
          <mxGeometry x="1430" y="960" width="100" height="20" as="geometry" />
        </mxCell>
        <mxCell id="uxG9XuIDkPyieKWziKzy-53" value="3 = %PL-EC, daysafter" style="text;html=1;strokeColor=none;fillColor=none;align=center;verticalAlign=middle;whiteSpace=wrap;rounded=0;" parent="CRhrbVuDPds4Fwr4ml6l-1" vertex="1">
          <mxGeometry x="2010" y="970" width="100" height="20" as="geometry" />
        </mxCell>
        <mxCell id="uxG9XuIDkPyieKWziKzy-54" value="4 = %PL-Term" style="text;html=1;strokeColor=none;fillColor=none;align=center;verticalAlign=middle;whiteSpace=wrap;rounded=0;" parent="CRhrbVuDPds4Fwr4ml6l-1" vertex="1">
          <mxGeometry x="2350" y="970" width="100" height="20" as="geometry" />
        </mxCell>
        <mxCell id="lsFIPsL1j69JxvouzDIO-46" style="edgeStyle=orthogonalEdgeStyle;rounded=0;orthogonalLoop=1;jettySize=auto;html=1;exitX=0.5;exitY=1;exitDx=0;exitDy=0;entryX=0.5;entryY=0;entryDx=0;entryDy=0;" parent="CRhrbVuDPds4Fwr4ml6l-1" source="uxG9XuIDkPyieKWziKzy-56" target="lsFIPsL1j69JxvouzDIO-23" edge="1">
          <mxGeometry relative="1" as="geometry" />
        </mxCell>
        <mxCell id="uxG9XuIDkPyieKWziKzy-56" value="days_into_season = foo_day.doy - foo.doy_start_cycle + 1" style="rounded=0;whiteSpace=wrap;html=1;" parent="CRhrbVuDPds4Fwr4ml6l-1" vertex="1">
          <mxGeometry x="1470" y="1010" width="130" height="60" as="geometry" />
        </mxCell>
        <mxCell id="lsFIPsL1j69JxvouzDIO-1" style="edgeStyle=orthogonalEdgeStyle;rounded=0;orthogonalLoop=1;jettySize=auto;html=1;exitX=0.5;exitY=1;exitDx=0;exitDy=0;" parent="CRhrbVuDPds4Fwr4ml6l-1" source="lsFIPsL1j69JxvouzDIO-0" target="uxG9XuIDkPyieKWziKzy-47" edge="1">
          <mxGeometry relative="1" as="geometry" />
        </mxCell>
        <mxCell id="lsFIPsL1j69JxvouzDIO-0" value="foo.doy_start_cycle == foo_day.doy" style="rhombus;whiteSpace=wrap;html=1;" parent="CRhrbVuDPds4Fwr4ml6l-1" vertex="1">
          <mxGeometry x="1040" y="990" width="170" height="60" as="geometry" />
        </mxCell>
        <mxCell id="lsFIPsL1j69JxvouzDIO-6" style="edgeStyle=orthogonalEdgeStyle;rounded=0;orthogonalLoop=1;jettySize=auto;html=1;entryX=0.5;entryY=0;entryDx=0;entryDy=0;" parent="CRhrbVuDPds4Fwr4ml6l-1" source="lsFIPsL1j69JxvouzDIO-2" target="lsFIPsL1j69JxvouzDIO-7" edge="1">
          <mxGeometry relative="1" as="geometry">
            <mxPoint x="1125" y="1300" as="targetPoint" />
          </mxGeometry>
        </mxCell>
        <mxCell id="lsFIPsL1j69JxvouzDIO-2" value="&lt;div&gt;cgdd_in_season = max(0, foo.cgdd - foo.cgdd_at_planting)&lt;/div&gt;&lt;div&gt;&amp;nbsp; &amp;nbsp; &amp;nbsp; &amp;nbsp; &amp;nbsp; &amp;nbsp; cgdd_efc = crop.cgdd_for_efc&lt;/div&gt;&lt;div&gt;&amp;nbsp; &amp;nbsp; &amp;nbsp; &amp;nbsp; &amp;nbsp; &amp;nbsp; cgdd_term = crop.cgdd_for_termination&lt;/div&gt;" style="rounded=0;whiteSpace=wrap;html=1;" parent="CRhrbVuDPds4Fwr4ml6l-1" vertex="1">
          <mxGeometry x="957" y="1200" width="336" height="40" as="geometry" />
        </mxCell>
        <mxCell id="lsFIPsL1j69JxvouzDIO-3" value="if today is start" style="text;html=1;strokeColor=none;fillColor=none;align=center;verticalAlign=middle;whiteSpace=wrap;rounded=0;" parent="CRhrbVuDPds4Fwr4ml6l-1" vertex="1">
          <mxGeometry x="1014" y="1040" width="100" height="20" as="geometry" />
        </mxCell>
        <mxCell id="lsFIPsL1j69JxvouzDIO-4" value="cgdd_efc(effective full cover)/cgdd_term(ternination) should be the denominator of NCGDD" style="text;html=1;strokeColor=none;fillColor=none;align=center;verticalAlign=middle;whiteSpace=wrap;rounded=0;" parent="CRhrbVuDPds4Fwr4ml6l-1" vertex="1">
          <mxGeometry x="967" y="1160" width="134" height="20" as="geometry" />
        </mxCell>
        <mxCell id="lsFIPsL1j69JxvouzDIO-9" style="edgeStyle=orthogonalEdgeStyle;rounded=0;orthogonalLoop=1;jettySize=auto;html=1;entryX=0.5;entryY=0;entryDx=0;entryDy=0;" parent="CRhrbVuDPds4Fwr4ml6l-1" source="lsFIPsL1j69JxvouzDIO-7" target="lsFIPsL1j69JxvouzDIO-10" edge="1">
          <mxGeometry relative="1" as="geometry">
            <mxPoint x="1125" y="1390" as="targetPoint" />
          </mxGeometry>
        </mxCell>
        <mxCell id="lsFIPsL1j69JxvouzDIO-13" style="edgeStyle=orthogonalEdgeStyle;rounded=0;orthogonalLoop=1;jettySize=auto;html=1;entryX=1;entryY=0.5;entryDx=0;entryDy=0;" parent="CRhrbVuDPds4Fwr4ml6l-1" source="lsFIPsL1j69JxvouzDIO-7" target="lsFIPsL1j69JxvouzDIO-12" edge="1">
          <mxGeometry relative="1" as="geometry">
            <mxPoint x="1220" y="1580" as="targetPoint" />
            <Array as="points">
              <mxPoint x="1270" y="1288" />
              <mxPoint x="1270" y="1620" />
            </Array>
          </mxGeometry>
        </mxCell>
        <mxCell id="lsFIPsL1j69JxvouzDIO-7" value="ALFALFA hay" style="rhombus;whiteSpace=wrap;html=1;" parent="CRhrbVuDPds4Fwr4ml6l-1" vertex="1">
          <mxGeometry x="1040" y="1265" width="170" height="45" as="geometry" />
        </mxCell>
        <mxCell id="lsFIPsL1j69JxvouzDIO-8" value="ALFALFA hay is a&amp;nbsp;perennial plant" style="text;html=1;strokeColor=none;fillColor=none;align=center;verticalAlign=middle;whiteSpace=wrap;rounded=0;" parent="CRhrbVuDPds4Fwr4ml6l-1" vertex="1">
          <mxGeometry x="992" y="1310" width="134" height="20" as="geometry" />
        </mxCell>
        <mxCell id="lsFIPsL1j69JxvouzDIO-21" style="edgeStyle=orthogonalEdgeStyle;rounded=0;orthogonalLoop=1;jettySize=auto;html=1;exitX=0.5;exitY=1;exitDx=0;exitDy=0;entryX=0.5;entryY=0;entryDx=0;entryDy=0;" parent="CRhrbVuDPds4Fwr4ml6l-1" source="lsFIPsL1j69JxvouzDIO-10" target="lsFIPsL1j69JxvouzDIO-20" edge="1">
          <mxGeometry relative="1" as="geometry" />
        </mxCell>
        <mxCell id="lsFIPsL1j69JxvouzDIO-10" value="foo.cycle &amp;gt; 1" style="rhombus;whiteSpace=wrap;html=1;" parent="CRhrbVuDPds4Fwr4ml6l-1" vertex="1">
          <mxGeometry x="1040" y="1340" width="170" height="40" as="geometry" />
        </mxCell>
        <mxCell id="lsFIPsL1j69JxvouzDIO-11" value="foo.cycle should be the life cycle number of the alfalfa&#39;s whole life&amp;nbsp;" style="text;html=1;strokeColor=none;fillColor=none;align=center;verticalAlign=middle;whiteSpace=wrap;rounded=0;" parent="CRhrbVuDPds4Fwr4ml6l-1" vertex="1">
          <mxGeometry x="968" y="1390" width="146" height="20" as="geometry" />
        </mxCell>
        <mxCell id="lsFIPsL1j69JxvouzDIO-16" style="edgeStyle=orthogonalEdgeStyle;rounded=0;orthogonalLoop=1;jettySize=auto;html=1;" parent="CRhrbVuDPds4Fwr4ml6l-1" source="lsFIPsL1j69JxvouzDIO-12" target="lsFIPsL1j69JxvouzDIO-14" edge="1">
          <mxGeometry relative="1" as="geometry" />
        </mxCell>
        <mxCell id="lsFIPsL1j69JxvouzDIO-17" style="edgeStyle=orthogonalEdgeStyle;rounded=0;orthogonalLoop=1;jettySize=auto;html=1;entryX=0.5;entryY=0;entryDx=0;entryDy=0;" parent="CRhrbVuDPds4Fwr4ml6l-1" source="lsFIPsL1j69JxvouzDIO-12" target="lsFIPsL1j69JxvouzDIO-26" edge="1">
          <mxGeometry relative="1" as="geometry" />
        </mxCell>
        <mxCell id="lsFIPsL1j69JxvouzDIO-12" value="cgdd_in_season &amp;lt; cgdd_efc" style="rhombus;whiteSpace=wrap;html=1;" parent="CRhrbVuDPds4Fwr4ml6l-1" vertex="1">
          <mxGeometry x="1040" y="1600" width="170" height="40" as="geometry" />
        </mxCell>
        <mxCell id="lsFIPsL1j69JxvouzDIO-34" style="edgeStyle=orthogonalEdgeStyle;rounded=0;orthogonalLoop=1;jettySize=auto;html=1;entryX=0.5;entryY=0;entryDx=0;entryDy=0;" parent="CRhrbVuDPds4Fwr4ml6l-1" source="lsFIPsL1j69JxvouzDIO-14" target="lsFIPsL1j69JxvouzDIO-33" edge="1">
          <mxGeometry relative="1" as="geometry" />
        </mxCell>
        <mxCell id="lsFIPsL1j69JxvouzDIO-14" value="foo.n_cgdd = cgdd_in_season / cgdd_efc&lt;br&gt;&lt;span&gt;int_cgdd = min(&lt;/span&gt;&lt;span&gt;foo.max_lines_in_crop_curve_table-1,&lt;/span&gt;&lt;span&gt;&lt;br&gt;&lt;/span&gt;&lt;div&gt;int(foo.n_cgdd * 10))&lt;/div&gt;" style="rounded=0;whiteSpace=wrap;html=1;" parent="CRhrbVuDPds4Fwr4ml6l-1" vertex="1">
          <mxGeometry x="750.5" y="1700" width="290" height="40" as="geometry" />
        </mxCell>
        <mxCell id="lsFIPsL1j69JxvouzDIO-45" style="edgeStyle=orthogonalEdgeStyle;rounded=0;orthogonalLoop=1;jettySize=auto;html=1;" parent="CRhrbVuDPds4Fwr4ml6l-1" source="lsFIPsL1j69JxvouzDIO-15" target="lsFIPsL1j69JxvouzDIO-44" edge="1">
          <mxGeometry relative="1" as="geometry" />
        </mxCell>
        <mxCell id="lsFIPsL1j69JxvouzDIO-15" value="foo.n_cgdd = cgdd_in_season / cgdd_efc" style="rounded=0;whiteSpace=wrap;html=1;" parent="CRhrbVuDPds4Fwr4ml6l-1" vertex="1">
          <mxGeometry x="1055" y="1810" width="235" height="40" as="geometry" />
        </mxCell>
        <mxCell id="lsFIPsL1j69JxvouzDIO-18" value="YES" style="text;html=1;strokeColor=none;fillColor=none;align=center;verticalAlign=middle;whiteSpace=wrap;rounded=0;" parent="CRhrbVuDPds4Fwr4ml6l-1" vertex="1">
          <mxGeometry x="1014" y="1650" width="50" height="20" as="geometry" />
        </mxCell>
        <mxCell id="lsFIPsL1j69JxvouzDIO-19" value="NO" style="text;html=1;strokeColor=none;fillColor=none;align=center;verticalAlign=middle;whiteSpace=wrap;rounded=0;" parent="CRhrbVuDPds4Fwr4ml6l-1" vertex="1">
          <mxGeometry x="1190" y="1650" width="50" height="20" as="geometry" />
        </mxCell>
        <mxCell id="lsFIPsL1j69JxvouzDIO-22" style="edgeStyle=orthogonalEdgeStyle;rounded=0;orthogonalLoop=1;jettySize=auto;html=1;entryX=0.5;entryY=0;entryDx=0;entryDy=0;exitX=0.496;exitY=1;exitDx=0;exitDy=0;exitPerimeter=0;" parent="CRhrbVuDPds4Fwr4ml6l-1" source="lsFIPsL1j69JxvouzDIO-24" target="lsFIPsL1j69JxvouzDIO-12" edge="1">
          <mxGeometry relative="1" as="geometry">
            <mxPoint x="1125" y="1550" as="sourcePoint" />
          </mxGeometry>
        </mxCell>
        <mxCell id="lsFIPsL1j69JxvouzDIO-25" style="edgeStyle=orthogonalEdgeStyle;rounded=0;orthogonalLoop=1;jettySize=auto;html=1;entryX=0.5;entryY=0;entryDx=0;entryDy=0;" parent="CRhrbVuDPds4Fwr4ml6l-1" source="lsFIPsL1j69JxvouzDIO-20" target="lsFIPsL1j69JxvouzDIO-24" edge="1">
          <mxGeometry relative="1" as="geometry" />
        </mxCell>
        <mxCell id="lsFIPsL1j69JxvouzDIO-20" value="&lt;div&gt;cgdd_efc = crop.cgdd_for_termination&lt;/div&gt;&lt;div&gt;&amp;nbsp; cgdd_term = crop.cgdd_for_termination&lt;/div&gt;" style="rounded=0;whiteSpace=wrap;html=1;" parent="CRhrbVuDPds4Fwr4ml6l-1" vertex="1">
          <mxGeometry x="1010" y="1430" width="230" height="40" as="geometry" />
        </mxCell>
        <mxCell id="lsFIPsL1j69JxvouzDIO-48" style="edgeStyle=orthogonalEdgeStyle;rounded=0;orthogonalLoop=1;jettySize=auto;html=1;entryX=0.5;entryY=0;entryDx=0;entryDy=0;" parent="CRhrbVuDPds4Fwr4ml6l-1" source="lsFIPsL1j69JxvouzDIO-23" target="lsFIPsL1j69JxvouzDIO-47" edge="1">
          <mxGeometry relative="1" as="geometry" />
        </mxCell>
        <mxCell id="lsFIPsL1j69JxvouzDIO-23" value="&lt;div&gt;crop.time_for_efc = max(crop.time_for_efc, 1.)&lt;/div&gt;&lt;div&gt;&lt;span&gt;foo.n_pl_ec = float(days_into_season) / crop.time_for_efc&lt;/span&gt;&lt;/div&gt;&lt;div&gt;&lt;span&gt;npl_ec100 = foo.n_pl_ec * 100&lt;/span&gt;&lt;/div&gt;" style="rounded=0;whiteSpace=wrap;html=1;" parent="CRhrbVuDPds4Fwr4ml6l-1" vertex="1">
          <mxGeometry x="1380" y="1129" width="310" height="40" as="geometry" />
        </mxCell>
        <mxCell id="lsFIPsL1j69JxvouzDIO-24" value="assign crop.curve_number to&amp;nbsp;curve_number&amp;nbsp;" style="rounded=0;whiteSpace=wrap;html=1;" parent="CRhrbVuDPds4Fwr4ml6l-1" vertex="1">
          <mxGeometry x="1049.5" y="1510" width="151" height="40" as="geometry" />
        </mxCell>
        <mxCell id="lsFIPsL1j69JxvouzDIO-30" style="edgeStyle=orthogonalEdgeStyle;rounded=0;orthogonalLoop=1;jettySize=auto;html=1;entryX=0.5;entryY=0;entryDx=0;entryDy=0;" parent="CRhrbVuDPds4Fwr4ml6l-1" source="lsFIPsL1j69JxvouzDIO-26" target="lsFIPsL1j69JxvouzDIO-15" edge="1">
          <mxGeometry relative="1" as="geometry" />
        </mxCell>
        <mxCell id="lsFIPsL1j69JxvouzDIO-32" style="edgeStyle=orthogonalEdgeStyle;rounded=0;orthogonalLoop=1;jettySize=auto;html=1;entryX=0.5;entryY=0;entryDx=0;entryDy=0;" parent="CRhrbVuDPds4Fwr4ml6l-1" source="lsFIPsL1j69JxvouzDIO-26" target="lsFIPsL1j69JxvouzDIO-31" edge="1">
          <mxGeometry relative="1" as="geometry" />
        </mxCell>
        <mxCell id="lsFIPsL1j69JxvouzDIO-26" value="cgdd_in_season &amp;lt; cgdd_term" style="rhombus;whiteSpace=wrap;html=1;" parent="CRhrbVuDPds4Fwr4ml6l-1" vertex="1">
          <mxGeometry x="1190" y="1700" width="170" height="40" as="geometry" />
        </mxCell>
        <mxCell id="lsFIPsL1j69JxvouzDIO-28" value="YES" style="text;html=1;strokeColor=none;fillColor=none;align=center;verticalAlign=middle;whiteSpace=wrap;rounded=0;" parent="CRhrbVuDPds4Fwr4ml6l-1" vertex="1">
          <mxGeometry x="1200" y="1750" width="50" height="20" as="geometry" />
        </mxCell>
        <mxCell id="lsFIPsL1j69JxvouzDIO-29" value="NO" style="text;html=1;strokeColor=none;fillColor=none;align=center;verticalAlign=middle;whiteSpace=wrap;rounded=0;" parent="CRhrbVuDPds4Fwr4ml6l-1" vertex="1">
          <mxGeometry x="1330" y="1750" width="50" height="20" as="geometry" />
        </mxCell>
        <mxCell id="lsFIPsL1j69JxvouzDIO-42" style="edgeStyle=orthogonalEdgeStyle;rounded=0;orthogonalLoop=1;jettySize=auto;html=1;entryX=0.5;entryY=0;entryDx=0;entryDy=0;" parent="CRhrbVuDPds4Fwr4ml6l-1" source="lsFIPsL1j69JxvouzDIO-31" target="lsFIPsL1j69JxvouzDIO-38" edge="1">
          <mxGeometry relative="1" as="geometry" />
        </mxCell>
        <mxCell id="lsFIPsL1j69JxvouzDIO-31" value="&lt;div&gt;foo.in_season = False&lt;/div&gt;&lt;div&gt;foo.stress_event = False&lt;/div&gt;" style="rounded=0;whiteSpace=wrap;html=1;" parent="CRhrbVuDPds4Fwr4ml6l-1" vertex="1">
          <mxGeometry x="1350" y="1810" width="140" height="40" as="geometry" />
        </mxCell>
        <mxCell id="lsFIPsL1j69JxvouzDIO-75" style="edgeStyle=orthogonalEdgeStyle;rounded=0;orthogonalLoop=1;jettySize=auto;html=1;entryX=0;entryY=0.5;entryDx=0;entryDy=0;" parent="CRhrbVuDPds4Fwr4ml6l-1" source="lsFIPsL1j69JxvouzDIO-33" edge="1">
          <mxGeometry relative="1" as="geometry">
            <Array as="points">
              <mxPoint x="820" y="2205" />
            </Array>
            <mxPoint x="1610" y="2205" as="targetPoint" />
          </mxGeometry>
        </mxCell>
        <mxCell id="lsFIPsL1j69JxvouzDIO-33" value="&lt;div&gt;foo.kc_bas = (&lt;span&gt;et_cell.crop_coeffs[curve_number].data[int_cgdd]+&lt;/span&gt;&lt;span&gt;&amp;nbsp;(foo.n_cgdd * 10 - int_cgdd) *&amp;nbsp;&lt;/span&gt;&lt;span&gt;(et_cell.crop_coeffs[curve_number].data[int_cgdd + 1] -&lt;/span&gt;&lt;/div&gt;&lt;div&gt;&amp;nbsp; &amp;nbsp; &amp;nbsp; &amp;nbsp; &amp;nbsp; &amp;nbsp; &amp;nbsp; &amp;nbsp; &amp;nbsp; &amp;nbsp; &amp;nbsp; &amp;nbsp; &amp;nbsp;et_cell.crop_coeffs[curve_number].data[int_cgdd]))&lt;/div&gt;" style="rounded=0;whiteSpace=wrap;html=1;" parent="CRhrbVuDPds4Fwr4ml6l-1" vertex="1">
          <mxGeometry x="600" y="1810" width="440.5" height="40" as="geometry" />
        </mxCell>
        <mxCell id="lsFIPsL1j69JxvouzDIO-35" value="should be a interpolation" style="text;html=1;strokeColor=none;fillColor=none;align=center;verticalAlign=middle;whiteSpace=wrap;rounded=0;" parent="CRhrbVuDPds4Fwr4ml6l-1" vertex="1">
          <mxGeometry x="860" y="1780" width="50" height="20" as="geometry" />
        </mxCell>
        <mxCell id="lsFIPsL1j69JxvouzDIO-36" value="End of season by exceeding cumGDD for termination" style="text;html=1;strokeColor=none;fillColor=none;align=center;verticalAlign=middle;whiteSpace=wrap;rounded=0;" parent="CRhrbVuDPds4Fwr4ml6l-1" vertex="1">
          <mxGeometry x="1420" y="1760" width="80" height="20" as="geometry" />
        </mxCell>
        <mxCell id="lsFIPsL1j69JxvouzDIO-43" style="edgeStyle=orthogonalEdgeStyle;rounded=0;orthogonalLoop=1;jettySize=auto;html=1;" parent="CRhrbVuDPds4Fwr4ml6l-1" source="lsFIPsL1j69JxvouzDIO-38" target="lsFIPsL1j69JxvouzDIO-40" edge="1">
          <mxGeometry relative="1" as="geometry" />
        </mxCell>
        <mxCell id="lsFIPsL1j69JxvouzDIO-38" value="crop.cutting_crop" style="rhombus;whiteSpace=wrap;html=1;" parent="CRhrbVuDPds4Fwr4ml6l-1" vertex="1">
          <mxGeometry x="1335" y="1900" width="170" height="40" as="geometry" />
        </mxCell>
        <mxCell id="lsFIPsL1j69JxvouzDIO-39" value="discount for cold shock to alfalfa" style="text;html=1;strokeColor=none;fillColor=none;align=center;verticalAlign=middle;whiteSpace=wrap;rounded=0;" parent="CRhrbVuDPds4Fwr4ml6l-1" vertex="1">
          <mxGeometry x="1805.56" y="1880" width="80" height="20" as="geometry" />
        </mxCell>
        <mxCell id="lsFIPsL1j69JxvouzDIO-77" style="edgeStyle=orthogonalEdgeStyle;rounded=0;orthogonalLoop=1;jettySize=auto;html=1;" parent="CRhrbVuDPds4Fwr4ml6l-1" source="lsFIPsL1j69JxvouzDIO-40" target="h2uMA3ctCdztWpDhM_Fx-0" edge="1">
          <mxGeometry relative="1" as="geometry">
            <Array as="points">
              <mxPoint x="1590" y="2035" />
              <mxPoint x="1590" y="2205" />
              <mxPoint x="1660" y="2205" />
            </Array>
          </mxGeometry>
        </mxCell>
        <mxCell id="lsFIPsL1j69JxvouzDIO-40" value="&lt;div&gt;foo.cycle += 1&lt;span&gt;&amp;nbsp;&amp;nbsp;&lt;/span&gt;&lt;/div&gt;&lt;div&gt;&lt;span&gt;foo.in_season = True&lt;/span&gt;&lt;/div&gt;&lt;div&gt;&lt;span&gt;foo.cgdd_at_planting = foo.cgdd&lt;br&gt;&lt;/span&gt;&lt;/div&gt;&lt;div&gt;&lt;span&gt;&lt;div&gt;foo.height = foo.height_min&lt;/div&gt;&lt;div&gt;&lt;span&gt;foo.kc_bas = et_cell.crop_coeffs[curve_number].data[0]&lt;/span&gt;&lt;/div&gt;&lt;/span&gt;&lt;/div&gt;" style="rounded=0;whiteSpace=wrap;html=1;" parent="CRhrbVuDPds4Fwr4ml6l-1" vertex="1">
          <mxGeometry x="1260" y="1990" width="320" height="90" as="geometry" />
        </mxCell>
        <mxCell id="lsFIPsL1j69JxvouzDIO-76" style="edgeStyle=orthogonalEdgeStyle;rounded=0;orthogonalLoop=1;jettySize=auto;html=1;exitX=0.5;exitY=1;exitDx=0;exitDy=0;entryX=0;entryY=0.5;entryDx=0;entryDy=0;" parent="CRhrbVuDPds4Fwr4ml6l-1" source="lsFIPsL1j69JxvouzDIO-44" edge="1" target="h2uMA3ctCdztWpDhM_Fx-0">
          <mxGeometry relative="1" as="geometry">
            <mxPoint x="1620" y="2130" as="targetPoint" />
            <Array as="points">
              <mxPoint x="1173" y="2210" />
              <mxPoint x="1620" y="2210" />
              <mxPoint x="1620" y="2125" />
            </Array>
          </mxGeometry>
        </mxCell>
        <mxCell id="lsFIPsL1j69JxvouzDIO-44" value="similar to the left formula" style="rounded=0;whiteSpace=wrap;html=1;" parent="CRhrbVuDPds4Fwr4ml6l-1" vertex="1">
          <mxGeometry x="1055" y="1890" width="235" height="40" as="geometry" />
        </mxCell>
        <mxCell id="lsFIPsL1j69JxvouzDIO-52" style="edgeStyle=orthogonalEdgeStyle;rounded=0;orthogonalLoop=1;jettySize=auto;html=1;exitX=0.5;exitY=1;exitDx=0;exitDy=0;entryX=0.5;entryY=0;entryDx=0;entryDy=0;" parent="CRhrbVuDPds4Fwr4ml6l-1" source="lsFIPsL1j69JxvouzDIO-47" target="lsFIPsL1j69JxvouzDIO-51" edge="1">
          <mxGeometry relative="1" as="geometry" />
        </mxCell>
        <mxCell id="lsFIPsL1j69JxvouzDIO-55" style="edgeStyle=orthogonalEdgeStyle;rounded=0;orthogonalLoop=1;jettySize=auto;html=1;" parent="CRhrbVuDPds4Fwr4ml6l-1" source="lsFIPsL1j69JxvouzDIO-47" target="lsFIPsL1j69JxvouzDIO-54" edge="1">
          <mxGeometry relative="1" as="geometry" />
        </mxCell>
        <mxCell id="lsFIPsL1j69JxvouzDIO-47" value="npl_ec100 &amp;lt;= abs(crop.time_for_harvest)" style="rhombus;whiteSpace=wrap;html=1;" parent="CRhrbVuDPds4Fwr4ml6l-1" vertex="1">
          <mxGeometry x="1440" y="1220" width="190" height="70" as="geometry" />
        </mxCell>
        <mxCell id="lsFIPsL1j69JxvouzDIO-49" value="YES" style="text;html=1;strokeColor=none;fillColor=none;align=center;verticalAlign=middle;whiteSpace=wrap;rounded=0;" parent="CRhrbVuDPds4Fwr4ml6l-1" vertex="1">
          <mxGeometry x="1445" y="1300" width="50" height="20" as="geometry" />
        </mxCell>
        <mxCell id="lsFIPsL1j69JxvouzDIO-50" value="NO" style="text;html=1;strokeColor=none;fillColor=none;align=center;verticalAlign=middle;whiteSpace=wrap;rounded=0;" parent="CRhrbVuDPds4Fwr4ml6l-1" vertex="1">
          <mxGeometry x="1575" y="1300" width="50" height="20" as="geometry" />
        </mxCell>
        <mxCell id="lsFIPsL1j69JxvouzDIO-78" style="edgeStyle=orthogonalEdgeStyle;rounded=0;orthogonalLoop=1;jettySize=auto;html=1;entryX=0.5;entryY=0;entryDx=0;entryDy=0;" parent="CRhrbVuDPds4Fwr4ml6l-1" source="lsFIPsL1j69JxvouzDIO-51" target="h2uMA3ctCdztWpDhM_Fx-0" edge="1">
          <mxGeometry relative="1" as="geometry">
            <Array as="points">
              <mxPoint x="1710" y="1480" />
              <mxPoint x="1710" y="1845" />
              <mxPoint x="1770" y="1845" />
            </Array>
            <mxPoint x="1770" y="2160" as="targetPoint" />
          </mxGeometry>
        </mxCell>
        <mxCell id="lsFIPsL1j69JxvouzDIO-51" value="&lt;div&gt;int_pl_ec = min(&lt;span&gt;foo.max_lines_in_crop_curve_table - 1., int(foo.n_pl_ec * 10.))&lt;/span&gt;&lt;/div&gt;&lt;div&gt;&lt;span&gt;foo.kc_bas = (&lt;/span&gt;&lt;span&gt;et_cell.crop_coeffs[curve_number].data[int_pl_ec] +&lt;/span&gt;&lt;span&gt;&amp;nbsp;(foo.n_pl_ec * 10. - int_pl_ec) *&lt;/span&gt;&lt;span&gt;(et_cell.crop_coeffs[curve_number].data[int_pl_ec + 1] -&lt;/span&gt;&lt;span&gt;et_cell.crop_coeffs[curve_number].data[int_pl_ec]))&lt;/span&gt;&lt;/div&gt;" style="rounded=0;whiteSpace=wrap;html=1;" parent="CRhrbVuDPds4Fwr4ml6l-1" vertex="1">
          <mxGeometry x="1290" y="1430" width="370" height="100" as="geometry" />
        </mxCell>
        <mxCell id="lsFIPsL1j69JxvouzDIO-53" value="still before harvest" style="text;html=1;strokeColor=none;fillColor=none;align=center;verticalAlign=middle;whiteSpace=wrap;rounded=0;" parent="CRhrbVuDPds4Fwr4ml6l-1" vertex="1">
          <mxGeometry x="1400" y="1330" width="50" height="20" as="geometry" />
        </mxCell>
        <mxCell id="lsFIPsL1j69JxvouzDIO-79" style="edgeStyle=orthogonalEdgeStyle;rounded=0;orthogonalLoop=1;jettySize=auto;html=1;exitX=0.5;exitY=1;exitDx=0;exitDy=0;entryX=0.5;entryY=0;entryDx=0;entryDy=0;" parent="CRhrbVuDPds4Fwr4ml6l-1" source="lsFIPsL1j69JxvouzDIO-54" edge="1" target="h2uMA3ctCdztWpDhM_Fx-0">
          <mxGeometry relative="1" as="geometry">
            <mxPoint x="1860" y="2140" as="targetPoint" />
            <Array as="points">
              <mxPoint x="1805" y="1850" />
              <mxPoint x="1770" y="1850" />
            </Array>
          </mxGeometry>
        </mxCell>
        <mxCell id="lsFIPsL1j69JxvouzDIO-54" value="foo.kc_bas = foo.kc_bas_prev" style="rounded=0;whiteSpace=wrap;html=1;" parent="CRhrbVuDPds4Fwr4ml6l-1" vertex="1">
          <mxGeometry x="1710" y="1430" width="190" height="40" as="geometry" />
        </mxCell>
        <mxCell id="lsFIPsL1j69JxvouzDIO-58" style="edgeStyle=orthogonalEdgeStyle;rounded=0;orthogonalLoop=1;jettySize=auto;html=1;entryX=0.5;entryY=0;entryDx=0;entryDy=0;" parent="CRhrbVuDPds4Fwr4ml6l-1" source="lsFIPsL1j69JxvouzDIO-56" target="lsFIPsL1j69JxvouzDIO-57" edge="1">
          <mxGeometry relative="1" as="geometry" />
        </mxCell>
        <mxCell id="lsFIPsL1j69JxvouzDIO-56" value="days_into_season = foo_day.doy - foo.doy_start_cycle + 1" style="rounded=0;whiteSpace=wrap;html=1;" parent="CRhrbVuDPds4Fwr4ml6l-1" vertex="1">
          <mxGeometry x="2040" y="1020" width="130" height="60" as="geometry" />
        </mxCell>
        <mxCell id="lsFIPsL1j69JxvouzDIO-60" style="edgeStyle=orthogonalEdgeStyle;rounded=0;orthogonalLoop=1;jettySize=auto;html=1;entryX=0.5;entryY=0;entryDx=0;entryDy=0;" parent="CRhrbVuDPds4Fwr4ml6l-1" source="lsFIPsL1j69JxvouzDIO-57" target="lsFIPsL1j69JxvouzDIO-59" edge="1">
          <mxGeometry relative="1" as="geometry" />
        </mxCell>
        <mxCell id="lsFIPsL1j69JxvouzDIO-57" value="&lt;div&gt;crop.time_for_efc = max(crop.time_for_efc, 1.)&lt;/div&gt;&lt;div&gt;&lt;span&gt;foo.n_pl_ec = float(days_into_season) / crop.time_for_efc&lt;/span&gt;&lt;/div&gt;" style="rounded=0;whiteSpace=wrap;html=1;" parent="CRhrbVuDPds4Fwr4ml6l-1" vertex="1">
          <mxGeometry x="1950" y="1129" width="310" height="40" as="geometry" />
        </mxCell>
        <mxCell id="lsFIPsL1j69JxvouzDIO-63" style="edgeStyle=orthogonalEdgeStyle;rounded=0;orthogonalLoop=1;jettySize=auto;html=1;exitX=0.5;exitY=1;exitDx=0;exitDy=0;entryX=0.5;entryY=0;entryDx=0;entryDy=0;" parent="CRhrbVuDPds4Fwr4ml6l-1" source="lsFIPsL1j69JxvouzDIO-59" target="lsFIPsL1j69JxvouzDIO-62" edge="1">
          <mxGeometry relative="1" as="geometry" />
        </mxCell>
        <mxCell id="lsFIPsL1j69JxvouzDIO-59" value="foo.n_pl_ec &amp;lt; 1" style="rhombus;whiteSpace=wrap;html=1;" parent="CRhrbVuDPds4Fwr4ml6l-1" vertex="1">
          <mxGeometry x="2010" y="1220" width="190" height="70" as="geometry" />
        </mxCell>
        <mxCell id="lsFIPsL1j69JxvouzDIO-61" value="here is the difference with case 2" style="text;html=1;strokeColor=none;fillColor=none;align=center;verticalAlign=middle;whiteSpace=wrap;rounded=0;" parent="CRhrbVuDPds4Fwr4ml6l-1" vertex="1">
          <mxGeometry x="2000" y="1200" width="100" height="20" as="geometry" />
        </mxCell>
        <mxCell id="lsFIPsL1j69JxvouzDIO-80" style="edgeStyle=orthogonalEdgeStyle;rounded=0;orthogonalLoop=1;jettySize=auto;html=1;entryX=1;entryY=0.5;entryDx=0;entryDy=0;" parent="CRhrbVuDPds4Fwr4ml6l-1" source="lsFIPsL1j69JxvouzDIO-62" target="h2uMA3ctCdztWpDhM_Fx-0" edge="1">
          <mxGeometry relative="1" as="geometry" />
        </mxCell>
        <mxCell id="lsFIPsL1j69JxvouzDIO-62" value="&lt;div&gt;calculate Kcb&lt;/div&gt;" style="rounded=0;whiteSpace=wrap;html=1;" parent="CRhrbVuDPds4Fwr4ml6l-1" vertex="1">
          <mxGeometry x="2040" y="1330" width="130" height="40" as="geometry" />
        </mxCell>
        <mxCell id="lsFIPsL1j69JxvouzDIO-72" style="edgeStyle=orthogonalEdgeStyle;rounded=0;orthogonalLoop=1;jettySize=auto;html=1;entryX=0.5;entryY=0;entryDx=0;entryDy=0;" parent="CRhrbVuDPds4Fwr4ml6l-1" source="lsFIPsL1j69JxvouzDIO-65" target="lsFIPsL1j69JxvouzDIO-67" edge="1">
          <mxGeometry relative="1" as="geometry" />
        </mxCell>
        <mxCell id="lsFIPsL1j69JxvouzDIO-65" value="days_into_season = foo_day.doy - foo.doy_start_cycle" style="rounded=0;whiteSpace=wrap;html=1;" parent="CRhrbVuDPds4Fwr4ml6l-1" vertex="1">
          <mxGeometry x="2400" y="1030" width="130" height="40" as="geometry" />
        </mxCell>
        <mxCell id="lsFIPsL1j69JxvouzDIO-73" style="edgeStyle=orthogonalEdgeStyle;rounded=0;orthogonalLoop=1;jettySize=auto;html=1;" parent="CRhrbVuDPds4Fwr4ml6l-1" source="lsFIPsL1j69JxvouzDIO-67" target="lsFIPsL1j69JxvouzDIO-69" edge="1">
          <mxGeometry relative="1" as="geometry" />
        </mxCell>
        <mxCell id="lsFIPsL1j69JxvouzDIO-67" value="foo.n_pl_ec = float(days_into_season) / length_of_season" style="rounded=0;whiteSpace=wrap;html=1;" parent="CRhrbVuDPds4Fwr4ml6l-1" vertex="1">
          <mxGeometry x="2310" y="1129" width="310" height="40" as="geometry" />
        </mxCell>
        <mxCell id="lsFIPsL1j69JxvouzDIO-68" style="edgeStyle=orthogonalEdgeStyle;rounded=0;orthogonalLoop=1;jettySize=auto;html=1;exitX=0.5;exitY=1;exitDx=0;exitDy=0;entryX=0.5;entryY=0;entryDx=0;entryDy=0;" parent="CRhrbVuDPds4Fwr4ml6l-1" source="lsFIPsL1j69JxvouzDIO-69" target="lsFIPsL1j69JxvouzDIO-71" edge="1">
          <mxGeometry relative="1" as="geometry" />
        </mxCell>
        <mxCell id="lsFIPsL1j69JxvouzDIO-69" value="foo.n_pl_ec &amp;lt; 1" style="rhombus;whiteSpace=wrap;html=1;" parent="CRhrbVuDPds4Fwr4ml6l-1" vertex="1">
          <mxGeometry x="2370" y="1220" width="190" height="70" as="geometry" />
        </mxCell>
        <mxCell id="lsFIPsL1j69JxvouzDIO-70" value="here is the difference with case 2" style="text;html=1;strokeColor=none;fillColor=none;align=center;verticalAlign=middle;whiteSpace=wrap;rounded=0;" parent="CRhrbVuDPds4Fwr4ml6l-1" vertex="1">
          <mxGeometry x="2360" y="1200" width="100" height="20" as="geometry" />
        </mxCell>
        <mxCell id="lsFIPsL1j69JxvouzDIO-81" style="edgeStyle=orthogonalEdgeStyle;rounded=0;orthogonalLoop=1;jettySize=auto;html=1;entryX=1;entryY=0.5;entryDx=0;entryDy=0;" parent="CRhrbVuDPds4Fwr4ml6l-1" source="lsFIPsL1j69JxvouzDIO-71" target="h2uMA3ctCdztWpDhM_Fx-0" edge="1">
          <mxGeometry relative="1" as="geometry">
            <Array as="points">
              <mxPoint x="2250" y="1350" />
              <mxPoint x="2250" y="2205" />
              <mxPoint x="1970" y="2205" />
              <mxPoint x="1970" y="2210" />
            </Array>
            <mxPoint x="1860" y="2140" as="targetPoint" />
          </mxGeometry>
        </mxCell>
        <mxCell id="lsFIPsL1j69JxvouzDIO-71" value="&lt;div&gt;calculate Kcb&lt;/div&gt;" style="rounded=0;whiteSpace=wrap;html=1;" parent="CRhrbVuDPds4Fwr4ml6l-1" vertex="1">
          <mxGeometry x="2400" y="1330" width="130" height="40" as="geometry" />
        </mxCell>
        <mxCell id="bdmsMYAKaE6dXH0Tw1gz-1" style="edgeStyle=orthogonalEdgeStyle;rounded=0;orthogonalLoop=1;jettySize=auto;html=1;exitX=0.5;exitY=0;exitDx=0;exitDy=0;entryX=0.5;entryY=1;entryDx=0;entryDy=0;" parent="CRhrbVuDPds4Fwr4ml6l-1" source="bdmsMYAKaE6dXH0Tw1gz-0" target="bdmsMYAKaE6dXH0Tw1gz-2" edge="1">
          <mxGeometry relative="1" as="geometry">
            <mxPoint x="823" y="370" as="targetPoint" />
          </mxGeometry>
        </mxCell>
        <mxCell id="bdmsMYAKaE6dXH0Tw1gz-0" value="foo_day.doy &amp;lt; (crop.gdd_trigger_doy + 195)" style="rhombus;whiteSpace=wrap;html=1;" parent="CRhrbVuDPds4Fwr4ml6l-1" vertex="1">
          <mxGeometry x="725" y="430" width="195" height="40" as="geometry" />
        </mxCell>
        <mxCell id="bdmsMYAKaE6dXH0Tw1gz-4" style="edgeStyle=orthogonalEdgeStyle;rounded=0;orthogonalLoop=1;jettySize=auto;html=1;entryX=0.5;entryY=1;entryDx=0;entryDy=0;" parent="CRhrbVuDPds4Fwr4ml6l-1" source="bdmsMYAKaE6dXH0Tw1gz-2" target="bdmsMYAKaE6dXH0Tw1gz-3" edge="1">
          <mxGeometry relative="1" as="geometry" />
        </mxCell>
        <mxCell id="bdmsMYAKaE6dXH0Tw1gz-8" style="edgeStyle=orthogonalEdgeStyle;rounded=0;orthogonalLoop=1;jettySize=auto;html=1;entryX=0;entryY=0.5;entryDx=0;entryDy=0;exitX=0;exitY=0.5;exitDx=0;exitDy=0;" parent="CRhrbVuDPds4Fwr4ml6l-1" source="bdmsMYAKaE6dXH0Tw1gz-2" target="bdmsMYAKaE6dXH0Tw1gz-5" edge="1">
          <mxGeometry relative="1" as="geometry" />
        </mxCell>
        <mxCell id="bdmsMYAKaE6dXH0Tw1gz-2" value="foo.longterm_pl &amp;gt; 0 and foo_day.doy &amp;gt; (foo.longterm_pl + gs_limit) and not foo.real_start" style="rhombus;whiteSpace=wrap;html=1;" parent="CRhrbVuDPds4Fwr4ml6l-1" vertex="1">
          <mxGeometry x="695" y="320" width="255" height="60" as="geometry" />
        </mxCell>
        <mxCell id="bdmsMYAKaE6dXH0Tw1gz-6" style="edgeStyle=orthogonalEdgeStyle;rounded=0;orthogonalLoop=1;jettySize=auto;html=1;entryX=0.5;entryY=1;entryDx=0;entryDy=0;" parent="CRhrbVuDPds4Fwr4ml6l-1" source="bdmsMYAKaE6dXH0Tw1gz-3" target="bdmsMYAKaE6dXH0Tw1gz-5" edge="1">
          <mxGeometry relative="1" as="geometry" />
        </mxCell>
        <mxCell id="bdmsMYAKaE6dXH0Tw1gz-3" value="&lt;div&gt;foo.doy_start_cycle = foo_day.doy&lt;/div&gt;&lt;div&gt;&lt;span&gt;foo.real_start = True&lt;/span&gt;&lt;/div&gt;" style="rounded=0;whiteSpace=wrap;html=1;" parent="CRhrbVuDPds4Fwr4ml6l-1" vertex="1">
          <mxGeometry x="717.5" y="240" width="210" height="40" as="geometry" />
        </mxCell>
        <mxCell id="bdmsMYAKaE6dXH0Tw1gz-10" style="edgeStyle=orthogonalEdgeStyle;rounded=0;orthogonalLoop=1;jettySize=auto;html=1;exitX=0.5;exitY=0;exitDx=0;exitDy=0;entryX=0.5;entryY=1;entryDx=0;entryDy=0;" parent="CRhrbVuDPds4Fwr4ml6l-1" source="bdmsMYAKaE6dXH0Tw1gz-5" target="bdmsMYAKaE6dXH0Tw1gz-9" edge="1">
          <mxGeometry relative="1" as="geometry" />
        </mxCell>
        <mxCell id="bdmsMYAKaE6dXH0Tw1gz-84" style="edgeStyle=orthogonalEdgeStyle;rounded=0;orthogonalLoop=1;jettySize=auto;html=1;entryX=0;entryY=0.5;entryDx=0;entryDy=0;" parent="CRhrbVuDPds4Fwr4ml6l-1" source="bdmsMYAKaE6dXH0Tw1gz-5" target="bdmsMYAKaE6dXH0Tw1gz-83" edge="1">
          <mxGeometry relative="1" as="geometry" />
        </mxCell>
        <mxCell id="bdmsMYAKaE6dXH0Tw1gz-5" value="not foo.real_start" style="rhombus;whiteSpace=wrap;html=1;" parent="CRhrbVuDPds4Fwr4ml6l-1" vertex="1">
          <mxGeometry x="740" y="180" width="165" height="30" as="geometry" />
        </mxCell>
        <mxCell id="bdmsMYAKaE6dXH0Tw1gz-11" style="edgeStyle=orthogonalEdgeStyle;rounded=0;orthogonalLoop=1;jettySize=auto;html=1;exitX=1;exitY=0.5;exitDx=0;exitDy=0;entryX=0;entryY=0.5;entryDx=0;entryDy=0;" parent="CRhrbVuDPds4Fwr4ml6l-1" source="bdmsMYAKaE6dXH0Tw1gz-9" target="bdmsMYAKaE6dXH0Tw1gz-12" edge="1">
          <mxGeometry relative="1" as="geometry">
            <mxPoint x="1020" y="85" as="targetPoint" />
          </mxGeometry>
        </mxCell>
        <mxCell id="bdmsMYAKaE6dXH0Tw1gz-9" value="foo_day.t30 &amp;gt; crop.t30_for_pl_or_gu_or_cgdd" style="rhombus;whiteSpace=wrap;html=1;" parent="CRhrbVuDPds4Fwr4ml6l-1" vertex="1">
          <mxGeometry x="701.37" y="60" width="242.25" height="50" as="geometry" />
        </mxCell>
        <mxCell id="bdmsMYAKaE6dXH0Tw1gz-16" style="edgeStyle=orthogonalEdgeStyle;rounded=0;orthogonalLoop=1;jettySize=auto;html=1;exitX=1;exitY=0.5;exitDx=0;exitDy=0;entryX=0;entryY=0.5;entryDx=0;entryDy=0;" parent="CRhrbVuDPds4Fwr4ml6l-1" source="bdmsMYAKaE6dXH0Tw1gz-12" target="bdmsMYAKaE6dXH0Tw1gz-15" edge="1">
          <mxGeometry relative="1" as="geometry" />
        </mxCell>
        <mxCell id="bdmsMYAKaE6dXH0Tw1gz-32" style="edgeStyle=orthogonalEdgeStyle;rounded=0;orthogonalLoop=1;jettySize=auto;html=1;exitX=0.5;exitY=1;exitDx=0;exitDy=0;entryX=0.5;entryY=0;entryDx=0;entryDy=0;" parent="CRhrbVuDPds4Fwr4ml6l-1" source="bdmsMYAKaE6dXH0Tw1gz-12" target="bdmsMYAKaE6dXH0Tw1gz-33" edge="1">
          <mxGeometry relative="1" as="geometry">
            <mxPoint x="1245" y="150" as="targetPoint" />
          </mxGeometry>
        </mxCell>
        <mxCell id="bdmsMYAKaE6dXH0Tw1gz-12" value="foo.longterm_pl &amp;gt; 0 and foo_day.doy &amp;lt; (foo.longterm_pl - gs_limit)" style="rhombus;whiteSpace=wrap;html=1;" parent="CRhrbVuDPds4Fwr4ml6l-1" vertex="1">
          <mxGeometry x="1124" y="60" width="242.25" height="50" as="geometry" />
        </mxCell>
        <mxCell id="bdmsMYAKaE6dXH0Tw1gz-13" value="t30 is larger than the setup value, so season starts" style="text;html=1;strokeColor=none;fillColor=none;align=center;verticalAlign=middle;whiteSpace=wrap;rounded=0;" parent="CRhrbVuDPds4Fwr4ml6l-1" vertex="1">
          <mxGeometry x="850" y="40" width="120" height="20" as="geometry" />
        </mxCell>
        <mxCell id="bdmsMYAKaE6dXH0Tw1gz-14" value="But when the day is too earlier than the historical record, don&#39;t make season started" style="text;html=1;strokeColor=none;fillColor=none;align=center;verticalAlign=middle;whiteSpace=wrap;rounded=0;" parent="CRhrbVuDPds4Fwr4ml6l-1" vertex="1">
          <mxGeometry x="1280" y="20" width="120" height="20" as="geometry" />
        </mxCell>
        <mxCell id="bdmsMYAKaE6dXH0Tw1gz-18" style="edgeStyle=orthogonalEdgeStyle;rounded=0;orthogonalLoop=1;jettySize=auto;html=1;entryX=0.5;entryY=0;entryDx=0;entryDy=0;" parent="CRhrbVuDPds4Fwr4ml6l-1" source="bdmsMYAKaE6dXH0Tw1gz-15" target="bdmsMYAKaE6dXH0Tw1gz-17" edge="1">
          <mxGeometry relative="1" as="geometry" />
        </mxCell>
        <mxCell id="bdmsMYAKaE6dXH0Tw1gz-15" value="foo.real_start = False" style="rounded=0;whiteSpace=wrap;html=1;" parent="CRhrbVuDPds4Fwr4ml6l-1" vertex="1">
          <mxGeometry x="1430" y="70" width="160" height="30" as="geometry" />
        </mxCell>
        <mxCell id="bdmsMYAKaE6dXH0Tw1gz-21" style="edgeStyle=orthogonalEdgeStyle;rounded=0;orthogonalLoop=1;jettySize=auto;html=1;exitX=0;exitY=0.5;exitDx=0;exitDy=0;entryX=1;entryY=0.5;entryDx=0;entryDy=0;" parent="CRhrbVuDPds4Fwr4ml6l-1" source="bdmsMYAKaE6dXH0Tw1gz-17" target="bdmsMYAKaE6dXH0Tw1gz-20" edge="1">
          <mxGeometry relative="1" as="geometry" />
        </mxCell>
        <mxCell id="bdmsMYAKaE6dXH0Tw1gz-22" style="edgeStyle=orthogonalEdgeStyle;rounded=0;orthogonalLoop=1;jettySize=auto;html=1;exitX=0.5;exitY=1;exitDx=0;exitDy=0;entryX=0.5;entryY=0;entryDx=0;entryDy=0;" parent="CRhrbVuDPds4Fwr4ml6l-1" source="bdmsMYAKaE6dXH0Tw1gz-17" target="bdmsMYAKaE6dXH0Tw1gz-19" edge="1">
          <mxGeometry relative="1" as="geometry" />
        </mxCell>
        <mxCell id="bdmsMYAKaE6dXH0Tw1gz-17" value="data.gs_limit_flag" style="rhombus;whiteSpace=wrap;html=1;" parent="CRhrbVuDPds4Fwr4ml6l-1" vertex="1">
          <mxGeometry x="1640" y="140" width="171.12" height="30" as="geometry" />
        </mxCell>
        <mxCell id="bdmsMYAKaE6dXH0Tw1gz-26" style="edgeStyle=orthogonalEdgeStyle;rounded=0;orthogonalLoop=1;jettySize=auto;html=1;entryX=1;entryY=0.5;entryDx=0;entryDy=0;" parent="CRhrbVuDPds4Fwr4ml6l-1" source="bdmsMYAKaE6dXH0Tw1gz-19" target="bdmsMYAKaE6dXH0Tw1gz-25" edge="1">
          <mxGeometry relative="1" as="geometry" />
        </mxCell>
        <mxCell id="bdmsMYAKaE6dXH0Tw1gz-19" value="foo.doy_start_cycle = foo.longterm_pl - 40" style="rounded=0;whiteSpace=wrap;html=1;" parent="CRhrbVuDPds4Fwr4ml6l-1" vertex="1">
          <mxGeometry x="1645.56" y="200" width="160" height="30" as="geometry" />
        </mxCell>
        <mxCell id="bdmsMYAKaE6dXH0Tw1gz-27" style="edgeStyle=orthogonalEdgeStyle;rounded=0;orthogonalLoop=1;jettySize=auto;html=1;entryX=0.5;entryY=0;entryDx=0;entryDy=0;" parent="CRhrbVuDPds4Fwr4ml6l-1" source="bdmsMYAKaE6dXH0Tw1gz-20" target="bdmsMYAKaE6dXH0Tw1gz-25" edge="1">
          <mxGeometry relative="1" as="geometry" />
        </mxCell>
        <mxCell id="bdmsMYAKaE6dXH0Tw1gz-20" value="foo.doy_start_cycle = 1" style="rounded=0;whiteSpace=wrap;html=1;" parent="CRhrbVuDPds4Fwr4ml6l-1" vertex="1">
          <mxGeometry x="1425.56" y="140" width="160" height="30" as="geometry" />
        </mxCell>
        <mxCell id="bdmsMYAKaE6dXH0Tw1gz-23" value="Yes" style="text;html=1;strokeColor=none;fillColor=none;align=center;verticalAlign=middle;whiteSpace=wrap;rounded=0;" parent="CRhrbVuDPds4Fwr4ml6l-1" vertex="1">
          <mxGeometry x="1675.56" y="170" width="40" height="20" as="geometry" />
        </mxCell>
        <mxCell id="bdmsMYAKaE6dXH0Tw1gz-24" value="No" style="text;html=1;strokeColor=none;fillColor=none;align=center;verticalAlign=middle;whiteSpace=wrap;rounded=0;" parent="CRhrbVuDPds4Fwr4ml6l-1" vertex="1">
          <mxGeometry x="1605.56" y="130" width="40" height="20" as="geometry" />
        </mxCell>
        <mxCell id="bdmsMYAKaE6dXH0Tw1gz-29" style="edgeStyle=orthogonalEdgeStyle;rounded=0;orthogonalLoop=1;jettySize=auto;html=1;entryX=0.5;entryY=0;entryDx=0;entryDy=0;" parent="CRhrbVuDPds4Fwr4ml6l-1" source="bdmsMYAKaE6dXH0Tw1gz-25" target="bdmsMYAKaE6dXH0Tw1gz-28" edge="1">
          <mxGeometry relative="1" as="geometry" />
        </mxCell>
        <mxCell id="bdmsMYAKaE6dXH0Tw1gz-25" value="foo.doy_start_cycle &amp;lt; 1" style="rhombus;whiteSpace=wrap;html=1;" parent="CRhrbVuDPds4Fwr4ml6l-1" vertex="1">
          <mxGeometry x="1420" y="200" width="171.12" height="30" as="geometry" />
        </mxCell>
        <mxCell id="bdmsMYAKaE6dXH0Tw1gz-28" value="foo.doy_start_cycle += 365" style="rounded=0;whiteSpace=wrap;html=1;" parent="CRhrbVuDPds4Fwr4ml6l-1" vertex="1">
          <mxGeometry x="1425.56" y="260" width="160" height="30" as="geometry" />
        </mxCell>
        <mxCell id="bdmsMYAKaE6dXH0Tw1gz-30" value="No" style="text;html=1;strokeColor=none;fillColor=none;align=center;verticalAlign=middle;whiteSpace=wrap;rounded=0;" parent="CRhrbVuDPds4Fwr4ml6l-1" vertex="1">
          <mxGeometry x="1196" y="110" width="40" height="20" as="geometry" />
        </mxCell>
        <mxCell id="bdmsMYAKaE6dXH0Tw1gz-31" value="Yes" style="text;html=1;strokeColor=none;fillColor=none;align=center;verticalAlign=middle;whiteSpace=wrap;rounded=0;" parent="CRhrbVuDPds4Fwr4ml6l-1" vertex="1">
          <mxGeometry x="1385.56" y="60" width="40" height="20" as="geometry" />
        </mxCell>
        <mxCell id="bdmsMYAKaE6dXH0Tw1gz-33" value="&lt;div&gt;foo.doy_start_cycle = foo_day.doy&lt;/div&gt;&lt;div&gt;&lt;span&gt;foo.real_start = True&lt;/span&gt;&lt;/div&gt;" style="rounded=0;whiteSpace=wrap;html=1;" parent="CRhrbVuDPds4Fwr4ml6l-1" vertex="1">
          <mxGeometry x="1152.56" y="140" width="185.13" height="30" as="geometry" />
        </mxCell>
        <mxCell id="bdmsMYAKaE6dXH0Tw1gz-36" value="season start" style="text;html=1;strokeColor=none;fillColor=none;align=center;verticalAlign=middle;whiteSpace=wrap;rounded=0;" parent="CRhrbVuDPds4Fwr4ml6l-1" vertex="1">
          <mxGeometry x="1271" y="115" width="40" height="20" as="geometry" />
        </mxCell>
        <mxCell id="bdmsMYAKaE6dXH0Tw1gz-37" style="edgeStyle=orthogonalEdgeStyle;rounded=0;orthogonalLoop=1;jettySize=auto;html=1;exitX=1;exitY=0.5;exitDx=0;exitDy=0;entryX=0;entryY=0.5;entryDx=0;entryDy=0;" parent="CRhrbVuDPds4Fwr4ml6l-1" source="bdmsMYAKaE6dXH0Tw1gz-39" target="bdmsMYAKaE6dXH0Tw1gz-42" edge="1">
          <mxGeometry relative="1" as="geometry" />
        </mxCell>
        <mxCell id="bdmsMYAKaE6dXH0Tw1gz-38" style="edgeStyle=orthogonalEdgeStyle;rounded=0;orthogonalLoop=1;jettySize=auto;html=1;exitX=0.5;exitY=1;exitDx=0;exitDy=0;entryX=0.5;entryY=0;entryDx=0;entryDy=0;" parent="CRhrbVuDPds4Fwr4ml6l-1" source="bdmsMYAKaE6dXH0Tw1gz-39" target="bdmsMYAKaE6dXH0Tw1gz-57" edge="1">
          <mxGeometry relative="1" as="geometry">
            <mxPoint x="1245" y="150" as="targetPoint" />
          </mxGeometry>
        </mxCell>
        <mxCell id="bdmsMYAKaE6dXH0Tw1gz-39" value="foo.longterm_pl &amp;gt; 0 and foo_day.doy &amp;lt; (foo.longterm_pl - gs_limit)" style="rhombus;whiteSpace=wrap;html=1;" parent="CRhrbVuDPds4Fwr4ml6l-1" vertex="1">
          <mxGeometry x="1124" y="60" width="242.25" height="50" as="geometry" />
        </mxCell>
        <mxCell id="bdmsMYAKaE6dXH0Tw1gz-40" value="But when the day is too earlier than the historical record, don&#39;t make season started" style="text;html=1;strokeColor=none;fillColor=none;align=center;verticalAlign=middle;whiteSpace=wrap;rounded=0;" parent="CRhrbVuDPds4Fwr4ml6l-1" vertex="1">
          <mxGeometry x="1280" y="20" width="120" height="20" as="geometry" />
        </mxCell>
        <mxCell id="bdmsMYAKaE6dXH0Tw1gz-41" style="edgeStyle=orthogonalEdgeStyle;rounded=0;orthogonalLoop=1;jettySize=auto;html=1;entryX=0.5;entryY=0;entryDx=0;entryDy=0;" parent="CRhrbVuDPds4Fwr4ml6l-1" source="bdmsMYAKaE6dXH0Tw1gz-42" target="bdmsMYAKaE6dXH0Tw1gz-45" edge="1">
          <mxGeometry relative="1" as="geometry" />
        </mxCell>
        <mxCell id="bdmsMYAKaE6dXH0Tw1gz-42" value="foo.real_start = False" style="rounded=0;whiteSpace=wrap;html=1;" parent="CRhrbVuDPds4Fwr4ml6l-1" vertex="1">
          <mxGeometry x="1430" y="70" width="160" height="30" as="geometry" />
        </mxCell>
        <mxCell id="bdmsMYAKaE6dXH0Tw1gz-43" style="edgeStyle=orthogonalEdgeStyle;rounded=0;orthogonalLoop=1;jettySize=auto;html=1;exitX=0;exitY=0.5;exitDx=0;exitDy=0;entryX=1;entryY=0.5;entryDx=0;entryDy=0;" parent="CRhrbVuDPds4Fwr4ml6l-1" source="bdmsMYAKaE6dXH0Tw1gz-45" target="bdmsMYAKaE6dXH0Tw1gz-49" edge="1">
          <mxGeometry relative="1" as="geometry" />
        </mxCell>
        <mxCell id="bdmsMYAKaE6dXH0Tw1gz-44" style="edgeStyle=orthogonalEdgeStyle;rounded=0;orthogonalLoop=1;jettySize=auto;html=1;exitX=0.5;exitY=1;exitDx=0;exitDy=0;entryX=0.5;entryY=0;entryDx=0;entryDy=0;" parent="CRhrbVuDPds4Fwr4ml6l-1" source="bdmsMYAKaE6dXH0Tw1gz-45" target="bdmsMYAKaE6dXH0Tw1gz-47" edge="1">
          <mxGeometry relative="1" as="geometry" />
        </mxCell>
        <mxCell id="bdmsMYAKaE6dXH0Tw1gz-45" value="data.gs_limit_flag" style="rhombus;whiteSpace=wrap;html=1;" parent="CRhrbVuDPds4Fwr4ml6l-1" vertex="1">
          <mxGeometry x="1640" y="140" width="171.12" height="30" as="geometry" />
        </mxCell>
        <mxCell id="bdmsMYAKaE6dXH0Tw1gz-46" style="edgeStyle=orthogonalEdgeStyle;rounded=0;orthogonalLoop=1;jettySize=auto;html=1;entryX=1;entryY=0.5;entryDx=0;entryDy=0;" parent="CRhrbVuDPds4Fwr4ml6l-1" source="bdmsMYAKaE6dXH0Tw1gz-47" target="bdmsMYAKaE6dXH0Tw1gz-53" edge="1">
          <mxGeometry relative="1" as="geometry" />
        </mxCell>
        <mxCell id="bdmsMYAKaE6dXH0Tw1gz-47" value="foo.doy_start_cycle = foo.longterm_pl - 40" style="rounded=0;whiteSpace=wrap;html=1;" parent="CRhrbVuDPds4Fwr4ml6l-1" vertex="1">
          <mxGeometry x="1645.56" y="200" width="160" height="30" as="geometry" />
        </mxCell>
        <mxCell id="bdmsMYAKaE6dXH0Tw1gz-48" style="edgeStyle=orthogonalEdgeStyle;rounded=0;orthogonalLoop=1;jettySize=auto;html=1;entryX=0.5;entryY=0;entryDx=0;entryDy=0;" parent="CRhrbVuDPds4Fwr4ml6l-1" source="bdmsMYAKaE6dXH0Tw1gz-49" target="bdmsMYAKaE6dXH0Tw1gz-53" edge="1">
          <mxGeometry relative="1" as="geometry" />
        </mxCell>
        <mxCell id="bdmsMYAKaE6dXH0Tw1gz-49" value="foo.doy_start_cycle = 1" style="rounded=0;whiteSpace=wrap;html=1;" parent="CRhrbVuDPds4Fwr4ml6l-1" vertex="1">
          <mxGeometry x="1425.56" y="140" width="160" height="30" as="geometry" />
        </mxCell>
        <mxCell id="bdmsMYAKaE6dXH0Tw1gz-50" value="Yes" style="text;html=1;strokeColor=none;fillColor=none;align=center;verticalAlign=middle;whiteSpace=wrap;rounded=0;" parent="CRhrbVuDPds4Fwr4ml6l-1" vertex="1">
          <mxGeometry x="1675.56" y="170" width="40" height="20" as="geometry" />
        </mxCell>
        <mxCell id="bdmsMYAKaE6dXH0Tw1gz-51" value="No" style="text;html=1;strokeColor=none;fillColor=none;align=center;verticalAlign=middle;whiteSpace=wrap;rounded=0;" parent="CRhrbVuDPds4Fwr4ml6l-1" vertex="1">
          <mxGeometry x="1605.56" y="130" width="40" height="20" as="geometry" />
        </mxCell>
        <mxCell id="bdmsMYAKaE6dXH0Tw1gz-52" style="edgeStyle=orthogonalEdgeStyle;rounded=0;orthogonalLoop=1;jettySize=auto;html=1;entryX=0.5;entryY=0;entryDx=0;entryDy=0;" parent="CRhrbVuDPds4Fwr4ml6l-1" source="bdmsMYAKaE6dXH0Tw1gz-53" target="bdmsMYAKaE6dXH0Tw1gz-54" edge="1">
          <mxGeometry relative="1" as="geometry" />
        </mxCell>
        <mxCell id="bdmsMYAKaE6dXH0Tw1gz-53" value="foo.doy_start_cycle &amp;lt; 1" style="rhombus;whiteSpace=wrap;html=1;" parent="CRhrbVuDPds4Fwr4ml6l-1" vertex="1">
          <mxGeometry x="1420" y="200" width="171.12" height="30" as="geometry" />
        </mxCell>
        <mxCell id="bdmsMYAKaE6dXH0Tw1gz-54" value="foo.doy_start_cycle += 365" style="rounded=0;whiteSpace=wrap;html=1;" parent="CRhrbVuDPds4Fwr4ml6l-1" vertex="1">
          <mxGeometry x="1425.56" y="260" width="160" height="30" as="geometry" />
        </mxCell>
        <mxCell id="bdmsMYAKaE6dXH0Tw1gz-55" value="No" style="text;html=1;strokeColor=none;fillColor=none;align=center;verticalAlign=middle;whiteSpace=wrap;rounded=0;" parent="CRhrbVuDPds4Fwr4ml6l-1" vertex="1">
          <mxGeometry x="1196" y="110" width="40" height="20" as="geometry" />
        </mxCell>
        <mxCell id="bdmsMYAKaE6dXH0Tw1gz-56" value="Yes" style="text;html=1;strokeColor=none;fillColor=none;align=center;verticalAlign=middle;whiteSpace=wrap;rounded=0;" parent="CRhrbVuDPds4Fwr4ml6l-1" vertex="1">
          <mxGeometry x="1385.56" y="60" width="40" height="20" as="geometry" />
        </mxCell>
        <mxCell id="bdmsMYAKaE6dXH0Tw1gz-57" value="&lt;div&gt;foo.doy_start_cycle = foo_day.doy&lt;/div&gt;&lt;div&gt;&lt;span&gt;foo.real_start = True&lt;/span&gt;&lt;/div&gt;" style="rounded=0;whiteSpace=wrap;html=1;" parent="CRhrbVuDPds4Fwr4ml6l-1" vertex="1">
          <mxGeometry x="1152.56" y="140" width="185.13" height="30" as="geometry" />
        </mxCell>
        <mxCell id="bdmsMYAKaE6dXH0Tw1gz-58" value="season start" style="text;html=1;strokeColor=none;fillColor=none;align=center;verticalAlign=middle;whiteSpace=wrap;rounded=0;" parent="CRhrbVuDPds4Fwr4ml6l-1" vertex="1">
          <mxGeometry x="1271" y="115" width="40" height="20" as="geometry" />
        </mxCell>
        <mxCell id="bdmsMYAKaE6dXH0Tw1gz-59" value="t30 is larger than the setup value, so season starts" style="text;html=1;strokeColor=none;fillColor=none;align=center;verticalAlign=middle;whiteSpace=wrap;rounded=0;" parent="CRhrbVuDPds4Fwr4ml6l-1" vertex="1">
          <mxGeometry x="850" y="40" width="120" height="20" as="geometry" />
        </mxCell>
        <mxCell id="bdmsMYAKaE6dXH0Tw1gz-60" style="edgeStyle=orthogonalEdgeStyle;rounded=0;orthogonalLoop=1;jettySize=auto;html=1;exitX=1;exitY=0.5;exitDx=0;exitDy=0;entryX=0;entryY=0.5;entryDx=0;entryDy=0;" parent="CRhrbVuDPds4Fwr4ml6l-1" source="bdmsMYAKaE6dXH0Tw1gz-62" target="bdmsMYAKaE6dXH0Tw1gz-65" edge="1">
          <mxGeometry relative="1" as="geometry" />
        </mxCell>
        <mxCell id="bdmsMYAKaE6dXH0Tw1gz-61" style="edgeStyle=orthogonalEdgeStyle;rounded=0;orthogonalLoop=1;jettySize=auto;html=1;exitX=0.5;exitY=1;exitDx=0;exitDy=0;entryX=0.5;entryY=0;entryDx=0;entryDy=0;" parent="CRhrbVuDPds4Fwr4ml6l-1" source="bdmsMYAKaE6dXH0Tw1gz-62" target="bdmsMYAKaE6dXH0Tw1gz-80" edge="1">
          <mxGeometry relative="1" as="geometry">
            <mxPoint x="1245" y="150" as="targetPoint" />
          </mxGeometry>
        </mxCell>
        <mxCell id="bdmsMYAKaE6dXH0Tw1gz-62" value="foo.longterm_pl &amp;gt; 0 and foo_day.doy &amp;lt; (foo.longterm_pl - gs_limit)" style="rhombus;whiteSpace=wrap;html=1;" parent="CRhrbVuDPds4Fwr4ml6l-1" vertex="1">
          <mxGeometry x="1124" y="60" width="242.25" height="50" as="geometry" />
        </mxCell>
        <mxCell id="bdmsMYAKaE6dXH0Tw1gz-63" value="But when the day is too earlier than the historical record, don&#39;t make season started" style="text;html=1;strokeColor=none;fillColor=none;align=center;verticalAlign=middle;whiteSpace=wrap;rounded=0;" parent="CRhrbVuDPds4Fwr4ml6l-1" vertex="1">
          <mxGeometry x="1280" y="20" width="120" height="20" as="geometry" />
        </mxCell>
        <mxCell id="bdmsMYAKaE6dXH0Tw1gz-64" style="edgeStyle=orthogonalEdgeStyle;rounded=0;orthogonalLoop=1;jettySize=auto;html=1;entryX=0.5;entryY=0;entryDx=0;entryDy=0;" parent="CRhrbVuDPds4Fwr4ml6l-1" source="bdmsMYAKaE6dXH0Tw1gz-65" target="bdmsMYAKaE6dXH0Tw1gz-68" edge="1">
          <mxGeometry relative="1" as="geometry" />
        </mxCell>
        <mxCell id="bdmsMYAKaE6dXH0Tw1gz-65" value="foo.real_start = False" style="rounded=0;whiteSpace=wrap;html=1;" parent="CRhrbVuDPds4Fwr4ml6l-1" vertex="1">
          <mxGeometry x="1430" y="70" width="160" height="30" as="geometry" />
        </mxCell>
        <mxCell id="bdmsMYAKaE6dXH0Tw1gz-66" style="edgeStyle=orthogonalEdgeStyle;rounded=0;orthogonalLoop=1;jettySize=auto;html=1;exitX=0;exitY=0.5;exitDx=0;exitDy=0;entryX=1;entryY=0.5;entryDx=0;entryDy=0;" parent="CRhrbVuDPds4Fwr4ml6l-1" source="bdmsMYAKaE6dXH0Tw1gz-68" target="bdmsMYAKaE6dXH0Tw1gz-72" edge="1">
          <mxGeometry relative="1" as="geometry" />
        </mxCell>
        <mxCell id="bdmsMYAKaE6dXH0Tw1gz-67" style="edgeStyle=orthogonalEdgeStyle;rounded=0;orthogonalLoop=1;jettySize=auto;html=1;exitX=0.5;exitY=1;exitDx=0;exitDy=0;entryX=0.5;entryY=0;entryDx=0;entryDy=0;" parent="CRhrbVuDPds4Fwr4ml6l-1" source="bdmsMYAKaE6dXH0Tw1gz-68" target="bdmsMYAKaE6dXH0Tw1gz-70" edge="1">
          <mxGeometry relative="1" as="geometry" />
        </mxCell>
        <mxCell id="bdmsMYAKaE6dXH0Tw1gz-68" value="data.gs_limit_flag" style="rhombus;whiteSpace=wrap;html=1;" parent="CRhrbVuDPds4Fwr4ml6l-1" vertex="1">
          <mxGeometry x="1640" y="140" width="171.12" height="30" as="geometry" />
        </mxCell>
        <mxCell id="bdmsMYAKaE6dXH0Tw1gz-69" style="edgeStyle=orthogonalEdgeStyle;rounded=0;orthogonalLoop=1;jettySize=auto;html=1;entryX=1;entryY=0.5;entryDx=0;entryDy=0;" parent="CRhrbVuDPds4Fwr4ml6l-1" source="bdmsMYAKaE6dXH0Tw1gz-70" target="bdmsMYAKaE6dXH0Tw1gz-76" edge="1">
          <mxGeometry relative="1" as="geometry" />
        </mxCell>
        <mxCell id="bdmsMYAKaE6dXH0Tw1gz-70" value="foo.doy_start_cycle = foo.longterm_pl - 40" style="rounded=0;whiteSpace=wrap;html=1;" parent="CRhrbVuDPds4Fwr4ml6l-1" vertex="1">
          <mxGeometry x="1645.56" y="200" width="160" height="30" as="geometry" />
        </mxCell>
        <mxCell id="bdmsMYAKaE6dXH0Tw1gz-71" style="edgeStyle=orthogonalEdgeStyle;rounded=0;orthogonalLoop=1;jettySize=auto;html=1;entryX=0.5;entryY=0;entryDx=0;entryDy=0;" parent="CRhrbVuDPds4Fwr4ml6l-1" source="bdmsMYAKaE6dXH0Tw1gz-72" target="bdmsMYAKaE6dXH0Tw1gz-76" edge="1">
          <mxGeometry relative="1" as="geometry" />
        </mxCell>
        <mxCell id="bdmsMYAKaE6dXH0Tw1gz-72" value="foo.doy_start_cycle = 1" style="rounded=0;whiteSpace=wrap;html=1;" parent="CRhrbVuDPds4Fwr4ml6l-1" vertex="1">
          <mxGeometry x="1425.56" y="140" width="160" height="30" as="geometry" />
        </mxCell>
        <mxCell id="bdmsMYAKaE6dXH0Tw1gz-73" value="Yes" style="text;html=1;strokeColor=none;fillColor=none;align=center;verticalAlign=middle;whiteSpace=wrap;rounded=0;" parent="CRhrbVuDPds4Fwr4ml6l-1" vertex="1">
          <mxGeometry x="1675.56" y="170" width="40" height="20" as="geometry" />
        </mxCell>
        <mxCell id="bdmsMYAKaE6dXH0Tw1gz-74" value="No" style="text;html=1;strokeColor=none;fillColor=none;align=center;verticalAlign=middle;whiteSpace=wrap;rounded=0;" parent="CRhrbVuDPds4Fwr4ml6l-1" vertex="1">
          <mxGeometry x="1605.56" y="130" width="40" height="20" as="geometry" />
        </mxCell>
        <mxCell id="bdmsMYAKaE6dXH0Tw1gz-75" style="edgeStyle=orthogonalEdgeStyle;rounded=0;orthogonalLoop=1;jettySize=auto;html=1;entryX=0.5;entryY=0;entryDx=0;entryDy=0;" parent="CRhrbVuDPds4Fwr4ml6l-1" source="bdmsMYAKaE6dXH0Tw1gz-76" target="bdmsMYAKaE6dXH0Tw1gz-77" edge="1">
          <mxGeometry relative="1" as="geometry" />
        </mxCell>
        <mxCell id="bdmsMYAKaE6dXH0Tw1gz-76" value="foo.doy_start_cycle &amp;lt; 1" style="rhombus;whiteSpace=wrap;html=1;" parent="CRhrbVuDPds4Fwr4ml6l-1" vertex="1">
          <mxGeometry x="1420" y="200" width="171.12" height="30" as="geometry" />
        </mxCell>
        <mxCell id="bdmsMYAKaE6dXH0Tw1gz-77" value="foo.doy_start_cycle += 365" style="rounded=0;whiteSpace=wrap;html=1;" parent="CRhrbVuDPds4Fwr4ml6l-1" vertex="1">
          <mxGeometry x="1425.56" y="260" width="160" height="30" as="geometry" />
        </mxCell>
        <mxCell id="bdmsMYAKaE6dXH0Tw1gz-78" value="No" style="text;html=1;strokeColor=none;fillColor=none;align=center;verticalAlign=middle;whiteSpace=wrap;rounded=0;" parent="CRhrbVuDPds4Fwr4ml6l-1" vertex="1">
          <mxGeometry x="1196" y="110" width="40" height="20" as="geometry" />
        </mxCell>
        <mxCell id="bdmsMYAKaE6dXH0Tw1gz-79" value="Yes" style="text;html=1;strokeColor=none;fillColor=none;align=center;verticalAlign=middle;whiteSpace=wrap;rounded=0;" parent="CRhrbVuDPds4Fwr4ml6l-1" vertex="1">
          <mxGeometry x="1385.56" y="60" width="40" height="20" as="geometry" />
        </mxCell>
        <mxCell id="bdmsMYAKaE6dXH0Tw1gz-80" value="&lt;div&gt;foo.doy_start_cycle = foo_day.doy&lt;/div&gt;&lt;div&gt;&lt;span&gt;foo.real_start = True&lt;/span&gt;&lt;/div&gt;" style="rounded=0;whiteSpace=wrap;html=1;" parent="CRhrbVuDPds4Fwr4ml6l-1" vertex="1">
          <mxGeometry x="1152.56" y="140" width="185.13" height="30" as="geometry" />
        </mxCell>
        <mxCell id="bdmsMYAKaE6dXH0Tw1gz-81" value="season start" style="text;html=1;strokeColor=none;fillColor=none;align=center;verticalAlign=middle;whiteSpace=wrap;rounded=0;" parent="CRhrbVuDPds4Fwr4ml6l-1" vertex="1">
          <mxGeometry x="1271" y="115" width="40" height="20" as="geometry" />
        </mxCell>
        <mxCell id="bdmsMYAKaE6dXH0Tw1gz-82" value="t30 is larger than the setup value, so season starts" style="text;html=1;strokeColor=none;fillColor=none;align=center;verticalAlign=middle;whiteSpace=wrap;rounded=0;" parent="CRhrbVuDPds4Fwr4ml6l-1" vertex="1">
          <mxGeometry x="850" y="40" width="120" height="20" as="geometry" />
        </mxCell>
        <mxCell id="bdmsMYAKaE6dXH0Tw1gz-87" style="edgeStyle=orthogonalEdgeStyle;rounded=0;orthogonalLoop=1;jettySize=auto;html=1;" parent="CRhrbVuDPds4Fwr4ml6l-1" source="bdmsMYAKaE6dXH0Tw1gz-83" target="bdmsMYAKaE6dXH0Tw1gz-86" edge="1">
          <mxGeometry relative="1" as="geometry" />
        </mxCell>
        <mxCell id="bdmsMYAKaE6dXH0Tw1gz-83" value="foo_day.doy == foo.doy_start_cycle" style="rhombus;whiteSpace=wrap;html=1;" parent="CRhrbVuDPds4Fwr4ml6l-1" vertex="1">
          <mxGeometry x="981.5" y="180" width="165" height="30" as="geometry" />
        </mxCell>
        <mxCell id="bdmsMYAKaE6dXH0Tw1gz-85" value="same means no mul;ti-cycle" style="text;html=1;strokeColor=none;fillColor=none;align=center;verticalAlign=middle;whiteSpace=wrap;rounded=0;" parent="CRhrbVuDPds4Fwr4ml6l-1" vertex="1">
          <mxGeometry x="950" y="150" width="120" height="20" as="geometry" />
        </mxCell>
        <mxCell id="bdmsMYAKaE6dXH0Tw1gz-86" value="&lt;div&gt;foo.real_start = True&lt;/div&gt;&lt;div&gt;&lt;span&gt;foo.in_season = True&lt;/span&gt;&lt;/div&gt;&lt;div&gt;&lt;span&gt;foo.stress_event = False&lt;/span&gt;&lt;/div&gt;&lt;div&gt;&lt;span&gt;foo.dormant_setup_flag = True&lt;/span&gt;&lt;/div&gt;&lt;div&gt;&lt;span&gt;foo.setup_crop(crop)&lt;/span&gt;&lt;/div&gt;&lt;div&gt;&lt;span&gt;foo.cycle = 1&lt;/span&gt;&lt;/div&gt;" style="rounded=0;whiteSpace=wrap;html=1;" parent="CRhrbVuDPds4Fwr4ml6l-1" vertex="1">
          <mxGeometry x="969" y="240" width="190" height="95" as="geometry" />
        </mxCell>
        <mxCell id="h2uMA3ctCdztWpDhM_Fx-7" style="edgeStyle=orthogonalEdgeStyle;rounded=0;orthogonalLoop=1;jettySize=auto;html=1;" edge="1" parent="CRhrbVuDPds4Fwr4ml6l-1" source="h2uMA3ctCdztWpDhM_Fx-0" target="h2uMA3ctCdztWpDhM_Fx-6">
          <mxGeometry relative="1" as="geometry" />
        </mxCell>
        <mxCell id="h2uMA3ctCdztWpDhM_Fx-0" value="crop.class_number &amp;lt; 4 or (crop.class_number &amp;gt; 3 and crop.curve_name.upper() == &quot;ALFALFA 1ST CYCLE&quot;)" style="rhombus;whiteSpace=wrap;html=1;" vertex="1" parent="CRhrbVuDPds4Fwr4ml6l-1">
          <mxGeometry x="1660" y="1870" width="220" height="110" as="geometry" />
        </mxCell>
        <mxCell id="h2uMA3ctCdztWpDhM_Fx-5" value="ALFALFA would be cut in its cycles" style="text;html=1;strokeColor=none;fillColor=none;align=center;verticalAlign=middle;whiteSpace=wrap;rounded=0;" vertex="1" parent="CRhrbVuDPds4Fwr4ml6l-1">
          <mxGeometry x="1460" y="1960" width="80" height="20" as="geometry" />
        </mxCell>
        <mxCell id="h2uMA3ctCdztWpDhM_Fx-8" style="edgeStyle=orthogonalEdgeStyle;rounded=0;orthogonalLoop=1;jettySize=auto;html=1;exitX=0.5;exitY=1;exitDx=0;exitDy=0;entryX=0.5;entryY=0;entryDx=0;entryDy=0;" edge="1" parent="CRhrbVuDPds4Fwr4ml6l-1" source="h2uMA3ctCdztWpDhM_Fx-6" target="h2uMA3ctCdztWpDhM_Fx-9">
          <mxGeometry relative="1" as="geometry">
            <mxPoint x="1770" y="2190" as="targetPoint" />
          </mxGeometry>
        </mxCell>
        <mxCell id="h2uMA3ctCdztWpDhM_Fx-13" style="edgeStyle=orthogonalEdgeStyle;rounded=0;orthogonalLoop=1;jettySize=auto;html=1;exitX=1;exitY=0.5;exitDx=0;exitDy=0;entryX=1;entryY=0.5;entryDx=0;entryDy=0;" edge="1" parent="CRhrbVuDPds4Fwr4ml6l-1" source="h2uMA3ctCdztWpDhM_Fx-6" target="h2uMA3ctCdztWpDhM_Fx-12">
          <mxGeometry relative="1" as="geometry" />
        </mxCell>
        <mxCell id="h2uMA3ctCdztWpDhM_Fx-6" value="foo_day.doy &amp;gt; (crop.gdd_trigger_doy + 211)" style="rhombus;whiteSpace=wrap;html=1;" vertex="1" parent="CRhrbVuDPds4Fwr4ml6l-1">
          <mxGeometry x="1680.5" y="2000" width="179" height="80" as="geometry" />
        </mxCell>
        <mxCell id="h2uMA3ctCdztWpDhM_Fx-10" style="edgeStyle=orthogonalEdgeStyle;rounded=0;orthogonalLoop=1;jettySize=auto;html=1;exitX=0.5;exitY=1;exitDx=0;exitDy=0;entryX=0.5;entryY=0;entryDx=0;entryDy=0;" edge="1" parent="CRhrbVuDPds4Fwr4ml6l-1" source="h2uMA3ctCdztWpDhM_Fx-9" target="h2uMA3ctCdztWpDhM_Fx-11">
          <mxGeometry relative="1" as="geometry">
            <mxPoint x="1770" y="2300" as="targetPoint" />
          </mxGeometry>
        </mxCell>
        <mxCell id="h2uMA3ctCdztWpDhM_Fx-9" value="foo_day.tmin &amp;lt; -3 and foo.T2Days &amp;lt; 1" style="rhombus;whiteSpace=wrap;html=1;" vertex="1" parent="CRhrbVuDPds4Fwr4ml6l-1">
          <mxGeometry x="1680.5" y="2110" width="179" height="80" as="geometry" />
        </mxCell>
        <mxCell id="h2uMA3ctCdztWpDhM_Fx-17" style="edgeStyle=orthogonalEdgeStyle;rounded=0;orthogonalLoop=1;jettySize=auto;html=1;exitX=0;exitY=0.5;exitDx=0;exitDy=0;entryX=1;entryY=0.5;entryDx=0;entryDy=0;" edge="1" parent="CRhrbVuDPds4Fwr4ml6l-1" source="h2uMA3ctCdztWpDhM_Fx-11" target="h2uMA3ctCdztWpDhM_Fx-16">
          <mxGeometry relative="1" as="geometry" />
        </mxCell>
        <mxCell id="h2uMA3ctCdztWpDhM_Fx-11" value="foo.T2Days = 1" style="rounded=0;whiteSpace=wrap;html=1;" vertex="1" parent="CRhrbVuDPds4Fwr4ml6l-1">
          <mxGeometry x="1710" y="2210" width="120" height="30" as="geometry" />
        </mxCell>
        <mxCell id="h2uMA3ctCdztWpDhM_Fx-18" style="edgeStyle=orthogonalEdgeStyle;rounded=0;orthogonalLoop=1;jettySize=auto;html=1;exitX=0;exitY=0.5;exitDx=0;exitDy=0;entryX=1;entryY=0.5;entryDx=0;entryDy=0;" edge="1" parent="CRhrbVuDPds4Fwr4ml6l-1" source="h2uMA3ctCdztWpDhM_Fx-12" target="h2uMA3ctCdztWpDhM_Fx-16">
          <mxGeometry relative="1" as="geometry">
            <mxPoint x="1660" y="2260" as="targetPoint" />
          </mxGeometry>
        </mxCell>
        <mxCell id="h2uMA3ctCdztWpDhM_Fx-12" value="foo.T2Days = 0" style="rounded=0;whiteSpace=wrap;html=1;" vertex="1" parent="CRhrbVuDPds4Fwr4ml6l-1">
          <mxGeometry x="1710" y="2270" width="120" height="30" as="geometry" />
        </mxCell>
        <mxCell id="h2uMA3ctCdztWpDhM_Fx-14" value="Yes" style="text;html=1;strokeColor=none;fillColor=none;align=center;verticalAlign=middle;whiteSpace=wrap;rounded=0;" vertex="1" parent="CRhrbVuDPds4Fwr4ml6l-1">
          <mxGeometry x="1785" y="2090" width="40" height="20" as="geometry" />
        </mxCell>
        <mxCell id="h2uMA3ctCdztWpDhM_Fx-15" value="No" style="text;html=1;strokeColor=none;fillColor=none;align=center;verticalAlign=middle;whiteSpace=wrap;rounded=0;" vertex="1" parent="CRhrbVuDPds4Fwr4ml6l-1">
          <mxGeometry x="1830" y="2010" width="40" height="20" as="geometry" />
        </mxCell>
        <mxCell id="h2uMA3ctCdztWpDhM_Fx-19" style="edgeStyle=orthogonalEdgeStyle;rounded=0;orthogonalLoop=1;jettySize=auto;html=1;entryX=1;entryY=0.5;entryDx=0;entryDy=0;" edge="1" parent="CRhrbVuDPds4Fwr4ml6l-1" source="h2uMA3ctCdztWpDhM_Fx-16" target="h2uMA3ctCdztWpDhM_Fx-20">
          <mxGeometry relative="1" as="geometry">
            <mxPoint x="1500" y="2260" as="targetPoint" />
          </mxGeometry>
        </mxCell>
        <mxCell id="h2uMA3ctCdztWpDhM_Fx-16" value="foo.T2Days &amp;gt; 0" style="rhombus;whiteSpace=wrap;html=1;" vertex="1" parent="CRhrbVuDPds4Fwr4ml6l-1">
          <mxGeometry x="1554" y="2240" width="100" height="40" as="geometry" />
        </mxCell>
        <mxCell id="h2uMA3ctCdztWpDhM_Fx-20" value="&lt;div&gt;foo.kc_bas -= foo.T2Days * 0.005&amp;nbsp;&lt;/div&gt;&lt;div&gt;&amp;nbsp; if foo.kc_bas &amp;lt; 0.1:&lt;span&gt;&amp;nbsp; &amp;nbsp; &amp;nbsp; &amp;nbsp; &amp;nbsp;foo.kc_bas = 0.1&lt;/span&gt;&lt;/div&gt;&lt;div&gt;&lt;span&gt;foo.T2Days += 1&lt;/span&gt;&lt;/div&gt;" style="rounded=0;whiteSpace=wrap;html=1;" vertex="1" parent="CRhrbVuDPds4Fwr4ml6l-1">
          <mxGeometry x="1365" y="2220" width="120" height="80" as="geometry" />
        </mxCell>
        <mxCell id="h2uMA3ctCdztWpDhM_Fx-24" style="edgeStyle=orthogonalEdgeStyle;rounded=0;orthogonalLoop=1;jettySize=auto;html=1;exitX=0.5;exitY=1;exitDx=0;exitDy=0;entryX=0.5;entryY=0;entryDx=0;entryDy=0;" edge="1" parent="CRhrbVuDPds4Fwr4ml6l-1" source="h2uMA3ctCdztWpDhM_Fx-21" target="h2uMA3ctCdztWpDhM_Fx-23">
          <mxGeometry relative="1" as="geometry" />
        </mxCell>
        <mxCell id="h2uMA3ctCdztWpDhM_Fx-21" value="day_of_pl_or_gu = int(round((crop.date_of_pl_or_gu - month_of_pl_or_gu) * 30.4))" style="rounded=0;whiteSpace=wrap;html=1;" vertex="1" parent="CRhrbVuDPds4Fwr4ml6l-1">
          <mxGeometry x="930" y="600" width="194" height="40" as="geometry" />
        </mxCell>
        <mxCell id="h2uMA3ctCdztWpDhM_Fx-22" value="month and day are float data, so transform them to real month and day values" style="text;html=1;strokeColor=none;fillColor=none;align=center;verticalAlign=middle;whiteSpace=wrap;rounded=0;" vertex="1" parent="CRhrbVuDPds4Fwr4ml6l-1">
          <mxGeometry x="850" y="565" width="100" height="20" as="geometry" />
        </mxCell>
        <mxCell id="h2uMA3ctCdztWpDhM_Fx-26" style="edgeStyle=orthogonalEdgeStyle;rounded=0;orthogonalLoop=1;jettySize=auto;html=1;exitX=1;exitY=0.5;exitDx=0;exitDy=0;entryX=0;entryY=0.5;entryDx=0;entryDy=0;" edge="1" parent="CRhrbVuDPds4Fwr4ml6l-1" source="h2uMA3ctCdztWpDhM_Fx-23" target="h2uMA3ctCdztWpDhM_Fx-27">
          <mxGeometry relative="1" as="geometry">
            <mxPoint x="1330" y="575" as="targetPoint" />
          </mxGeometry>
        </mxCell>
        <mxCell id="h2uMA3ctCdztWpDhM_Fx-23" value="doy = datetime.datetime(foo_day.year, month_of_pl_or_gu, day_of_pl_or_gu).timetuple().tm_yday" style="rounded=0;whiteSpace=wrap;html=1;" vertex="1" parent="CRhrbVuDPds4Fwr4ml6l-1">
          <mxGeometry x="862" y="660" width="330" height="40" as="geometry" />
        </mxCell>
        <mxCell id="h2uMA3ctCdztWpDhM_Fx-29" style="edgeStyle=orthogonalEdgeStyle;rounded=0;orthogonalLoop=1;jettySize=auto;html=1;exitX=0.5;exitY=1;exitDx=0;exitDy=0;entryX=0.5;entryY=0;entryDx=0;entryDy=0;" edge="1" parent="CRhrbVuDPds4Fwr4ml6l-1" source="h2uMA3ctCdztWpDhM_Fx-27" target="h2uMA3ctCdztWpDhM_Fx-28">
          <mxGeometry relative="1" as="geometry" />
        </mxCell>
        <mxCell id="h2uMA3ctCdztWpDhM_Fx-27" value="foo_day.doy == doy or (foo_day.sdays == 1 and doy &amp;gt;= crop.gdd_trigger_doy)" style="rhombus;whiteSpace=wrap;html=1;" vertex="1" parent="CRhrbVuDPds4Fwr4ml6l-1">
          <mxGeometry x="1305" y="532.5" width="295" height="55" as="geometry" />
        </mxCell>
        <mxCell id="h2uMA3ctCdztWpDhM_Fx-30" style="edgeStyle=orthogonalEdgeStyle;rounded=0;orthogonalLoop=1;jettySize=auto;html=1;exitX=0.5;exitY=1;exitDx=0;exitDy=0;entryX=0.5;entryY=0;entryDx=0;entryDy=0;" edge="1" parent="CRhrbVuDPds4Fwr4ml6l-1" source="h2uMA3ctCdztWpDhM_Fx-28" target="uxG9XuIDkPyieKWziKzy-37">
          <mxGeometry relative="1" as="geometry" />
        </mxCell>
        <mxCell id="h2uMA3ctCdztWpDhM_Fx-28" value="&lt;div&gt;foo.doy_start_cycle = doy&lt;/div&gt;&lt;div&gt;&amp;nbsp; &amp;nbsp; &amp;nbsp; &amp;nbsp; &amp;nbsp; &amp;nbsp; foo.in_season = True&lt;/div&gt;&lt;div&gt;&amp;nbsp; &amp;nbsp; &amp;nbsp; &amp;nbsp; &amp;nbsp; &amp;nbsp; foo.dormant_setup_flag = True&lt;/div&gt;&lt;div&gt;foo.setup_crop(crop)&lt;br&gt;&lt;/div&gt;" style="rounded=0;whiteSpace=wrap;html=1;" vertex="1" parent="CRhrbVuDPds4Fwr4ml6l-1">
          <mxGeometry x="1347" y="600" width="211" height="60" as="geometry" />
        </mxCell>
      </root>
    </mxGraphModel>
  </diagram>
  <diagram id="7Fn1PFhnjhEyBYRRvgVO" name="Ke_Ks-flow-chart">
    <mxGraphModel dx="700" dy="748" grid="1" gridSize="10" guides="1" tooltips="1" connect="1" arrows="1" fold="1" page="1" pageScale="1" pageWidth="827" pageHeight="1169" math="0" shadow="0">
      <root>
        <mxCell id="Qi1-2nXYAf3nwpn-80gz-0" />
        <mxCell id="Qi1-2nXYAf3nwpn-80gz-1" parent="Qi1-2nXYAf3nwpn-80gz-0" />
        <mxCell id="QE8eMnG4QD323Wp_kNUV-2" style="edgeStyle=orthogonalEdgeStyle;rounded=0;orthogonalLoop=1;jettySize=auto;html=1;entryX=0.5;entryY=0;entryDx=0;entryDy=0;" parent="Qi1-2nXYAf3nwpn-80gz-1" source="QE8eMnG4QD323Wp_kNUV-0" target="QE8eMnG4QD323Wp_kNUV-1" edge="1">
          <mxGeometry relative="1" as="geometry" />
        </mxCell>
        <mxCell id="QE8eMnG4QD323Wp_kNUV-0" value="Start" style="rounded=1;whiteSpace=wrap;html=1;" parent="Qi1-2nXYAf3nwpn-80gz-1" vertex="1">
          <mxGeometry x="226" y="100" width="85" height="40" as="geometry" />
        </mxCell>
        <mxCell id="qQGm6dY4CESI2tMiQDDC-3" style="edgeStyle=orthogonalEdgeStyle;rounded=0;orthogonalLoop=1;jettySize=auto;html=1;entryX=0.5;entryY=0;entryDx=0;entryDy=0;" parent="Qi1-2nXYAf3nwpn-80gz-1" source="QE8eMnG4QD323Wp_kNUV-1" target="qQGm6dY4CESI2tMiQDDC-2" edge="1">
          <mxGeometry relative="1" as="geometry" />
        </mxCell>
        <mxCell id="QE8eMnG4QD323Wp_kNUV-1" value="&lt;div&gt;kc_max = ((0.04 * (foo_day.u2 - 2) - 0.004 * (foo_day.rh_min - 45)) *&lt;/div&gt;&lt;div&gt;&amp;nbsp; &amp;nbsp; &amp;nbsp; &amp;nbsp; &amp;nbsp; &amp;nbsp; &amp;nbsp; &amp;nbsp; &amp;nbsp; (foo.height / 3) ** 0.3)&lt;/div&gt;" style="rounded=0;whiteSpace=wrap;html=1;" parent="Qi1-2nXYAf3nwpn-80gz-1" vertex="1">
          <mxGeometry x="140" y="200" width="257" height="60" as="geometry" />
        </mxCell>
        <mxCell id="qQGm6dY4CESI2tMiQDDC-0" value="Kc max is a maximum&amp;nbsp; value which Kcb+Ke cannot exceed&amp;nbsp;" style="text;html=1;strokeColor=none;fillColor=none;align=center;verticalAlign=middle;whiteSpace=wrap;rounded=0;" parent="Qi1-2nXYAf3nwpn-80gz-1" vertex="1">
          <mxGeometry x="40" y="170" width="210" height="20" as="geometry" />
        </mxCell>
        <mxCell id="qQGm6dY4CESI2tMiQDDC-1" value="The calculation procedure consists in :&lt;br&gt;determining:the upper limit Kc max;&lt;br&gt;the soil evaporation reduction coefficient Kr; &lt;br&gt;and the exposed and wetted soil fraction few" style="text;whiteSpace=wrap;html=1;" parent="Qi1-2nXYAf3nwpn-80gz-1" vertex="1">
          <mxGeometry x="40" y="10" width="290" height="70" as="geometry" />
        </mxCell>
        <mxCell id="qQGm6dY4CESI2tMiQDDC-7" style="edgeStyle=orthogonalEdgeStyle;rounded=0;orthogonalLoop=1;jettySize=auto;html=1;" parent="Qi1-2nXYAf3nwpn-80gz-1" source="qQGm6dY4CESI2tMiQDDC-2" target="qQGm6dY4CESI2tMiQDDC-6" edge="1">
          <mxGeometry relative="1" as="geometry" />
        </mxCell>
        <mxCell id="qQGm6dY4CESI2tMiQDDC-2" value="wscc = crop.winter_surface_cover_class" style="rounded=0;whiteSpace=wrap;html=1;" parent="Qi1-2nXYAf3nwpn-80gz-1" vertex="1">
          <mxGeometry x="140" y="300" width="257" height="50" as="geometry" />
        </mxCell>
        <mxCell id="qQGm6dY4CESI2tMiQDDC-5" value="wscc = 1 bare, 2 mulch, 3 sod&amp;nbsp; is the winter surface cover class" style="text;html=1;strokeColor=none;fillColor=none;align=center;verticalAlign=middle;whiteSpace=wrap;rounded=0;" parent="Qi1-2nXYAf3nwpn-80gz-1" vertex="1">
          <mxGeometry x="40" y="270" width="210" height="20" as="geometry" />
        </mxCell>
        <mxCell id="qQGm6dY4CESI2tMiQDDC-12" style="edgeStyle=orthogonalEdgeStyle;rounded=0;orthogonalLoop=1;jettySize=auto;html=1;exitX=0;exitY=0.5;exitDx=0;exitDy=0;entryX=0;entryY=0.5;entryDx=0;entryDy=0;" parent="Qi1-2nXYAf3nwpn-80gz-1" source="qQGm6dY4CESI2tMiQDDC-6" target="qQGm6dY4CESI2tMiQDDC-8" edge="1">
          <mxGeometry relative="1" as="geometry">
            <Array as="points">
              <mxPoint x="90" y="403" />
              <mxPoint x="90" y="585" />
            </Array>
          </mxGeometry>
        </mxCell>
        <mxCell id="kIkY15YluSQhJc9agwNJ-22" style="edgeStyle=orthogonalEdgeStyle;rounded=0;orthogonalLoop=1;jettySize=auto;html=1;entryX=0.5;entryY=0;entryDx=0;entryDy=0;" edge="1" parent="Qi1-2nXYAf3nwpn-80gz-1" source="qQGm6dY4CESI2tMiQDDC-6" target="kIkY15YluSQhJc9agwNJ-21">
          <mxGeometry relative="1" as="geometry" />
        </mxCell>
        <mxCell id="qQGm6dY4CESI2tMiQDDC-6" value="is_winter(et_cell, foo_day)" style="rhombus;whiteSpace=wrap;html=1;" parent="Qi1-2nXYAf3nwpn-80gz-1" vertex="1">
          <mxGeometry x="168.5" y="373" width="200" height="37" as="geometry" />
        </mxCell>
        <mxCell id="qQGm6dY4CESI2tMiQDDC-14" style="edgeStyle=orthogonalEdgeStyle;rounded=0;orthogonalLoop=1;jettySize=auto;html=1;exitX=0.5;exitY=1;exitDx=0;exitDy=0;entryX=0.5;entryY=0;entryDx=0;entryDy=0;" parent="Qi1-2nXYAf3nwpn-80gz-1" source="qQGm6dY4CESI2tMiQDDC-8" target="kIkY15YluSQhJc9agwNJ-46" edge="1">
          <mxGeometry relative="1" as="geometry" />
        </mxCell>
        <mxCell id="qQGm6dY4CESI2tMiQDDC-8" value="&lt;div&gt;not foo.in_season and&lt;/div&gt;&lt;div&gt;&amp;nbsp; &amp;nbsp; &amp;nbsp; &amp;nbsp; &amp;nbsp; &amp;nbsp; (crop.class_number &amp;lt; 55 or crop.class_number &amp;gt; 57)&lt;/div&gt;" style="rhombus;whiteSpace=wrap;html=1;" parent="Qi1-2nXYAf3nwpn-80gz-1" vertex="1">
          <mxGeometry x="168.5" y="555" width="200" height="60" as="geometry" />
        </mxCell>
        <mxCell id="qQGm6dY4CESI2tMiQDDC-17" style="edgeStyle=orthogonalEdgeStyle;rounded=0;orthogonalLoop=1;jettySize=auto;html=1;" parent="Qi1-2nXYAf3nwpn-80gz-1" source="qQGm6dY4CESI2tMiQDDC-13" target="qQGm6dY4CESI2tMiQDDC-15" edge="1">
          <mxGeometry relative="1" as="geometry" />
        </mxCell>
        <mxCell id="qQGm6dY4CESI2tMiQDDC-13" value="kc_max = max(kc_max, foo.kc_bas + 0.05)" style="rounded=0;whiteSpace=wrap;html=1;" parent="Qi1-2nXYAf3nwpn-80gz-1" vertex="1">
          <mxGeometry x="140.01" y="700" width="257" height="30" as="geometry" />
        </mxCell>
        <mxCell id="qQGm6dY4CESI2tMiQDDC-18" style="edgeStyle=orthogonalEdgeStyle;rounded=0;orthogonalLoop=1;jettySize=auto;html=1;entryX=0.5;entryY=0;entryDx=0;entryDy=0;" parent="Qi1-2nXYAf3nwpn-80gz-1" source="qQGm6dY4CESI2tMiQDDC-15" target="qQGm6dY4CESI2tMiQDDC-16" edge="1">
          <mxGeometry relative="1" as="geometry" />
        </mxCell>
        <mxCell id="qQGm6dY4CESI2tMiQDDC-15" value="crop.class_number not in [44, 45, 46]" style="rhombus;whiteSpace=wrap;html=1;" parent="Qi1-2nXYAf3nwpn-80gz-1" vertex="1">
          <mxGeometry x="157.75" y="760" width="221.5" height="60" as="geometry" />
        </mxCell>
        <mxCell id="qQGm6dY4CESI2tMiQDDC-22" style="edgeStyle=orthogonalEdgeStyle;rounded=0;orthogonalLoop=1;jettySize=auto;html=1;exitX=0.5;exitY=1;exitDx=0;exitDy=0;entryX=0.5;entryY=0;entryDx=0;entryDy=0;" parent="Qi1-2nXYAf3nwpn-80gz-1" source="qQGm6dY4CESI2tMiQDDC-16" target="qQGm6dY4CESI2tMiQDDC-21" edge="1">
          <mxGeometry relative="1" as="geometry" />
        </mxCell>
        <mxCell id="qQGm6dY4CESI2tMiQDDC-16" value="&lt;div&gt;foo.fc = ((foo.kc_bas - foo.kc_min) / (kc_max - foo.kc_min)) ** (1 + 0.5 * foo.height)&lt;/div&gt;" style="rounded=0;whiteSpace=wrap;html=1;" parent="Qi1-2nXYAf3nwpn-80gz-1" vertex="1">
          <mxGeometry x="140" y="860" width="257" height="50" as="geometry" />
        </mxCell>
        <mxCell id="qQGm6dY4CESI2tMiQDDC-19" value="fc is the average fraction of soil surface covered by vegetation" style="text;html=1;strokeColor=none;fillColor=none;align=center;verticalAlign=middle;whiteSpace=wrap;rounded=0;" parent="Qi1-2nXYAf3nwpn-80gz-1" vertex="1">
          <mxGeometry x="40" y="830" width="210" height="20" as="geometry" />
        </mxCell>
        <mxCell id="qQGm6dY4CESI2tMiQDDC-20" value="the minimum Kc for dry bare soil with no ground cover [≈ 0.15 - 0.20]," style="text;html=1;strokeColor=none;fillColor=none;align=center;verticalAlign=middle;whiteSpace=wrap;rounded=0;" parent="Qi1-2nXYAf3nwpn-80gz-1" vertex="1">
          <mxGeometry x="280" y="830" width="210" height="20" as="geometry" />
        </mxCell>
        <mxCell id="qQGm6dY4CESI2tMiQDDC-28" style="edgeStyle=orthogonalEdgeStyle;rounded=0;orthogonalLoop=1;jettySize=auto;html=1;" parent="Qi1-2nXYAf3nwpn-80gz-1" source="qQGm6dY4CESI2tMiQDDC-21" target="qQGm6dY4CESI2tMiQDDC-23" edge="1">
          <mxGeometry relative="1" as="geometry" />
        </mxCell>
        <mxCell id="qQGm6dY4CESI2tMiQDDC-34" style="edgeStyle=orthogonalEdgeStyle;rounded=0;orthogonalLoop=1;jettySize=auto;html=1;exitX=1;exitY=0.5;exitDx=0;exitDy=0;entryX=0;entryY=0.5;entryDx=0;entryDy=0;" parent="Qi1-2nXYAf3nwpn-80gz-1" source="qQGm6dY4CESI2tMiQDDC-21" target="VaUpHCQTHM-zQnUBE-7E-23" edge="1">
          <mxGeometry relative="1" as="geometry">
            <mxPoint x="565.3800000000001" y="970" as="targetPoint" />
            <Array as="points">
              <mxPoint x="30" y="970" />
              <mxPoint x="30" y="1315" />
            </Array>
          </mxGeometry>
        </mxCell>
        <mxCell id="qQGm6dY4CESI2tMiQDDC-21" value="foo_day.precip &amp;gt; 0" style="rhombus;whiteSpace=wrap;html=1;" parent="Qi1-2nXYAf3nwpn-80gz-1" vertex="1">
          <mxGeometry x="188.88" y="950" width="159.25" height="40" as="geometry" />
        </mxCell>
        <mxCell id="qQGm6dY4CESI2tMiQDDC-29" style="edgeStyle=orthogonalEdgeStyle;rounded=0;orthogonalLoop=1;jettySize=auto;html=1;exitX=0.5;exitY=1;exitDx=0;exitDy=0;entryX=0.5;entryY=0;entryDx=0;entryDy=0;" parent="Qi1-2nXYAf3nwpn-80gz-1" source="qQGm6dY4CESI2tMiQDDC-23" target="qQGm6dY4CESI2tMiQDDC-25" edge="1">
          <mxGeometry relative="1" as="geometry" />
        </mxCell>
        <mxCell id="qQGm6dY4CESI2tMiQDDC-23" value="&lt;div&gt;foo.depl_surface = foo.wt_irr * foo.depl_ze + (1 - foo.wt_irr) * foo.depl_zep&lt;/div&gt;" style="rounded=0;whiteSpace=wrap;html=1;" parent="Qi1-2nXYAf3nwpn-80gz-1" vertex="1">
          <mxGeometry x="58.51" y="1040" width="420" height="30" as="geometry" />
        </mxCell>
        <mxCell id="qQGm6dY4CESI2tMiQDDC-30" style="edgeStyle=orthogonalEdgeStyle;rounded=0;orthogonalLoop=1;jettySize=auto;html=1;exitX=0.5;exitY=1;exitDx=0;exitDy=0;entryX=0.5;entryY=0;entryDx=0;entryDy=0;" parent="Qi1-2nXYAf3nwpn-80gz-1" source="qQGm6dY4CESI2tMiQDDC-25" target="qQGm6dY4CESI2tMiQDDC-27" edge="1">
          <mxGeometry relative="1" as="geometry" />
        </mxCell>
        <mxCell id="qQGm6dY4CESI2tMiQDDC-25" value="&lt;div&gt;&amp;nbsp;runoff.runoff(foo, foo_day, debug_flag)&lt;/div&gt;" style="rounded=0;whiteSpace=wrap;html=1;" parent="Qi1-2nXYAf3nwpn-80gz-1" vertex="1">
          <mxGeometry x="153.5" y="1119" width="230" height="31" as="geometry" />
        </mxCell>
        <mxCell id="VaUpHCQTHM-zQnUBE-7E-24" style="edgeStyle=orthogonalEdgeStyle;rounded=0;orthogonalLoop=1;jettySize=auto;html=1;exitX=0.5;exitY=1;exitDx=0;exitDy=0;entryX=0.5;entryY=0;entryDx=0;entryDy=0;" parent="Qi1-2nXYAf3nwpn-80gz-1" source="qQGm6dY4CESI2tMiQDDC-27" target="VaUpHCQTHM-zQnUBE-7E-23" edge="1">
          <mxGeometry relative="1" as="geometry" />
        </mxCell>
        <mxCell id="qQGm6dY4CESI2tMiQDDC-27" value="&lt;div&gt;foo.ppt_inf = foo_day.precip - foo.sro&lt;/div&gt;" style="rounded=0;whiteSpace=wrap;html=1;" parent="Qi1-2nXYAf3nwpn-80gz-1" vertex="1">
          <mxGeometry x="153.5" y="1210" width="230" height="31" as="geometry" />
        </mxCell>
        <mxCell id="qQGm6dY4CESI2tMiQDDC-45" style="edgeStyle=orthogonalEdgeStyle;rounded=0;orthogonalLoop=1;jettySize=auto;html=1;exitX=0.5;exitY=1;exitDx=0;exitDy=0;entryX=0.5;entryY=0;entryDx=0;entryDy=0;" parent="Qi1-2nXYAf3nwpn-80gz-1" source="qQGm6dY4CESI2tMiQDDC-31" target="qQGm6dY4CESI2tMiQDDC-44" edge="1">
          <mxGeometry relative="1" as="geometry" />
        </mxCell>
        <mxCell id="qQGm6dY4CESI2tMiQDDC-31" value="&lt;div&gt;watin_ze = foo.tew - foo.depl_ze&lt;/div&gt;" style="rounded=0;whiteSpace=wrap;html=1;" parent="Qi1-2nXYAf3nwpn-80gz-1" vertex="1">
          <mxGeometry x="1040" y="934.5" width="130" height="31" as="geometry" />
        </mxCell>
        <mxCell id="qQGm6dY4CESI2tMiQDDC-38" value="fw is average fraction of soil surface wetted by irrigation or precipitation [0.01 - 1]." style="text;html=1;strokeColor=none;fillColor=none;align=center;verticalAlign=middle;whiteSpace=wrap;rounded=0;" parent="Qi1-2nXYAf3nwpn-80gz-1" vertex="1">
          <mxGeometry x="348.13" y="1591" width="210" height="20" as="geometry" />
        </mxCell>
        <mxCell id="qQGm6dY4CESI2tMiQDDC-40" value="tew is&amp;nbsp;total evaporable water = maximum depth of water that can be evaporated from the soil when the topsoil has been initially completely wetted" style="text;html=1;strokeColor=none;fillColor=none;align=center;verticalAlign=middle;whiteSpace=wrap;rounded=0;" parent="Qi1-2nXYAf3nwpn-80gz-1" vertex="1">
          <mxGeometry x="910" y="880" width="250.01" height="20" as="geometry" />
        </mxCell>
        <mxCell id="qQGm6dY4CESI2tMiQDDC-42" value="depl_ze:(10 mm) at start of new crop at beginning of time" style="text;html=1;strokeColor=none;fillColor=none;align=center;verticalAlign=middle;whiteSpace=wrap;rounded=0;" parent="Qi1-2nXYAf3nwpn-80gz-1" vertex="1">
          <mxGeometry x="1170" y="934.5" width="170" height="20" as="geometry" />
        </mxCell>
        <mxCell id="qQGm6dY4CESI2tMiQDDC-48" style="edgeStyle=orthogonalEdgeStyle;rounded=0;orthogonalLoop=1;jettySize=auto;html=1;entryX=0.5;entryY=0;entryDx=0;entryDy=0;" parent="Qi1-2nXYAf3nwpn-80gz-1" source="qQGm6dY4CESI2tMiQDDC-44" target="qQGm6dY4CESI2tMiQDDC-47" edge="1">
          <mxGeometry relative="1" as="geometry" />
        </mxCell>
        <mxCell id="qQGm6dY4CESI2tMiQDDC-44" value="&lt;div&gt;watin_zep = foo.tew - foo.depl_zep&lt;/div&gt;" style="rounded=0;whiteSpace=wrap;html=1;" parent="Qi1-2nXYAf3nwpn-80gz-1" vertex="1">
          <mxGeometry x="1040" y="1019" width="130" height="31" as="geometry" />
        </mxCell>
        <mxCell id="qQGm6dY4CESI2tMiQDDC-46" value="Here FAO56 2005 extension method was used. Here watin were calculated for W (weighting coefficientss for patitioning the energy available for evaporation into f_{ewi} and f_{ewp} soil fractions)" style="text;html=1;strokeColor=none;fillColor=none;align=center;verticalAlign=middle;whiteSpace=wrap;rounded=0;" parent="Qi1-2nXYAf3nwpn-80gz-1" vertex="1">
          <mxGeometry x="1170" y="1019" width="170" height="20" as="geometry" />
        </mxCell>
        <mxCell id="qQGm6dY4CESI2tMiQDDC-50" style="edgeStyle=orthogonalEdgeStyle;rounded=0;orthogonalLoop=1;jettySize=auto;html=1;entryX=0.5;entryY=0;entryDx=0;entryDy=0;" parent="Qi1-2nXYAf3nwpn-80gz-1" source="qQGm6dY4CESI2tMiQDDC-47" target="qQGm6dY4CESI2tMiQDDC-51" edge="1">
          <mxGeometry relative="1" as="geometry">
            <mxPoint x="1105" y="1180" as="targetPoint" />
          </mxGeometry>
        </mxCell>
        <mxCell id="qQGm6dY4CESI2tMiQDDC-47" value="&lt;div&gt;few = 1 - foo.fc&lt;/div&gt;&lt;div&gt;fewp = 1 - foo.fc - few&lt;br&gt;&lt;/div&gt;" style="rounded=0;whiteSpace=wrap;html=1;" parent="Qi1-2nXYAf3nwpn-80gz-1" vertex="1">
          <mxGeometry x="1040" y="1110" width="130" height="31" as="geometry" />
        </mxCell>
        <mxCell id="qQGm6dY4CESI2tMiQDDC-49" value="although it is a 3-stage formula, the process order of the varaibles are almost same" style="text;html=1;strokeColor=none;fillColor=none;align=center;verticalAlign=middle;whiteSpace=wrap;rounded=0;" parent="Qi1-2nXYAf3nwpn-80gz-1" vertex="1">
          <mxGeometry x="1170" y="1121" width="170" height="20" as="geometry" />
        </mxCell>
        <mxCell id="qQGm6dY4CESI2tMiQDDC-53" style="edgeStyle=orthogonalEdgeStyle;rounded=0;orthogonalLoop=1;jettySize=auto;html=1;exitX=0.5;exitY=1;exitDx=0;exitDy=0;entryX=0.5;entryY=0;entryDx=0;entryDy=0;" parent="Qi1-2nXYAf3nwpn-80gz-1" source="qQGm6dY4CESI2tMiQDDC-51" target="qQGm6dY4CESI2tMiQDDC-52" edge="1">
          <mxGeometry relative="1" as="geometry" />
        </mxCell>
        <mxCell id="qQGm6dY4CESI2tMiQDDC-51" value="Calculate&amp;nbsp;DP_e" style="rounded=0;whiteSpace=wrap;html=1;" parent="Qi1-2nXYAf3nwpn-80gz-1" vertex="1">
          <mxGeometry x="1040" y="1180" width="130" height="31" as="geometry" />
        </mxCell>
        <mxCell id="qQGm6dY4CESI2tMiQDDC-56" style="edgeStyle=orthogonalEdgeStyle;rounded=0;orthogonalLoop=1;jettySize=auto;html=1;entryX=0.5;entryY=0;entryDx=0;entryDy=0;" parent="Qi1-2nXYAf3nwpn-80gz-1" source="qQGm6dY4CESI2tMiQDDC-52" target="qQGm6dY4CESI2tMiQDDC-54" edge="1">
          <mxGeometry relative="1" as="geometry" />
        </mxCell>
        <mxCell id="qQGm6dY4CESI2tMiQDDC-52" value="Calculate Kr" style="rounded=0;whiteSpace=wrap;html=1;" parent="Qi1-2nXYAf3nwpn-80gz-1" vertex="1">
          <mxGeometry x="1040" y="1249" width="130" height="31" as="geometry" />
        </mxCell>
        <mxCell id="qQGm6dY4CESI2tMiQDDC-58" style="edgeStyle=orthogonalEdgeStyle;rounded=0;orthogonalLoop=1;jettySize=auto;html=1;exitX=0.5;exitY=1;exitDx=0;exitDy=0;entryX=0.5;entryY=0;entryDx=0;entryDy=0;" parent="Qi1-2nXYAf3nwpn-80gz-1" source="qQGm6dY4CESI2tMiQDDC-54" target="qQGm6dY4CESI2tMiQDDC-57" edge="1">
          <mxGeometry relative="1" as="geometry" />
        </mxCell>
        <mxCell id="qQGm6dY4CESI2tMiQDDC-54" value="Calculate Ke" style="rounded=0;whiteSpace=wrap;html=1;" parent="Qi1-2nXYAf3nwpn-80gz-1" vertex="1">
          <mxGeometry x="1040" y="1310" width="130" height="31" as="geometry" />
        </mxCell>
        <mxCell id="qQGm6dY4CESI2tMiQDDC-62" style="edgeStyle=orthogonalEdgeStyle;rounded=0;orthogonalLoop=1;jettySize=auto;html=1;exitX=0.5;exitY=1;exitDx=0;exitDy=0;entryX=0.5;entryY=0;entryDx=0;entryDy=0;" parent="Qi1-2nXYAf3nwpn-80gz-1" source="qQGm6dY4CESI2tMiQDDC-57" target="qQGm6dY4CESI2tMiQDDC-61" edge="1">
          <mxGeometry relative="1" as="geometry" />
        </mxCell>
        <mxCell id="qQGm6dY4CESI2tMiQDDC-57" value="taw = foo.aw * foo.zr" style="rounded=0;whiteSpace=wrap;html=1;" parent="Qi1-2nXYAf3nwpn-80gz-1" vertex="1">
          <mxGeometry x="1040" y="1420" width="130" height="31" as="geometry" />
        </mxCell>
        <mxCell id="qQGm6dY4CESI2tMiQDDC-59" value="TAW is the total available water,which is diff between field capacity and wilting point" style="text;html=1;strokeColor=none;fillColor=none;align=center;verticalAlign=middle;whiteSpace=wrap;rounded=0;" parent="Qi1-2nXYAf3nwpn-80gz-1" vertex="1">
          <mxGeometry x="860" y="1425.5" width="170" height="20" as="geometry" />
        </mxCell>
        <mxCell id="qQGm6dY4CESI2tMiQDDC-60" value="AW is calculated according to soil capacity from STATSGO&lt;br&gt;zr is the rooting depth. its initial value is zr_min, then use&amp;nbsp;grow_root function to simulate its development" style="text;html=1;strokeColor=none;fillColor=none;align=center;verticalAlign=middle;whiteSpace=wrap;rounded=0;" parent="Qi1-2nXYAf3nwpn-80gz-1" vertex="1">
          <mxGeometry x="1190" y="1425.5" width="170" height="20" as="geometry" />
        </mxCell>
        <mxCell id="VaUpHCQTHM-zQnUBE-7E-4" style="edgeStyle=orthogonalEdgeStyle;rounded=0;orthogonalLoop=1;jettySize=auto;html=1;exitX=0.5;exitY=1;exitDx=0;exitDy=0;entryX=0.5;entryY=0;entryDx=0;entryDy=0;" parent="Qi1-2nXYAf3nwpn-80gz-1" source="qQGm6dY4CESI2tMiQDDC-61" target="VaUpHCQTHM-zQnUBE-7E-3" edge="1">
          <mxGeometry relative="1" as="geometry" />
        </mxCell>
        <mxCell id="qQGm6dY4CESI2tMiQDDC-61" value="raw = foo.mad * taw / 100" style="rounded=0;whiteSpace=wrap;html=1;" parent="Qi1-2nXYAf3nwpn-80gz-1" vertex="1">
          <mxGeometry x="1020" y="1500" width="170" height="31" as="geometry" />
        </mxCell>
        <mxCell id="VaUpHCQTHM-zQnUBE-7E-0" value="raw is&amp;nbsp;Soil Water that can be depleted from the root zone before moisture stress" style="text;html=1;strokeColor=none;fillColor=none;align=center;verticalAlign=middle;whiteSpace=wrap;rounded=0;" parent="Qi1-2nXYAf3nwpn-80gz-1" vertex="1">
          <mxGeometry x="840" y="1505.5" width="170" height="20" as="geometry" />
        </mxCell>
        <mxCell id="VaUpHCQTHM-zQnUBE-7E-1" value="mad is set during Kcb calculation, when crop is in gu or pl stage, it is mad_ini, when in mid season, it is mad_mid. both values are reset." style="text;html=1;strokeColor=none;fillColor=none;align=center;verticalAlign=middle;whiteSpace=wrap;rounded=0;" parent="Qi1-2nXYAf3nwpn-80gz-1" vertex="1">
          <mxGeometry x="1200" y="1511" width="170" height="20" as="geometry" />
        </mxCell>
        <mxCell id="VaUpHCQTHM-zQnUBE-7E-7" style="edgeStyle=orthogonalEdgeStyle;rounded=0;orthogonalLoop=1;jettySize=auto;html=1;exitX=0.5;exitY=1;exitDx=0;exitDy=0;entryX=0.5;entryY=0;entryDx=0;entryDy=0;" parent="Qi1-2nXYAf3nwpn-80gz-1" source="VaUpHCQTHM-zQnUBE-7E-3" target="VaUpHCQTHM-zQnUBE-7E-6" edge="1">
          <mxGeometry relative="1" as="geometry" />
        </mxCell>
        <mxCell id="VaUpHCQTHM-zQnUBE-7E-3" value="ks = max((taw - foo.depl_root) / (taw - raw), 0)" style="rounded=0;whiteSpace=wrap;html=1;" parent="Qi1-2nXYAf3nwpn-80gz-1" vertex="1">
          <mxGeometry x="1020" y="1580" width="170" height="31" as="geometry" />
        </mxCell>
        <mxCell id="VaUpHCQTHM-zQnUBE-7E-5" value="depl_root&amp;nbsp; is calculated by anotther soil water balance different from the one for Ke.&lt;br&gt;Notice: it is different from dperc_ze" style="text;html=1;strokeColor=none;fillColor=none;align=center;verticalAlign=middle;whiteSpace=wrap;rounded=0;" parent="Qi1-2nXYAf3nwpn-80gz-1" vertex="1">
          <mxGeometry x="840" y="1591" width="170" height="20" as="geometry" />
        </mxCell>
        <mxCell id="VaUpHCQTHM-zQnUBE-7E-9" style="edgeStyle=orthogonalEdgeStyle;rounded=0;orthogonalLoop=1;jettySize=auto;html=1;exitX=0.5;exitY=1;exitDx=0;exitDy=0;entryX=0.5;entryY=0;entryDx=0;entryDy=0;" parent="Qi1-2nXYAf3nwpn-80gz-1" source="VaUpHCQTHM-zQnUBE-7E-6" target="VaUpHCQTHM-zQnUBE-7E-8" edge="1">
          <mxGeometry relative="1" as="geometry" />
        </mxCell>
        <mxCell id="VaUpHCQTHM-zQnUBE-7E-12" style="edgeStyle=orthogonalEdgeStyle;rounded=0;orthogonalLoop=1;jettySize=auto;html=1;entryX=0;entryY=0.5;entryDx=0;entryDy=0;" parent="Qi1-2nXYAf3nwpn-80gz-1" source="VaUpHCQTHM-zQnUBE-7E-6" target="VaUpHCQTHM-zQnUBE-7E-10" edge="1">
          <mxGeometry relative="1" as="geometry">
            <mxPoint x="1330" y="1845" as="targetPoint" />
            <Array as="points">
              <mxPoint x="910" y="1680" />
              <mxPoint x="910" y="1845" />
            </Array>
          </mxGeometry>
        </mxCell>
        <mxCell id="VaUpHCQTHM-zQnUBE-7E-6" value="foo_day.snow_depth &amp;gt; 0.01" style="rhombus;whiteSpace=wrap;html=1;" parent="Qi1-2nXYAf3nwpn-80gz-1" vertex="1">
          <mxGeometry x="1025.38" y="1660" width="159.25" height="40" as="geometry" />
        </mxCell>
        <mxCell id="VaUpHCQTHM-zQnUBE-7E-11" style="edgeStyle=orthogonalEdgeStyle;rounded=0;orthogonalLoop=1;jettySize=auto;html=1;exitX=0.5;exitY=1;exitDx=0;exitDy=0;entryX=0.5;entryY=0;entryDx=0;entryDy=0;" parent="Qi1-2nXYAf3nwpn-80gz-1" source="VaUpHCQTHM-zQnUBE-7E-8" target="VaUpHCQTHM-zQnUBE-7E-10" edge="1">
          <mxGeometry relative="1" as="geometry" />
        </mxCell>
        <mxCell id="VaUpHCQTHM-zQnUBE-7E-8" value="fix the snow cover issue" style="rounded=0;whiteSpace=wrap;html=1;" parent="Qi1-2nXYAf3nwpn-80gz-1" vertex="1">
          <mxGeometry x="1020" y="1746" width="170" height="31" as="geometry" />
        </mxCell>
        <mxCell id="VaUpHCQTHM-zQnUBE-7E-15" style="edgeStyle=orthogonalEdgeStyle;rounded=0;orthogonalLoop=1;jettySize=auto;html=1;exitX=0.5;exitY=1;exitDx=0;exitDy=0;entryX=0.5;entryY=0;entryDx=0;entryDy=0;" parent="Qi1-2nXYAf3nwpn-80gz-1" source="VaUpHCQTHM-zQnUBE-7E-10" target="VaUpHCQTHM-zQnUBE-7E-13" edge="1">
          <mxGeometry relative="1" as="geometry" />
        </mxCell>
        <mxCell id="VaUpHCQTHM-zQnUBE-7E-10" value="&lt;div&gt;&amp;nbsp; &amp;nbsp; foo.etc_act = foo.kc_act * foo_day.etref&lt;/div&gt;&lt;div&gt;&amp;nbsp; &amp;nbsp; foo.etc_pot = foo.kc_pot * foo_day.etref&lt;/div&gt;&lt;div&gt;&amp;nbsp; &amp;nbsp; foo.etc_bas = foo.kc_bas * foo_day.etref&lt;/div&gt;" style="rounded=0;whiteSpace=wrap;html=1;" parent="Qi1-2nXYAf3nwpn-80gz-1" vertex="1">
          <mxGeometry x="960.01" y="1820" width="290" height="50" as="geometry" />
        </mxCell>
        <mxCell id="VaUpHCQTHM-zQnUBE-7E-17" style="edgeStyle=orthogonalEdgeStyle;rounded=0;orthogonalLoop=1;jettySize=auto;html=1;entryX=0.5;entryY=0;entryDx=0;entryDy=0;" parent="Qi1-2nXYAf3nwpn-80gz-1" source="VaUpHCQTHM-zQnUBE-7E-13" target="VaUpHCQTHM-zQnUBE-7E-16" edge="1">
          <mxGeometry relative="1" as="geometry" />
        </mxCell>
        <mxCell id="VaUpHCQTHM-zQnUBE-7E-13" value="&lt;div&gt;Ke water balance should be calculated for D_{ep,j} and D_{e,j} separately&lt;/div&gt;&lt;div&gt;and remember the transpiration from Surface layer&lt;/div&gt;" style="rounded=0;whiteSpace=wrap;html=1;" parent="Qi1-2nXYAf3nwpn-80gz-1" vertex="1">
          <mxGeometry x="960.01" y="1930" width="290" height="50" as="geometry" />
        </mxCell>
        <mxCell id="VaUpHCQTHM-zQnUBE-7E-14" value="Here start to calculate the two soil water balance" style="text;html=1;strokeColor=none;fillColor=none;align=center;verticalAlign=middle;whiteSpace=wrap;rounded=0;" parent="Qi1-2nXYAf3nwpn-80gz-1" vertex="1">
          <mxGeometry x="1130" y="1890" width="170" height="20" as="geometry" />
        </mxCell>
        <mxCell id="VaUpHCQTHM-zQnUBE-7E-19" style="edgeStyle=orthogonalEdgeStyle;rounded=0;orthogonalLoop=1;jettySize=auto;html=1;entryX=0.5;entryY=0;entryDx=0;entryDy=0;" parent="Qi1-2nXYAf3nwpn-80gz-1" source="VaUpHCQTHM-zQnUBE-7E-16" target="VaUpHCQTHM-zQnUBE-7E-18" edge="1">
          <mxGeometry relative="1" as="geometry" />
        </mxCell>
        <mxCell id="VaUpHCQTHM-zQnUBE-7E-16" value="&lt;div&gt;Ks water balance&lt;/div&gt;" style="rounded=0;whiteSpace=wrap;html=1;" parent="Qi1-2nXYAf3nwpn-80gz-1" vertex="1">
          <mxGeometry x="960.01" y="2010" width="290" height="60" as="geometry" />
        </mxCell>
        <mxCell id="VaUpHCQTHM-zQnUBE-7E-21" style="edgeStyle=orthogonalEdgeStyle;rounded=0;orthogonalLoop=1;jettySize=auto;html=1;entryX=0.5;entryY=0;entryDx=0;entryDy=0;" parent="Qi1-2nXYAf3nwpn-80gz-1" source="VaUpHCQTHM-zQnUBE-7E-18" target="VaUpHCQTHM-zQnUBE-7E-20" edge="1">
          <mxGeometry relative="1" as="geometry" />
        </mxCell>
        <mxCell id="VaUpHCQTHM-zQnUBE-7E-18" value="crop.invoke_stress &amp;gt; 0.5 and foo.depl_root &amp;gt; taw" style="rhombus;whiteSpace=wrap;html=1;" parent="Qi1-2nXYAf3nwpn-80gz-1" vertex="1">
          <mxGeometry x="997.7" y="2120" width="214.62" height="60" as="geometry" />
        </mxCell>
        <mxCell id="VaUpHCQTHM-zQnUBE-7E-20" value="&lt;div&gt;what are daw3 and taw3???&lt;/div&gt;" style="rounded=0;whiteSpace=wrap;html=1;" parent="Qi1-2nXYAf3nwpn-80gz-1" vertex="1">
          <mxGeometry x="960.01" y="2220" width="290" height="60" as="geometry" />
        </mxCell>
        <mxCell id="VaUpHCQTHM-zQnUBE-7E-22" value="layer3 means the zone between present root zone and max root zone" style="text;html=1;strokeColor=none;fillColor=none;align=center;verticalAlign=middle;whiteSpace=wrap;rounded=0;" parent="Qi1-2nXYAf3nwpn-80gz-1" vertex="1">
          <mxGeometry x="900" y="2184" width="170" height="20" as="geometry" />
        </mxCell>
        <mxCell id="VaUpHCQTHM-zQnUBE-7E-26" style="edgeStyle=orthogonalEdgeStyle;rounded=0;orthogonalLoop=1;jettySize=auto;html=1;exitX=0.5;exitY=1;exitDx=0;exitDy=0;entryX=0.5;entryY=0;entryDx=0;entryDy=0;" parent="Qi1-2nXYAf3nwpn-80gz-1" source="VaUpHCQTHM-zQnUBE-7E-23" target="VaUpHCQTHM-zQnUBE-7E-27" edge="1">
          <mxGeometry relative="1" as="geometry">
            <mxPoint x="130" y="1490" as="targetPoint" />
          </mxGeometry>
        </mxCell>
        <mxCell id="VaUpHCQTHM-zQnUBE-7E-34" style="edgeStyle=orthogonalEdgeStyle;rounded=0;orthogonalLoop=1;jettySize=auto;html=1;exitX=1;exitY=0.5;exitDx=0;exitDy=0;entryX=0;entryY=0.5;entryDx=0;entryDy=0;" parent="Qi1-2nXYAf3nwpn-80gz-1" source="VaUpHCQTHM-zQnUBE-7E-23" target="qQGm6dY4CESI2tMiQDDC-31" edge="1">
          <mxGeometry relative="1" as="geometry" />
        </mxCell>
        <mxCell id="VaUpHCQTHM-zQnUBE-7E-23" value="&lt;div&gt;irr_real = 0.0&lt;/div&gt;&lt;div&gt;&amp;nbsp; &amp;nbsp; irr_manual = 0.0&lt;/div&gt;&lt;div&gt;&amp;nbsp; &amp;nbsp; irr_special = 0.0&lt;/div&gt;" style="rounded=0;whiteSpace=wrap;html=1;" parent="Qi1-2nXYAf3nwpn-80gz-1" vertex="1">
          <mxGeometry x="206.76" y="1290" width="123.51" height="50" as="geometry" />
        </mxCell>
        <mxCell id="VaUpHCQTHM-zQnUBE-7E-25" value="Here, irrigation depth, i.e. Irr is based on yesterday&#39;s irrigations, which means it hasn&#39;t been updated.&lt;br&gt;Note: irrigation scheduling is assumed automated according to MAD.&lt;br&gt;Although irr_manual and irr_special are initialized, they are not used now.&lt;br&gt;irr_real is a real irrigation and read from files, so I would not use it either." style="text;html=1;strokeColor=none;fillColor=none;align=center;verticalAlign=middle;whiteSpace=wrap;rounded=0;" parent="Qi1-2nXYAf3nwpn-80gz-1" vertex="1">
          <mxGeometry x="330.27" y="1380" width="210" height="20" as="geometry" />
        </mxCell>
        <mxCell id="VaUpHCQTHM-zQnUBE-7E-30" style="edgeStyle=orthogonalEdgeStyle;rounded=0;orthogonalLoop=1;jettySize=auto;html=1;exitX=0.5;exitY=1;exitDx=0;exitDy=0;entryX=0.5;entryY=0;entryDx=0;entryDy=0;" parent="Qi1-2nXYAf3nwpn-80gz-1" source="VaUpHCQTHM-zQnUBE-7E-27" target="VaUpHCQTHM-zQnUBE-7E-29" edge="1">
          <mxGeometry relative="1" as="geometry" />
        </mxCell>
        <mxCell id="VaUpHCQTHM-zQnUBE-7E-27" value="(irr_real + foo.irr_auto) &amp;gt; 0" style="rhombus;whiteSpace=wrap;html=1;" parent="Qi1-2nXYAf3nwpn-80gz-1" vertex="1">
          <mxGeometry x="183" y="1451" width="171" height="64" as="geometry" />
        </mxCell>
        <mxCell id="VaUpHCQTHM-zQnUBE-7E-33" style="edgeStyle=orthogonalEdgeStyle;rounded=0;orthogonalLoop=1;jettySize=auto;html=1;exitX=1;exitY=0.5;exitDx=0;exitDy=0;entryX=0;entryY=0.5;entryDx=0;entryDy=0;" parent="Qi1-2nXYAf3nwpn-80gz-1" source="VaUpHCQTHM-zQnUBE-7E-29" target="qQGm6dY4CESI2tMiQDDC-31" edge="1">
          <mxGeometry relative="1" as="geometry" />
        </mxCell>
        <mxCell id="VaUpHCQTHM-zQnUBE-7E-29" value="foo.fw_irr = foo.fw_std" style="rounded=0;whiteSpace=wrap;html=1;" parent="Qi1-2nXYAf3nwpn-80gz-1" vertex="1">
          <mxGeometry x="198.51" y="1552" width="140" height="39" as="geometry" />
        </mxCell>
        <mxCell id="kIkY15YluSQhJc9agwNJ-7" style="edgeStyle=orthogonalEdgeStyle;rounded=0;orthogonalLoop=1;jettySize=auto;html=1;exitX=0.554;exitY=0.973;exitDx=0;exitDy=0;entryX=1;entryY=0.5;entryDx=0;entryDy=0;exitPerimeter=0;" edge="1" parent="Qi1-2nXYAf3nwpn-80gz-1" source="kIkY15YluSQhJc9agwNJ-43" target="qQGm6dY4CESI2tMiQDDC-8">
          <mxGeometry relative="1" as="geometry">
            <mxPoint x="390" y="540" as="sourcePoint" />
          </mxGeometry>
        </mxCell>
        <mxCell id="kIkY15YluSQhJc9agwNJ-11" style="edgeStyle=orthogonalEdgeStyle;rounded=0;orthogonalLoop=1;jettySize=auto;html=1;exitX=0.5;exitY=1;exitDx=0;exitDy=0;entryX=0.5;entryY=0;entryDx=0;entryDy=0;" edge="1" parent="Qi1-2nXYAf3nwpn-80gz-1" source="kIkY15YluSQhJc9agwNJ-13" target="kIkY15YluSQhJc9agwNJ-14">
          <mxGeometry relative="1" as="geometry" />
        </mxCell>
        <mxCell id="kIkY15YluSQhJc9agwNJ-12" style="edgeStyle=orthogonalEdgeStyle;rounded=0;orthogonalLoop=1;jettySize=auto;html=1;exitX=1;exitY=0.5;exitDx=0;exitDy=0;entryX=0.5;entryY=0;entryDx=0;entryDy=0;" edge="1" parent="Qi1-2nXYAf3nwpn-80gz-1" source="kIkY15YluSQhJc9agwNJ-13" target="kIkY15YluSQhJc9agwNJ-17">
          <mxGeometry relative="1" as="geometry" />
        </mxCell>
        <mxCell id="kIkY15YluSQhJc9agwNJ-13" value="et_cell.latitude &amp;gt; 0 and (foo_day.month &amp;lt; 4 or foo_day.month &amp;gt; 10)" style="rhombus;whiteSpace=wrap;html=1;" vertex="1" parent="Qi1-2nXYAf3nwpn-80gz-1">
          <mxGeometry x="470" y="96.5" width="190" height="45" as="geometry" />
        </mxCell>
        <mxCell id="kIkY15YluSQhJc9agwNJ-14" value="True" style="rounded=0;whiteSpace=wrap;html=1;" vertex="1" parent="Qi1-2nXYAf3nwpn-80gz-1">
          <mxGeometry x="538.5" y="163.5" width="53" height="20" as="geometry" />
        </mxCell>
        <mxCell id="kIkY15YluSQhJc9agwNJ-15" value="Yes" style="text;html=1;strokeColor=none;fillColor=none;align=center;verticalAlign=middle;whiteSpace=wrap;rounded=0;" vertex="1" parent="Qi1-2nXYAf3nwpn-80gz-1">
          <mxGeometry x="495.5" y="153.5" width="40" height="20" as="geometry" />
        </mxCell>
        <mxCell id="kIkY15YluSQhJc9agwNJ-16" value="No" style="text;html=1;strokeColor=none;fillColor=none;align=center;verticalAlign=middle;whiteSpace=wrap;rounded=0;" vertex="1" parent="Qi1-2nXYAf3nwpn-80gz-1">
          <mxGeometry x="635.75" y="133.5" width="40" height="20" as="geometry" />
        </mxCell>
        <mxCell id="kIkY15YluSQhJc9agwNJ-17" value="False" style="rounded=0;whiteSpace=wrap;html=1;" vertex="1" parent="Qi1-2nXYAf3nwpn-80gz-1">
          <mxGeometry x="660" y="163.5" width="53" height="20" as="geometry" />
        </mxCell>
        <mxCell id="kIkY15YluSQhJc9agwNJ-18" value="northern hemisphere and 10-4 months" style="text;html=1;strokeColor=none;fillColor=none;align=center;verticalAlign=middle;whiteSpace=wrap;rounded=0;" vertex="1" parent="Qi1-2nXYAf3nwpn-80gz-1">
          <mxGeometry x="616.64" y="76.5" width="129.73" height="20" as="geometry" />
        </mxCell>
        <mxCell id="kIkY15YluSQhJc9agwNJ-19" value="is_winter:" style="text;html=1;strokeColor=none;fillColor=none;align=center;verticalAlign=middle;whiteSpace=wrap;rounded=0;fontStyle=1" vertex="1" parent="Qi1-2nXYAf3nwpn-80gz-1">
          <mxGeometry x="488.13" y="56.5" width="71.87" height="30" as="geometry" />
        </mxCell>
        <mxCell id="kIkY15YluSQhJc9agwNJ-27" style="edgeStyle=orthogonalEdgeStyle;rounded=0;orthogonalLoop=1;jettySize=auto;html=1;exitX=1;exitY=0.5;exitDx=0;exitDy=0;entryX=0;entryY=0.5;entryDx=0;entryDy=0;" edge="1" parent="Qi1-2nXYAf3nwpn-80gz-1" source="kIkY15YluSQhJc9agwNJ-21" target="kIkY15YluSQhJc9agwNJ-24">
          <mxGeometry relative="1" as="geometry" />
        </mxCell>
        <mxCell id="kIkY15YluSQhJc9agwNJ-28" style="edgeStyle=orthogonalEdgeStyle;rounded=0;orthogonalLoop=1;jettySize=auto;html=1;exitX=1;exitY=0.5;exitDx=0;exitDy=0;entryX=0;entryY=0.5;entryDx=0;entryDy=0;" edge="1" parent="Qi1-2nXYAf3nwpn-80gz-1" source="kIkY15YluSQhJc9agwNJ-21" target="kIkY15YluSQhJc9agwNJ-25">
          <mxGeometry relative="1" as="geometry" />
        </mxCell>
        <mxCell id="kIkY15YluSQhJc9agwNJ-29" style="edgeStyle=orthogonalEdgeStyle;rounded=0;orthogonalLoop=1;jettySize=auto;html=1;exitX=1;exitY=0.5;exitDx=0;exitDy=0;entryX=0;entryY=0.5;entryDx=0;entryDy=0;" edge="1" parent="Qi1-2nXYAf3nwpn-80gz-1" source="kIkY15YluSQhJc9agwNJ-21" target="kIkY15YluSQhJc9agwNJ-26">
          <mxGeometry relative="1" as="geometry" />
        </mxCell>
        <mxCell id="kIkY15YluSQhJc9agwNJ-44" style="edgeStyle=orthogonalEdgeStyle;rounded=0;orthogonalLoop=1;jettySize=auto;html=1;exitX=1;exitY=0.5;exitDx=0;exitDy=0;entryX=0;entryY=0.5;entryDx=0;entryDy=0;" edge="1" parent="Qi1-2nXYAf3nwpn-80gz-1" source="kIkY15YluSQhJc9agwNJ-21" target="kIkY15YluSQhJc9agwNJ-43">
          <mxGeometry relative="1" as="geometry" />
        </mxCell>
        <mxCell id="kIkY15YluSQhJc9agwNJ-21" value="crop.class_number not in [44, 45, 46]" style="rhombus;whiteSpace=wrap;html=1;" vertex="1" parent="Qi1-2nXYAf3nwpn-80gz-1">
          <mxGeometry x="147.76" y="440" width="241.5" height="43" as="geometry" />
        </mxCell>
        <mxCell id="kIkY15YluSQhJc9agwNJ-45" style="edgeStyle=orthogonalEdgeStyle;rounded=0;orthogonalLoop=1;jettySize=auto;html=1;exitX=1;exitY=0.25;exitDx=0;exitDy=0;entryX=1;entryY=0.5;entryDx=0;entryDy=0;" edge="1" parent="Qi1-2nXYAf3nwpn-80gz-1" source="kIkY15YluSQhJc9agwNJ-23" target="qQGm6dY4CESI2tMiQDDC-8">
          <mxGeometry relative="1" as="geometry">
            <mxPoint x="590" y="640" as="targetPoint" />
            <Array as="points">
              <mxPoint x="970" y="387" />
              <mxPoint x="970" y="585" />
            </Array>
          </mxGeometry>
        </mxCell>
        <mxCell id="kIkY15YluSQhJc9agwNJ-23" value="different Kc_max values" style="rounded=0;whiteSpace=wrap;html=1;" vertex="1" parent="Qi1-2nXYAf3nwpn-80gz-1">
          <mxGeometry x="810" y="381.5" width="140" height="20" as="geometry" />
        </mxCell>
        <mxCell id="kIkY15YluSQhJc9agwNJ-33" style="edgeStyle=orthogonalEdgeStyle;rounded=0;orthogonalLoop=1;jettySize=auto;html=1;exitX=1;exitY=0.5;exitDx=0;exitDy=0;entryX=0;entryY=0.5;entryDx=0;entryDy=0;" edge="1" parent="Qi1-2nXYAf3nwpn-80gz-1" source="kIkY15YluSQhJc9agwNJ-24" target="kIkY15YluSQhJc9agwNJ-31">
          <mxGeometry relative="1" as="geometry" />
        </mxCell>
        <mxCell id="kIkY15YluSQhJc9agwNJ-34" style="edgeStyle=orthogonalEdgeStyle;rounded=0;orthogonalLoop=1;jettySize=auto;html=1;exitX=1;exitY=0.5;exitDx=0;exitDy=0;entryX=0;entryY=0.5;entryDx=0;entryDy=0;" edge="1" parent="Qi1-2nXYAf3nwpn-80gz-1" source="kIkY15YluSQhJc9agwNJ-24" target="kIkY15YluSQhJc9agwNJ-32">
          <mxGeometry relative="1" as="geometry" />
        </mxCell>
        <mxCell id="kIkY15YluSQhJc9agwNJ-24" value="wscc == 1" style="rhombus;whiteSpace=wrap;html=1;" vertex="1" parent="Qi1-2nXYAf3nwpn-80gz-1">
          <mxGeometry x="470" y="310" width="101.5" height="30" as="geometry" />
        </mxCell>
        <mxCell id="kIkY15YluSQhJc9agwNJ-35" style="edgeStyle=orthogonalEdgeStyle;rounded=0;orthogonalLoop=1;jettySize=auto;html=1;exitX=1;exitY=0.5;exitDx=0;exitDy=0;entryX=0;entryY=0.5;entryDx=0;entryDy=0;" edge="1" parent="Qi1-2nXYAf3nwpn-80gz-1" source="kIkY15YluSQhJc9agwNJ-25" target="kIkY15YluSQhJc9agwNJ-31">
          <mxGeometry relative="1" as="geometry" />
        </mxCell>
        <mxCell id="kIkY15YluSQhJc9agwNJ-36" style="edgeStyle=orthogonalEdgeStyle;rounded=0;orthogonalLoop=1;jettySize=auto;html=1;exitX=1;exitY=0.5;exitDx=0;exitDy=0;entryX=0;entryY=0.5;entryDx=0;entryDy=0;" edge="1" parent="Qi1-2nXYAf3nwpn-80gz-1" source="kIkY15YluSQhJc9agwNJ-25" target="kIkY15YluSQhJc9agwNJ-32">
          <mxGeometry relative="1" as="geometry" />
        </mxCell>
        <mxCell id="kIkY15YluSQhJc9agwNJ-25" value="wscc == 2" style="rhombus;whiteSpace=wrap;html=1;" vertex="1" parent="Qi1-2nXYAf3nwpn-80gz-1">
          <mxGeometry x="468.5" y="376.5" width="101.5" height="30" as="geometry" />
        </mxCell>
        <mxCell id="kIkY15YluSQhJc9agwNJ-37" style="edgeStyle=orthogonalEdgeStyle;rounded=0;orthogonalLoop=1;jettySize=auto;html=1;exitX=1;exitY=0.5;exitDx=0;exitDy=0;entryX=0;entryY=0.5;entryDx=0;entryDy=0;" edge="1" parent="Qi1-2nXYAf3nwpn-80gz-1" source="kIkY15YluSQhJc9agwNJ-26" target="kIkY15YluSQhJc9agwNJ-31">
          <mxGeometry relative="1" as="geometry" />
        </mxCell>
        <mxCell id="kIkY15YluSQhJc9agwNJ-38" style="edgeStyle=orthogonalEdgeStyle;rounded=0;orthogonalLoop=1;jettySize=auto;html=1;exitX=1;exitY=0.5;exitDx=0;exitDy=0;entryX=0;entryY=0.5;entryDx=0;entryDy=0;" edge="1" parent="Qi1-2nXYAf3nwpn-80gz-1" source="kIkY15YluSQhJc9agwNJ-26" target="kIkY15YluSQhJc9agwNJ-32">
          <mxGeometry relative="1" as="geometry" />
        </mxCell>
        <mxCell id="kIkY15YluSQhJc9agwNJ-26" value="wscc == 3" style="rhombus;whiteSpace=wrap;html=1;" vertex="1" parent="Qi1-2nXYAf3nwpn-80gz-1">
          <mxGeometry x="470" y="446.5" width="101.5" height="30" as="geometry" />
        </mxCell>
        <mxCell id="kIkY15YluSQhJc9agwNJ-39" style="edgeStyle=orthogonalEdgeStyle;rounded=0;orthogonalLoop=1;jettySize=auto;html=1;" edge="1" parent="Qi1-2nXYAf3nwpn-80gz-1" source="kIkY15YluSQhJc9agwNJ-31" target="kIkY15YluSQhJc9agwNJ-23">
          <mxGeometry relative="1" as="geometry" />
        </mxCell>
        <mxCell id="kIkY15YluSQhJc9agwNJ-31" value="data.refet[&#39;type&#39;] == &#39;eto&#39;" style="rhombus;whiteSpace=wrap;html=1;" vertex="1" parent="Qi1-2nXYAf3nwpn-80gz-1">
          <mxGeometry x="620" y="343" width="169.25" height="30" as="geometry" />
        </mxCell>
        <mxCell id="kIkY15YluSQhJc9agwNJ-40" style="edgeStyle=orthogonalEdgeStyle;rounded=0;orthogonalLoop=1;jettySize=auto;html=1;entryX=0.5;entryY=1;entryDx=0;entryDy=0;" edge="1" parent="Qi1-2nXYAf3nwpn-80gz-1" source="kIkY15YluSQhJc9agwNJ-32" target="kIkY15YluSQhJc9agwNJ-23">
          <mxGeometry relative="1" as="geometry" />
        </mxCell>
        <mxCell id="kIkY15YluSQhJc9agwNJ-32" value="data.refet[&#39;type&#39;] == &#39;etr&#39;" style="rhombus;whiteSpace=wrap;html=1;" vertex="1" parent="Qi1-2nXYAf3nwpn-80gz-1">
          <mxGeometry x="620" y="406.5" width="169.25" height="30" as="geometry" />
        </mxCell>
        <mxCell id="kIkY15YluSQhJc9agwNJ-41" value="Yes" style="text;html=1;strokeColor=none;fillColor=none;align=center;verticalAlign=middle;whiteSpace=wrap;rounded=0;" vertex="1" parent="Qi1-2nXYAf3nwpn-80gz-1">
          <mxGeometry x="383.5" y="430" width="40" height="20" as="geometry" />
        </mxCell>
        <mxCell id="kIkY15YluSQhJc9agwNJ-42" value="No" style="text;html=1;strokeColor=none;fillColor=none;align=center;verticalAlign=middle;whiteSpace=wrap;rounded=0;" vertex="1" parent="Qi1-2nXYAf3nwpn-80gz-1">
          <mxGeometry x="394" y="483" width="40" height="20" as="geometry" />
        </mxCell>
        <mxCell id="kIkY15YluSQhJc9agwNJ-43" value="different Kc_max values&lt;br&gt;for 44,45,46" style="rounded=0;whiteSpace=wrap;html=1;" vertex="1" parent="Qi1-2nXYAf3nwpn-80gz-1">
          <mxGeometry x="468.5" y="490" width="140" height="37" as="geometry" />
        </mxCell>
        <mxCell id="kIkY15YluSQhJc9agwNJ-47" style="edgeStyle=orthogonalEdgeStyle;rounded=0;orthogonalLoop=1;jettySize=auto;html=1;exitX=0.5;exitY=1;exitDx=0;exitDy=0;entryX=0.5;entryY=0;entryDx=0;entryDy=0;" edge="1" parent="Qi1-2nXYAf3nwpn-80gz-1" source="kIkY15YluSQhJc9agwNJ-46" target="qQGm6dY4CESI2tMiQDDC-13">
          <mxGeometry relative="1" as="geometry" />
        </mxCell>
        <mxCell id="kIkY15YluSQhJc9agwNJ-46" value="foo.kc_bas = foo.kc_bas_wscc[wscc]" style="rounded=0;whiteSpace=wrap;html=1;" vertex="1" parent="Qi1-2nXYAf3nwpn-80gz-1">
          <mxGeometry x="140.01999999999998" y="640" width="257" height="30" as="geometry" />
        </mxCell>
      </root>
    </mxGraphModel>
  </diagram>
</mxfile>
